Recursive Mono-Casual B Slanted.ufo
<glyph name="percent" format="2">
	<unicode hex="0025"/>
	<advance width="600"/>
	<outline>
		<contour>
			<point x="276" y="710" type="curve"/>
			<point x="182" y="710"/>
			<point x="107" y="640"/>
			<point x="75" y="533" type="curve" smooth="yes"/>
			<point x="72" y="523" type="line" smooth="yes"/>
			<point x="42" y="422"/>
			<point x="88" y="356"/>
			<point x="181" y="356" type="curve"/>
			<point x="278" y="356"/>
			<point x="354" y="427"/>
			<point x="385" y="536" type="curve" smooth="yes"/>
			<point x="387" y="543" type="line" smooth="yes"/>
			<point x="415" y="640"/>
			<point x="364" y="710"/>
		</contour>
		<contour>
			<point x="165" y="524" type="curve" smooth="yes"/>
			<point x="166" y="528" type="line" smooth="yes"/>
			<point x="179" y="583"/>
			<point x="216" y="621"/>
			<point x="255" y="621" type="curve" smooth="yes"/>
			<point x="265" y="621"/>
			<point x="272" y="620"/>
			<point x="277" y="618" type="curve"/>
			<point x="282" y="596"/>
			<point x="278" y="576"/>
			<point x="273" y="557" type="curve" smooth="yes"/>
			<point x="272" y="553" type="line" smooth="yes"/>
			<point x="259" y="501"/>
			<point x="230" y="475"/>
			<point x="186" y="475" type="curve" smooth="yes"/>
			<point x="180" y="475"/>
			<point x="171" y="476"/>
			<point x="160" y="480" type="curve"/>
			<point x="158" y="495"/>
			<point x="161" y="509"/>
		</contour>
		<contour>
			<point x="457" y="344" type="curve"/>
			<point x="363" y="344"/>
			<point x="287" y="271"/>
			<point x="256" y="164" type="curve" smooth="yes"/>
			<point x="254" y="157" type="line" smooth="yes"/>
			<point x="225" y="55"/>
			<point x="269" y="-10"/>
			<point x="362" y="-10" type="curve"/>
			<point x="459" y="-10"/>
			<point x="538" y="58"/>
			<point x="565" y="168" type="curve" smooth="yes"/>
			<point x="567" y="176" type="line" smooth="yes"/>
			<point x="591" y="274"/>
			<point x="545" y="344"/>
		</contour>
		<contour>
			<point x="346" y="158" type="curve" smooth="yes"/>
			<point x="347" y="162" type="line" smooth="yes"/>
			<point x="361" y="217"/>
			<point x="397" y="255"/>
			<point x="436" y="255" type="curve" smooth="yes"/>
			<point x="446" y="255"/>
			<point x="453" y="254"/>
			<point x="458" y="252" type="curve"/>
			<point x="463" y="230"/>
			<point x="459" y="210"/>
			<point x="454" y="191" type="curve" smooth="yes"/>
			<point x="453" y="187" type="line" smooth="yes"/>
			<point x="440" y="135"/>
			<point x="412" y="109"/>
			<point x="368" y="109" type="curve" smooth="yes"/>
			<point x="362" y="109"/>
			<point x="352" y="110"/>
			<point x="341" y="114" type="curve"/>
			<point x="340" y="129"/>
			<point x="342" y="143"/>
		</contour>
		<contour>
			<point x="368" y="399" type="curve"/>
			<point x="378" y="390"/>
			<point x="395" y="385"/>
			<point x="413" y="385" type="curve" smooth="yes"/>
			<point x="443" y="385"/>
			<point x="472" y="392"/>
			<point x="513" y="419" type="curve" smooth="yes"/>
			<point x="591" y="469"/>
			<point x="646" y="548"/>
			<point x="663" y="618" type="curve" smooth="yes"/>
			<point x="675" y="666"/>
			<point x="660" y="711"/>
			<point x="590" y="711" type="curve" smooth="yes"/>
			<point x="560" y="711"/>
			<point x="542" y="707"/>
			<point x="517" y="700" type="curve"/>
			<point x="500" y="595"/>
			<point x="448" y="493"/>
		</contour>
		<contour>
			<point x="275" y="301" type="curve"/>
			<point x="265" y="310"/>
			<point x="248" y="315"/>
			<point x="230" y="315" type="curve" smooth="yes"/>
			<point x="200" y="315"/>
			<point x="171" y="308"/>
			<point x="130" y="281" type="curve" smooth="yes"/>
			<point x="52" y="231"/>
			<point x="-3" y="152"/>
			<point x="-20" y="82" type="curve" smooth="yes"/>
			<point x="-32" y="34"/>
			<point x="-17" y="-11"/>
			<point x="53" y="-11" type="curve" smooth="yes"/>
			<point x="83" y="-11"/>
			<point x="101" y="-7"/>
			<point x="126" y="0" type="curve"/>
			<point x="143" y="105"/>
			<point x="195" y="207"/>
		</contour>
	</outline>
</glyph>
<glyph name="eight" format="2">
	<unicode hex="0038"/>
	<advance width="600"/>
	<outline>
		<contour>
			<point x="402" y="720" type="curve" smooth="yes"/>
			<point x="248" y="720"/>
			<point x="153" y="633"/>
			<point x="127" y="530" type="curve" smooth="yes"/>
			<point x="125" y="522" type="line" smooth="yes"/>
			<point x="108" y="454"/>
			<point x="121" y="357"/>
			<point x="259" y="301" type="curve" smooth="yes"/>
			<point x="342" y="267" type="line" smooth="yes"/>
			<point x="404" y="242"/>
			<point x="400" y="187"/>
			<point x="391" y="153" type="curve"/>
			<point x="359" y="133"/>
			<point x="306" y="120"/>
			<point x="252" y="120" type="curve" smooth="yes"/>
			<point x="204" y="120"/>
			<point x="173" y="131"/>
			<point x="152" y="151" type="curve"/>
			<point x="159" y="185"/>
			<point x="201" y="262"/>
			<point x="351" y="300" type="curve"/>
			<point x="207" y="346" type="line"/>
			<point x="196" y="303" type="line"/>
			<point x="231" y="330" type="line"/>
			<point x="113" y="311"/>
			<point x="46" y="253"/>
			<point x="28" y="182" type="curve" smooth="yes"/>
			<point x="26" y="174" type="line" smooth="yes"/>
			<point x="-1" y="67"/>
			<point x="86" y="-20"/>
			<point x="232" y="-20" type="curve" smooth="yes"/>
			<point x="403" y="-20"/>
			<point x="491" y="39"/>
			<point x="521" y="148" type="curve" smooth="yes"/>
			<point x="524" y="159" type="line" smooth="yes"/>
			<point x="535" y="199"/>
			<point x="536" y="303"/>
			<point x="413" y="351" type="curve" smooth="yes"/>
			<point x="327" y="385" type="line" smooth="yes"/>
			<point x="256" y="413"/>
			<point x="243" y="456"/>
			<point x="255" y="503" type="curve" smooth="yes"/>
			<point x="271" y="564"/>
			<point x="329" y="580"/>
			<point x="386" y="580" type="curve" smooth="yes"/>
			<point x="417" y="580"/>
			<point x="441" y="576"/>
			<point x="462" y="566" type="curve"/>
			<point x="464" y="549"/>
			<point x="464" y="531"/>
			<point x="460" y="515" type="curve" smooth="yes"/>
			<point x="458" y="508" type="line" smooth="yes"/>
			<point x="442" y="452"/>
			<point x="401" y="410"/>
			<point x="292" y="365" type="curve"/>
			<point x="421" y="328" type="line"/>
			<point x="434" y="380" type="line"/>
			<point x="397" y="347" type="line"/>
			<point x="494" y="357"/>
			<point x="574" y="413"/>
			<point x="598" y="508" type="curve" smooth="yes"/>
			<point x="600" y="516" type="line" smooth="yes"/>
			<point x="632" y="640"/>
			<point x="539" y="720"/>
		</contour>
	</outline>
	<guideline x="-68" y="0" angle="75.96" identifier="Zo3Ie7VhEc"/>
	<guideline x="-18" y="0" angle="75.96" identifier="u34cH7REvR"/>
	<guideline x="32" y="0" angle="75.96" identifier="ydrbJ5Y9Gx"/>
	<guideline x="82" y="0" angle="75.96" identifier="pnNe78ixhv"/>
	<guideline x="132" y="0" angle="75.96" identifier="VFvfZ6IEI4"/>
	<guideline x="182" y="0" angle="75.96" identifier="YgiJaLrrZh"/>
	<guideline x="232" y="0" angle="75.96" identifier="5IrIslSjYK"/>
	<guideline x="282" y="0" angle="75.96" identifier="3If3IEWppU"/>
	<guideline x="332" y="0" angle="75.96" identifier="wIHbdA3Jti"/>
	<guideline x="382" y="0" angle="75.96" identifier="G9uIgfIQFe"/>
	<guideline x="432" y="0" angle="75.96" identifier="aBWSzIXChJ"/>
	<guideline x="482" y="0" angle="75.96" identifier="ECeMecPaAl"/>
	<guideline x="532" y="0" angle="75.96" identifier="4qVkZ6XXgb"/>
	<guideline x="-68" y="-250" angle="0" identifier="gIzh9chSNW"/>
	<guideline x="-68" y="-200" angle="0" identifier="7kaQw3qF9v"/>
	<guideline x="-68" y="-150" angle="0" identifier="NG3RapYQju"/>
	<guideline x="-68" y="-100" angle="0" identifier="E0YtdPGFnb"/>
	<guideline x="-68" y="-50" angle="0" identifier="YrCwGvHV7H"/>
	<guideline x="-68" y="0" angle="0" identifier="xoHHtU1vpo"/>
	<guideline x="-68" y="50" angle="0" identifier="434JMbboHj"/>
	<guideline x="-68" y="100" angle="0" identifier="XzOevUFwvS"/>
	<guideline x="-68" y="150" angle="0" identifier="2oYP24Gn75"/>
	<guideline x="-68" y="200" angle="0" identifier="p4zkuEeder"/>
	<guideline x="-68" y="250" angle="0" identifier="VJ15vQ9KaY"/>
	<guideline x="-68" y="300" angle="0" identifier="md06ySeQAy"/>
	<guideline x="-68" y="350" angle="0" identifier="TPJV6ZGr9B"/>
	<guideline x="-68" y="400" angle="0" identifier="Za0ro1gFnX"/>
	<guideline x="-68" y="450" angle="0" identifier="CQh5MpceNO"/>
	<guideline x="-68" y="500" angle="0" identifier="dF3cPAYYGx"/>
	<guideline x="-68" y="550" angle="0" identifier="8vZ8UIZfyW"/>
	<guideline x="-68" y="600" angle="0" identifier="1zbAFymec1"/>
	<guideline x="-68" y="650" angle="0" identifier="eVspoPAkjv"/>
	<guideline x="-68" y="700" angle="0" identifier="aye1CHP5d1"/>
</glyph>
<glyph name="A" format="2">
	<unicode hex="0041"/>
	<advance width="600"/>
	<outline>
		<contour>
			<point x="25" y="290" type="line"/>
			<point x="18" y="265" type="line"/>
			<point x="4" y="210"/>
			<point x="7" y="155"/>
			<point x="44" y="155" type="curve"/>
			<point x="388" y="155" type="line"/>
			<point x="388" y="206" type="line"/>
			<point x="388" y="252" type="line"/>
			<point x="373" y="250" type="line"/>
			<point x="358" y="274"/>
			<point x="329" y="290"/>
			<point x="286" y="290" type="curve" smooth="yes"/>
		</contour>
		<contour>
			<point x="169" y="0" type="curve"/>
			<point x="173" y="144"/>
			<point x="231" y="388"/>
			<point x="406" y="610" type="curve"/>
			<point x="358" y="590" type="line"/>
			<point x="423" y="578" type="line"/>
			<point x="391" y="616" type="line"/>
			<point x="413" y="463"/>
			<point x="405" y="322"/>
			<point x="350" y="99" type="curve" smooth="yes"/>
			<point x="332" y="27"/>
			<point x="370" y="-10"/>
			<point x="420" y="-10" type="curve" smooth="yes"/>
			<point x="463" y="-10"/>
			<point x="493" y="-6"/>
			<point x="514" y="0" type="curve"/>
			<point x="507" y="46"/>
			<point x="510" y="92"/>
			<point x="518" y="136" type="curve" smooth="yes"/>
			<point x="553" y="328"/>
			<point x="565" y="473"/>
			<point x="546" y="581" type="curve" smooth="yes"/>
			<point x="529" y="669"/>
			<point x="498" y="710"/>
			<point x="388" y="710" type="curve"/>
			<point x="363" y="710"/>
			<point x="340" y="706"/>
			<point x="319" y="701" type="curve"/>
			<point x="188" y="583"/>
			<point x="72" y="381"/>
			<point x="31" y="131" type="curve" smooth="yes"/>
			<point x="15.0319031052" y="36.1894246872"/>
			<point x="32.925" y="-10"/>
			<point x="108" y="-10" type="curve" smooth="yes"/>
			<point x="126" y="-10"/>
			<point x="151" y="-6"/>
		</contour>
	</outline>
	<anchor name="ring" x="420" y="710"/>
	<anchor name="top" x="420" y="711"/>
	<anchor name="ogonek" x="517" y="0"/>
	<anchor name="bottom" x="229" y="-1"/>
	<anchor name="hook" x="420" y="770"/>
</glyph>
<glyph name="B" format="2">
	<unicode hex="0042"/>
	<advance width="600"/>
	<outline>
		<contour>
			<point x="195" y="-10" type="curve" smooth="yes"/>
			<point x="339" y="-10"/>
			<point x="476" y="54"/>
			<point x="510" y="189" type="curve" smooth="yes"/>
			<point x="511" y="193" type="line" smooth="yes"/>
			<point x="523" y="241"/>
			<point x="499" y="290"/>
			<point x="456" y="313" type="curve"/>
			<point x="456" y="339" type="line"/>
			<point x="254" y="341" type="line"/>
			<point x="254" y="327" type="line"/>
			<point x="258" y="327" type="line"/>
			<point x="352" y="305"/>
			<point x="381" y="273"/>
			<point x="367" y="219" type="curve" smooth="yes"/>
			<point x="365" y="211" type="line" smooth="yes"/>
			<point x="351" y="154"/>
			<point x="288" y="126"/>
			<point x="210" y="126" type="curve" smooth="yes"/>
			<point x="196" y="126"/>
			<point x="184" y="128"/>
			<point x="173" y="133" type="curve"/>
			<point x="185" y="245"/>
			<point x="255" y="355"/>
			<point x="275" y="469" type="curve" smooth="yes"/>
			<point x="283" y="516"/>
			<point x="272" y="549"/>
			<point x="245" y="564" type="curve"/>
			<point x="255" y="583" type="line"/>
			<point x="160" y="583" type="line"/>
			<point x="139" y="422"/>
			<point x="44" y="283"/>
			<point x="27" y="126" type="curve" smooth="yes"/>
			<point x="23" y="89"/>
			<point x="32" y="60"/>
			<point x="50" y="42" type="curve" smooth="yes"/>
			<point x="88" y="4"/>
			<point x="132" y="-10"/>
		</contour>
		<contour>
			<point x="131" y="700" type="curve"/>
			<point x="122" y="683"/>
			<point x="114" y="667"/>
			<point x="107" y="637" type="curve" smooth="yes"/>
			<point x="94" y="584"/>
			<point x="98" y="555"/>
			<point x="135" y="555" type="curve" smooth="yes"/>
			<point x="156.2940241099" y="555"/>
			<point x="233.5620160204" y="575"/>
			<point x="358" y="575" type="curve" smooth="yes"/>
			<point x="400" y="575"/>
			<point x="431" y="572"/>
			<point x="455" y="564" type="curve"/>
			<point x="456" y="547"/>
			<point x="454" y="526"/>
			<point x="448" y="503" type="curve" smooth="yes"/>
			<point x="445" y="491" type="line" smooth="yes"/>
			<point x="426.9277025491" y="418.7108101965"/>
			<point x="363.9668874172" y="385"/>
			<point x="284" y="385" type="curve" smooth="yes"/>
			<point x="256" y="385"/>
			<point x="249" y="389"/>
			<point x="230" y="396" type="curve"/>
			<point x="192" y="300" type="line"/>
			<point x="228" y="306" type="line"/>
			<point x="241" y="286"/>
			<point x="253" y="276"/>
			<point x="282" y="276" type="curve"/>
			<point x="430.7058823529" y="276"/>
			<point x="561.0390934026" y="365.6368269089"/>
			<point x="598" y="495" type="curve" smooth="yes"/>
			<point x="600" y="502" type="line" smooth="yes"/>
			<point x="624" y="587"/>
			<point x="568" y="720"/>
			<point x="374" y="720" type="curve" smooth="yes"/>
			<point x="290" y="720"/>
			<point x="214" y="713"/>
		</contour>
	</outline>
	<anchor name="top" x="300" y="711"/>
	<anchor name="bottom" x="300" y="0"/>
</glyph>
<glyph name="F" format="2">
	<unicode hex="0046"/>
	<advance width="600"/>
	<outline>
		<contour>
			<point x="210" y="0" type="curve"/>
			<point x="205" y="31"/>
			<point x="206" y="65"/>
			<point x="211" y="96" type="curve" smooth="yes"/>
			<point x="232" y="218"/>
			<point x="300" y="336"/>
			<point x="314" y="455" type="curve" smooth="yes"/>
			<point x="319" y="495"/>
			<point x="312" y="529"/>
			<point x="292" y="550" type="curve"/>
			<point x="310" y="584" type="line"/>
			<point x="189" y="584" type="line"/>
			<point x="163" y="390"/>
			<point x="80" y="276"/>
			<point x="55" y="115" type="curve" smooth="yes"/>
			<point x="44" y="45"/>
			<point x="69" y="-8"/>
			<point x="151" y="-8" type="curve"/>
			<point x="171" y="-8"/>
			<point x="192" y="-6"/>
		</contour>
		<contour>
			<point x="146" y="700" type="line"/>
			<point x="137" y="687"/>
			<point x="130" y="674"/>
			<point x="124" y="652" type="curve" smooth="yes"/>
			<point x="109" y="597"/>
			<point x="130" y="555"/>
			<point x="179" y="555" type="curve" smooth="yes"/>
			<point x="602" y="555" type="line"/>
			<point x="610" y="569"/>
			<point x="619" y="588"/>
			<point x="624" y="609" type="curve" smooth="yes"/>
			<point x="637" y="660"/>
			<point x="618" y="700"/>
			<point x="569" y="700" type="curve" smooth="yes"/>
		</contour>
		<contour>
			<point x="227" y="350" type="line"/>
			<point x="183" y="215" type="line"/>
			<point x="468" y="215" type="line"/>
			<point x="474" y="225"/>
			<point x="479" y="237"/>
			<point x="483" y="255" type="curve" smooth="yes"/>
			<point x="495" y="306"/>
			<point x="482" y="350"/>
			<point x="416" y="350" type="curve"/>
		</contour>
	</outline>
	<anchor name="top" x="300" y="711"/>
	<anchor name="bottom" x="300" y="0"/>
</glyph>
<glyph name="I" format="2">
	<unicode hex="0049"/>
	<advance width="600"/>
	<outline>
		<contour>
			<point x="334" y="118" type="line"/>
			<point x="343" y="257"/>
			<point x="403" y="330"/>
			<point x="427" y="448" type="curve" smooth="yes"/>
			<point x="437" y="495"/>
			<point x="424" y="532"/>
			<point x="395" y="550" type="curve"/>
			<point x="412" y="582" type="line"/>
			<point x="303" y="582" type="line"/>
			<point x="295" y="454"/>
			<point x="234" y="370"/>
			<point x="210" y="252" type="curve" smooth="yes"/>
			<point x="200" y="204"/>
			<point x="214" y="168"/>
			<point x="242" y="150" type="curve"/>
			<point x="225" y="118" type="line"/>
		</contour>
		<contour>
			<point x="481" y="0" type="line"/>
			<point x="489" y="12"/>
			<point x="495" y="24"/>
			<point x="500" y="44" type="curve" smooth="yes"/>
			<point x="515" y="100"/>
			<point x="491" y="145"/>
			<point x="396" y="145" type="curve" smooth="yes"/>
			<point x="23" y="145" type="line"/>
			<point x="14" y="129"/>
			<point x="5" y="107"/>
			<point x="-1" y="83" type="curve" smooth="yes"/>
			<point x="-13" y="35"/>
			<point x="3" y="0"/>
			<point x="48" y="0" type="curve" smooth="yes"/>
		</contour>
		<contour>
			<point x="158" y="700" type="line"/>
			<point x="150" y="688"/>
			<point x="144" y="676"/>
			<point x="139" y="656" type="curve" smooth="yes"/>
			<point x="124" y="600"/>
			<point x="148" y="555"/>
			<point x="243" y="555" type="curve" smooth="yes"/>
			<point x="616" y="555" type="line"/>
			<point x="625" y="571"/>
			<point x="634" y="593"/>
			<point x="640" y="617" type="curve" smooth="yes"/>
			<point x="652" y="665"/>
			<point x="636" y="700"/>
			<point x="591" y="700" type="curve" smooth="yes"/>
		</contour>
	</outline>
	<anchor name="top" x="413" y="712"/>
	<anchor name="ogonek" x="484" y="0"/>
	<anchor name="bottom" x="235" y="-1"/>
	<anchor name="hook" x="420" y="770"/>
	<guideline x="336" y="361" angle="0" identifier="XFJI98rBcX"/>
</glyph>
<glyph name="J" format="2">
	<unicode hex="004A"/>
	<advance width="600"/>
	<outline>
		<contour>
			<point x="241" y="124" type="curve" smooth="yes"/>
			<point x="177" y="124"/>
			<point x="130" y="141"/>
			<point x="85" y="179" type="curve"/>
			<point x="79" y="179" type="line"/>
			<point x="69" y="163"/>
			<point x="60" y="148"/>
			<point x="52" y="116" type="curve"/>
			<point x="40" y="70"/>
			<point x="49" y="40"/>
			<point x="69" y="20" type="curve" smooth="yes"/>
			<point x="96" y="-7"/>
			<point x="130" y="-20"/>
			<point x="215" y="-20" type="curve" smooth="yes"/>
			<point x="358" y="-20"/>
			<point x="455" y="88"/>
			<point x="492" y="185" type="curve" smooth="yes"/>
			<point x="545" y="326"/>
			<point x="535" y="453"/>
			<point x="601" y="614" type="curve" smooth="yes"/>
			<point x="627" y="678"/>
			<point x="583" y="710"/>
			<point x="480" y="710" type="curve" smooth="yes"/>
			<point x="399" y="710"/>
			<point x="316" y="706"/>
			<point x="234" y="700" type="curve"/>
			<point x="225.9509614057" y="685.2434292437"/>
			<point x="217" y="661"/>
			<point x="212" y="634" type="curve" smooth="yes"/>
			<point x="201" y="573"/>
			<point x="218" y="540"/>
			<point x="272" y="540" type="curve" smooth="yes"/>
			<point x="326" y="540"/>
			<point x="392" y="554"/>
			<point x="459" y="588" type="curve"/>
			<point x="405" y="587" type="line"/>
			<point x="456" y="559" type="line"/>
			<point x="447" y="602" type="line"/>
			<point x="387" y="444"/>
			<point x="385" y="327"/>
			<point x="351" y="220" type="curve"/>
			<point x="341" y="186"/>
			<point x="330" y="161"/>
			<point x="314" y="139" type="curve"/>
			<point x="293" y="129"/>
			<point x="270" y="124"/>
		</contour>
	</outline>
	<anchor name="top" x="411.7995302052" y="711"/>
	<anchor name="bottom" x="300" y="0"/>
</glyph>
<glyph name="K" format="2">
	<unicode hex="004B"/>
	<advance width="600"/>
	<outline>
		<contour>
			<point x="415" y="380" type="curve"/>
			<point x="275" y="264" type="line"/>
			<point x="299" y="252" type="line"/>
			<point x="297" y="189"/>
			<point x="302" y="132"/>
			<point x="322" y="75" type="curve" smooth="yes"/>
			<point x="344" y="11"/>
			<point x="375" y="-20"/>
			<point x="425" y="-20" type="curve" smooth="yes"/>
			<point x="452" y="-20"/>
			<point x="471" y="-13"/>
			<point x="487" y="3" type="curve" smooth="yes"/>
			<point x="503" y="19"/>
			<point x="515" y="45"/>
			<point x="523" y="76" type="curve" smooth="yes"/>
			<point x="532" y="109"/>
			<point x="533" y="131"/>
			<point x="532" y="152" type="curve"/>
			<point x="526" y="152" type="line"/>
			<point x="516" y="145"/>
			<point x="509" y="143"/>
			<point x="492" y="143" type="curve" smooth="yes"/>
			<point x="463" y="143"/>
			<point x="447" y="162"/>
			<point x="436" y="200" type="curve" smooth="yes"/>
			<point x="419" y="258"/>
			<point x="414" y="303"/>
		</contour>
		<contour>
			<point x="546" y="710" type="curve" smooth="yes"/>
			<point x="522" y="710" type="line"/>
			<point x="495" y="631"/>
			<point x="457" y="562"/>
			<point x="412" y="504" type="curve" smooth="yes"/>
			<point x="366" y="446"/>
			<point x="315" y="398"/>
			<point x="261" y="358" type="curve"/>
			<point x="226" y="388" type="line"/>
			<point x="173" y="210" type="line"/>
			<point x="288" y="231"/>
			<point x="502" y="364"/>
			<point x="592" y="498" type="curve" smooth="yes"/>
			<point x="637" y="563"/>
			<point x="652" y="600"/>
			<point x="663" y="643" type="curve" smooth="yes"/>
			<point x="675" y="692"/>
			<point x="622" y="710"/>
		</contour>
		<contour>
			<point x="171" y="700" type="curve"/>
			<point x="175" y="666"/>
			<point x="174" y="630"/>
			<point x="167" y="591" type="curve" smooth="yes"/>
			<point x="135" y="411"/>
			<point x="56" y="273"/>
			<point x="36" y="132" type="curve" smooth="yes"/>
			<point x="22" y="32"/>
			<point x="62" y="-8"/>
			<point x="124" y="-8" type="curve" smooth="yes"/>
			<point x="143" y="-8"/>
			<point x="162" y="-5"/>
			<point x="177" y="0" type="curve"/>
			<point x="173" y="217"/>
			<point x="278" y="359"/>
			<point x="313" y="567" type="curve" smooth="yes"/>
			<point x="329" y="661"/>
			<point x="309" y="708"/>
			<point x="234" y="708" type="curve" smooth="yes"/>
			<point x="213" y="708"/>
			<point x="195" y="706"/>
		</contour>
	</outline>
	<anchor name="bottom" x="253.7499303373" y="-1"/>
	<anchor name="top" x="422" y="711"/>
</glyph>
<glyph name="P" format="2">
	<unicode hex="0050"/>
	<advance width="600"/>
	<outline>
		<contour>
			<point x="190" y="0" type="curve"/>
			<point x="185" y="31"/>
			<point x="186" y="65"/>
			<point x="191" y="96" type="curve" smooth="yes"/>
			<point x="213" y="224"/>
			<point x="281" y="348"/>
			<point x="296" y="473" type="curve" smooth="yes"/>
			<point x="301" y="513"/>
			<point x="293" y="546"/>
			<point x="273" y="567" type="curve"/>
			<point x="291" y="602" type="line"/>
			<point x="169" y="584" type="line"/>
			<point x="143" y="390"/>
			<point x="60" y="276"/>
			<point x="35" y="115" type="curve" smooth="yes"/>
			<point x="24" y="45"/>
			<point x="49" y="-8"/>
			<point x="131" y="-8" type="curve"/>
			<point x="151" y="-8"/>
			<point x="172" y="-6"/>
		</contour>
		<contour>
			<point x="133" y="700" type="curve"/>
			<point x="125" y="683"/>
			<point x="119" y="666"/>
			<point x="113" y="643" type="curve" smooth="yes"/>
			<point x="98" y="584"/>
			<point x="104" y="555"/>
			<point x="135" y="555" type="curve" smooth="yes"/>
			<point x="156.2940241099" y="555"/>
			<point x="234" y="575"/>
			<point x="358" y="575" type="curve" smooth="yes"/>
			<point x="397" y="575"/>
			<point x="424" y="571"/>
			<point x="455" y="560" type="curve"/>
			<point x="457" y="524"/>
			<point x="453" y="495"/>
			<point x="447" y="471" type="curve" smooth="yes"/>
			<point x="444" y="460" type="line" smooth="yes"/>
			<point x="407" y="322"/>
			<point x="358" y="300"/>
			<point x="295" y="300" type="curve" smooth="yes"/>
			<point x="263" y="300"/>
			<point x="251" y="303"/>
			<point x="227" y="310" type="curve"/>
			<point x="192" y="203" type="line"/>
			<point x="227" y="214" type="line"/>
			<point x="248" y="186"/>
			<point x="280" y="163"/>
			<point x="325" y="163" type="curve" smooth="yes"/>
			<point x="433" y="163"/>
			<point x="540" y="219"/>
			<point x="597" y="448" type="curve" smooth="yes"/>
			<point x="599" y="457" type="line" smooth="yes"/>
			<point x="631" y="583"/>
			<point x="554" y="720"/>
			<point x="380" y="720" type="curve" smooth="yes"/>
			<point x="290" y="720"/>
			<point x="222" y="714"/>
		</contour>
	</outline>
	<anchor name="top" x="300" y="711"/>
	<anchor name="bottom" x="300" y="0"/>
</glyph>
<glyph name="Q" format="2">
	<unicode hex="0051"/>
	<advance width="600"/>
	<outline>
		<contour>
			<point x="379" y="124" type="curve"/>
			<point x="268" y="60" type="line"/>
			<point x="264" y="-5"/>
			<point x="265" y="-54"/>
			<point x="282" y="-109" type="curve" smooth="yes"/>
			<point x="298" y="-161"/>
			<point x="335" y="-187"/>
			<point x="388" y="-187" type="curve" smooth="yes"/>
			<point x="412" y="-187"/>
			<point x="433" y="-179"/>
			<point x="449" y="-163" type="curve" smooth="yes"/>
			<point x="466" y="-146"/>
			<point x="480" y="-120"/>
			<point x="489" y="-83" type="curve" smooth="yes"/>
			<point x="495" y="-61"/>
			<point x="498" y="-42"/>
			<point x="498" y="-21" type="curve"/>
			<point x="492" y="-21" type="line"/>
			<point x="480" y="-28"/>
			<point x="468" y="-31"/>
			<point x="451" y="-31" type="curve" smooth="yes"/>
			<point x="422" y="-31"/>
			<point x="404" y="-17"/>
			<point x="393" y="21" type="curve" smooth="yes"/>
			<point x="383" y="55"/>
			<point x="380" y="90"/>
		</contour>
		<component base="O"/>
	</outline>
	<anchor name="top" x="300" y="711"/>
	<anchor name="bottom" x="300" y="0"/>
	<guideline x="-68" y="0" angle="75.96" identifier="buIkcQyAlV"/>
	<guideline x="-18" y="0" angle="75.96" identifier="H26ciRb1PM"/>
	<guideline x="32" y="0" angle="75.96" identifier="B9QDWvex1s"/>
	<guideline x="82" y="0" angle="75.96" identifier="WAiBbnPthe"/>
	<guideline x="132" y="0" angle="75.96" identifier="W77RMGiZPt"/>
	<guideline x="182" y="0" angle="75.96" identifier="nLxRdlP24I"/>
	<guideline x="232" y="0" angle="75.96" identifier="fN0HuT1JYL"/>
	<guideline x="282" y="0" angle="75.96" identifier="RYQvcb0JsD"/>
	<guideline x="332" y="0" angle="75.96" identifier="rrKm7xlwzw"/>
	<guideline x="382" y="0" angle="75.96" identifier="8r2yyaoiaK"/>
	<guideline x="432" y="0" angle="75.96" identifier="PRY8v07rh4"/>
	<guideline x="482" y="0" angle="75.96" identifier="kOvwtOufSA"/>
	<guideline x="532" y="0" angle="75.96" identifier="7WtPbQs3RB"/>
	<guideline x="-68" y="-250" angle="0" identifier="5ejlX6iPvd"/>
	<guideline x="-68" y="-200" angle="0" identifier="WZU6tfbRbz"/>
	<guideline x="-68" y="-150" angle="0" identifier="yKeg9s4Ghm"/>
	<guideline x="-68" y="-100" angle="0" identifier="3eM0HtARXd"/>
	<guideline x="-68" y="-50" angle="0" identifier="bY5xIhJ3MN"/>
	<guideline x="-68" y="0" angle="0" identifier="ynDshWB2Xf"/>
	<guideline x="-68" y="50" angle="0" identifier="Pv6brAQSgh"/>
	<guideline x="-68" y="100" angle="0" identifier="44FlucVS6v"/>
	<guideline x="-68" y="150" angle="0" identifier="lWMtNzRpug"/>
	<guideline x="-68" y="200" angle="0" identifier="eAtEkDRZva"/>
	<guideline x="-68" y="250" angle="0" identifier="8nPUSkvEQF"/>
	<guideline x="-68" y="300" angle="0" identifier="p0MvFxIFbw"/>
	<guideline x="-68" y="350" angle="0" identifier="IxOR7B3nWW"/>
	<guideline x="-68" y="400" angle="0" identifier="reyR1mkist"/>
	<guideline x="-68" y="450" angle="0" identifier="CpHJ4RV98b"/>
	<guideline x="-68" y="500" angle="0" identifier="wPBjOJPF62"/>
	<guideline x="-68" y="550" angle="0" identifier="42Lf7qH4zr"/>
	<guideline x="-68" y="600" angle="0" identifier="C2HX46vN2C"/>
	<guideline x="-68" y="650" angle="0" identifier="10FSk3tURs"/>
	<guideline x="-68" y="700" angle="0" identifier="udXGne7sDq"/>
</glyph>
<glyph name="S" format="2">
	<unicode hex="0053"/>
	<advance width="600"/>
	<outline>
		<contour>
			<point x="444" y="720" type="curve"/>
			<point x="313" y="720"/>
			<point x="158" y="612"/>
			<point x="125" y="479" type="curve" smooth="yes"/>
			<point x="121" y="463" type="line" smooth="yes"/>
			<point x="106" y="404"/>
			<point x="110" y="324"/>
			<point x="250" y="267" type="curve" smooth="yes"/>
			<point x="333" y="233" type="line" smooth="yes"/>
			<point x="373" y="216"/>
			<point x="394" y="193"/>
			<point x="387" y="158" type="curve" smooth="yes"/>
			<point x="385" y="148" type="line"/>
			<point x="354" y="133"/>
			<point x="314" y="125"/>
			<point x="275" y="125" type="curve" smooth="yes"/>
			<point x="159" y="125"/>
			<point x="94" y="156"/>
			<point x="52" y="213" type="curve"/>
			<point x="46" y="213" type="line"/>
			<point x="36" y="198"/>
			<point x="26" y="177"/>
			<point x="21" y="152" type="curve" smooth="yes"/>
			<point x="9" y="101"/>
			<point x="18" y="62"/>
			<point x="40" y="40" type="curve" smooth="yes"/>
			<point x="70" y="10"/>
			<point x="132" y="-20"/>
			<point x="252" y="-20" type="curve" smooth="yes"/>
			<point x="400" y="-20"/>
			<point x="486" y="17"/>
			<point x="514" y="128" type="curve" smooth="yes"/>
			<point x="518" y="144" type="line" smooth="yes"/>
			<point x="530" y="193"/>
			<point x="530" y="281"/>
			<point x="409" y="329" type="curve" smooth="yes"/>
			<point x="323" y="363" type="line" smooth="yes"/>
			<point x="270" y="385"/>
			<point x="255" y="412"/>
			<point x="263" y="445" type="curve" smooth="yes"/>
			<point x="265" y="453" type="line" smooth="yes"/>
			<point x="281" y="517"/>
			<point x="368" y="579"/>
			<point x="432" y="579" type="curve"/>
			<point x="461" y="579"/>
			<point x="474" y="574"/>
			<point x="489" y="558" type="curve"/>
			<point x="518" y="615" type="line"/>
			<point x="472" y="582"/>
			<point x="437" y="537"/>
			<point x="426" y="497" type="curve" smooth="yes"/>
			<point x="413" y="451"/>
			<point x="437" y="420"/>
			<point x="508" y="420" type="curve" smooth="yes"/>
			<point x="528" y="420"/>
			<point x="549" y="424"/>
			<point x="566" y="431" type="curve"/>
			<point x="568" y="471"/>
			<point x="577.3221417655" y="497.6274961792"/>
			<point x="594" y="556" type="curve" smooth="yes"/>
			<point x="605.3040261553" y="597.1055496555"/>
			<point x="599.9958474981" y="635.0041525019"/>
			<point x="562" y="673" type="curve" smooth="yes"/>
			<point x="533" y="702"/>
			<point x="502" y="720"/>
		</contour>
	</outline>
	<anchor name="top" x="419.7995302052" y="711"/>
	<anchor name="bottom" x="231.7499303373" y="-1"/>
	<anchor name="dot" x="506" y="705"/>
</glyph>
<glyph name="V" format="2">
	<unicode hex="0056"/>
	<advance width="600"/>
	<outline>
		<contour>
			<point x="206" y="708" type="curve" smooth="yes"/>
			<point x="190" y="708"/>
			<point x="171" y="706"/>
			<point x="145" y="700" type="curve"/>
			<point x="149" y="667"/>
			<point x="145" y="634"/>
			<point x="132" y="567" type="curve" smooth="yes"/>
			<point x="83" y="321"/>
			<point x="80" y="123"/>
			<point x="145" y="37" type="curve" smooth="yes"/>
			<point x="172" y="1"/>
			<point x="194" y="-8"/>
			<point x="235" y="-8" type="curve" smooth="yes"/>
			<point x="258" y="-8"/>
			<point x="284" y="-6"/>
			<point x="301" y="0" type="curve"/>
			<point x="443" y="94"/>
			<point x="550" y="299"/>
			<point x="618" y="562" type="curve" smooth="yes"/>
			<point x="645" y="667"/>
			<point x="613" y="708"/>
			<point x="531" y="708" type="curve"/>
			<point x="519" y="708"/>
			<point x="494" y="706"/>
			<point x="465" y="700" type="curve"/>
			<point x="441" y="396"/>
			<point x="365" y="247"/>
			<point x="236" y="95" type="curve"/>
			<point x="283" y="112" type="line"/>
			<point x="218" y="131" type="line"/>
			<point x="255" y="96" type="line"/>
			<point x="234" y="240"/>
			<point x="255" y="359"/>
			<point x="294" y="566" type="curve" smooth="yes"/>
			<point x="311" y="654"/>
			<point x="297" y="708"/>
		</contour>
	</outline>
	<anchor name="top" x="300" y="711"/>
	<anchor name="bottom" x="300" y="0"/>
</glyph>
<glyph name="X" format="2">
	<unicode hex="0058"/>
	<advance width="600"/>
	<outline>
		<contour>
			<point x="435" y="-10" type="curve" smooth="yes"/>
			<point x="459" y="-10"/>
			<point x="486" y="-6"/>
			<point x="507" y="0" type="curve"/>
			<point x="456" y="82"/>
			<point x="413" y="201"/>
			<point x="378" y="324" type="curve"/>
			<point x="358" y="400" type="line"/>
			<point x="336.9863057488" y="487.8754486869"/>
			<point x="327.5964596892" y="540.4076737355"/>
			<point x="319" y="613" type="curve" smooth="yes"/>
			<point x="313.4170344759" y="664.3632828221"/>
			<point x="288" y="708"/>
			<point x="211" y="708" type="curve"/>
			<point x="186" y="708"/>
			<point x="162" y="706"/>
			<point x="135" y="700" type="curve"/>
			<point x="153" y="585"/>
			<point x="189" y="433"/>
			<point x="233" y="292" type="curve"/>
			<point x="254" y="223" type="line"/>
			<point x="277" y="156"/>
			<point x="300" y="94"/>
			<point x="322" y="46" type="curve" smooth="yes"/>
			<point x="339" y="11"/>
			<point x="371.5384615385" y="-10"/>
		</contour>
		<contour>
			<point x="567" y="708" type="curve" smooth="yes"/>
			<point x="544" y="708"/>
			<point x="528" y="706"/>
			<point x="504" y="700" type="curve"/>
			<point x="457" y="577"/>
			<point x="409" y="490"/>
			<point x="359" y="422" type="curve"/>
			<point x="306" y="422" type="line"/>
			<point x="356" y="281" type="line"/>
			<point x="487.4887465051" y="389.7500910944"/>
			<point x="581.2261262061" y="488.2989866365"/>
			<point x="636" y="591" type="curve" smooth="yes"/>
			<point x="674.3328533156" y="661.2768977452"/>
			<point x="649" y="708"/>
		</contour>
		<contour>
			<point x="76" y="-8" type="curve"/>
			<point x="99" y="-8"/>
			<point x="126" y="-5"/>
			<point x="145" y="0" type="curve"/>
			<point x="174" y="75"/>
			<point x="210" y="146"/>
			<point x="255" y="202" type="curve"/>
			<point x="296" y="202" type="line"/>
			<point x="256" y="340" type="line"/>
			<point x="131" y="250"/>
			<point x="45" y="168"/>
			<point x="0" y="94" type="curve" smooth="yes"/>
			<point x="-33" y="41"/>
			<point x="-2" y="-8"/>
		</contour>
	</outline>
	<anchor name="top" x="300" y="711"/>
	<anchor name="bottom" x="300" y="0"/>
</glyph>
<glyph name="b" format="2">
	<unicode hex="0062"/>
	<advance width="600"/>
	<outline>
		<contour>
			<point x="159" y="0" type="curve"/>
			<point x="161" y="46"/>
			<point x="166" y="89"/>
			<point x="174" y="130" type="curve" smooth="yes"/>
			<point x="204" y="290"/>
			<point x="272" y="419"/>
			<point x="313" y="579" type="curve" smooth="yes"/>
			<point x="347" y="716"/>
			<point x="295" y="758"/>
			<point x="226" y="758" type="curve" smooth="yes"/>
			<point x="205" y="758"/>
			<point x="187" y="756"/>
			<point x="169" y="750" type="curve"/>
			<point x="181" y="723"/>
			<point x="178" y="683"/>
			<point x="171" y="651" type="curve" smooth="yes"/>
			<point x="133" y="465"/>
			<point x="71" y="352"/>
			<point x="25" y="155" type="curve" smooth="yes"/>
			<point x="6" y="73"/>
			<point x="49" y="-3"/>
			<point x="132" y="-3" type="curve" smooth="yes"/>
			<point x="141" y="-3"/>
			<point x="151" y="-2"/>
		</contour>
		<contour>
			<point x="144" y="69" type="line"/>
			<point x="171" y="75" type="line"/>
			<point x="194" y="38"/>
			<point x="238" y="-12"/>
			<point x="297" y="-12" type="curve" smooth="yes"/>
			<point x="413" y="-12"/>
			<point x="505" y="80"/>
			<point x="560" y="292" type="curve" smooth="yes"/>
			<point x="567" y="319" type="line" smooth="yes"/>
			<point x="597" y="434"/>
			<point x="545" y="552"/>
			<point x="467" y="552" type="curve" smooth="yes"/>
			<point x="404" y="552"/>
			<point x="327" y="496"/>
			<point x="271" y="426" type="curve"/>
			<point x="246" y="436" type="line"/>
			<point x="182" y="221" type="line"/>
			<point x="256" y="344"/>
			<point x="331" y="396"/>
			<point x="405" y="396" type="curve" smooth="yes"/>
			<point x="411" y="396"/>
			<point x="417" y="395"/>
			<point x="422" y="394" type="curve"/>
			<point x="423" y="367"/>
			<point x="417" y="337"/>
			<point x="405" y="298" type="curve" smooth="yes"/>
			<point x="401" y="283" type="line" smooth="yes"/>
			<point x="373" y="187"/>
			<point x="333" y="127"/>
			<point x="259" y="127" type="curve" smooth="yes"/>
			<point x="216" y="127"/>
			<point x="186" y="141"/>
			<point x="169" y="167" type="curve"/>
		</contour>
	</outline>
	<anchor name="top" x="300" y="730"/>
	<anchor name="bottom" x="300" y="-1"/>
</glyph>
<glyph name="d" format="2">
	<unicode hex="0064"/>
	<advance width="600"/>
	<outline>
		<contour>
			<point x="307" y="552" type="curve" smooth="yes"/>
			<point x="180" y="552"/>
			<point x="89" y="456"/>
			<point x="32" y="238" type="curve" smooth="yes"/>
			<point x="25" y="211" type="line" smooth="yes"/>
			<point x="-2" y="100"/>
			<point x="48" y="-12"/>
			<point x="127" y="-12" type="curve" smooth="yes"/>
			<point x="197" y="-12"/>
			<point x="281" y="54"/>
			<point x="336" y="133" type="curve"/>
			<point x="368" y="125" type="line"/>
			<point x="412" y="319" type="line"/>
			<point x="338" y="196"/>
			<point x="263" y="144"/>
			<point x="189" y="144" type="curve" smooth="yes"/>
			<point x="182" y="144"/>
			<point x="176" y="145"/>
			<point x="169" y="146" type="curve"/>
			<point x="168" y="165"/>
			<point x="173" y="189"/>
			<point x="185" y="230" type="curve" smooth="yes"/>
			<point x="190" y="247" type="line" smooth="yes"/>
			<point x="221" y="353"/>
			<point x="261" y="413"/>
			<point x="335" y="413" type="curve" smooth="yes"/>
			<point x="378" y="413"/>
			<point x="417" y="398"/>
			<point x="434" y="372" type="curve"/>
			<point x="465" y="470" type="line"/>
			<point x="432" y="465" type="line"/>
			<point x="409" y="502"/>
			<point x="366" y="552"/>
		</contour>
		<contour>
			<point x="548" y="758" type="curve" smooth="yes"/>
			<point x="527" y="758"/>
			<point x="509" y="756"/>
			<point x="491" y="750" type="curve"/>
			<point x="503" y="723"/>
			<point x="501" y="683"/>
			<point x="493" y="651" type="curve" smooth="yes"/>
			<point x="446" y="470"/>
			<point x="396" y="352"/>
			<point x="346" y="155" type="curve" smooth="yes"/>
			<point x="326" y="73"/>
			<point x="370" y="-6"/>
			<point x="453" y="-6" type="curve" smooth="yes"/>
			<point x="472" y="-6"/>
			<point x="482" y="-4"/>
			<point x="501" y="0" type="curve"/>
			<point x="490" y="37"/>
			<point x="488" y="71"/>
			<point x="494" y="104" type="curve" smooth="yes"/>
			<point x="526" y="276"/>
			<point x="590" y="410"/>
			<point x="633" y="579" type="curve" smooth="yes"/>
			<point x="667" y="716"/>
			<point x="617" y="758"/>
		</contour>
	</outline>
	<anchor name="caronslovak" x="711" y="711"/>
	<anchor name="bottom" x="226" y="0"/>
	<anchor name="top" x="300" y="730"/>
</glyph>
<glyph name="e" format="2">
	<unicode hex="0065"/>
	<advance width="600"/>
	<outline>
		<contour>
			<point x="369" y="552" type="curve" smooth="yes"/>
			<point x="219" y="552"/>
			<point x="98" y="462"/>
			<point x="58" y="302" type="curve" smooth="yes"/>
			<point x="57" y="298" type="line" smooth="yes"/>
			<point x="15" y="134"/>
			<point x="102" y="-12"/>
			<point x="286" y="-12" type="curve" smooth="yes"/>
			<point x="349" y="-12"/>
			<point x="414" y="-2"/>
			<point x="446" y="30" type="curve" smooth="yes"/>
			<point x="465" y="49"/>
			<point x="482" y="74"/>
			<point x="494" y="121" type="curve" smooth="yes"/>
			<point x="497" y="133"/>
			<point x="499" y="146"/>
			<point x="499" y="159" type="curve"/>
			<point x="493" y="159" type="line"/>
			<point x="431" y="131"/>
			<point x="365" y="121"/>
			<point x="302" y="121" type="curve" smooth="yes"/>
			<point x="245" y="121"/>
			<point x="213" y="127"/>
			<point x="189" y="141" type="curve"/>
			<point x="182" y="164"/>
			<point x="183" y="203"/>
			<point x="192" y="240" type="curve" smooth="yes"/>
			<point x="193" y="244" type="line" smooth="yes"/>
			<point x="226" y="376"/>
			<point x="294" y="432"/>
			<point x="370" y="432" type="curve" smooth="yes"/>
			<point x="392" y="432"/>
			<point x="408" y="430"/>
			<point x="423" y="425" type="curve"/>
			<point x="431" y="402"/>
			<point x="429" y="371"/>
			<point x="423" y="344" type="curve" smooth="yes"/>
			<point x="421" y="337"/>
			<point x="417" y="326"/>
			<point x="411" y="318" type="curve"/>
			<point x="202" y="318" type="line"/>
			<point x="174" y="250" type="line"/>
			<point x="204" y="262" type="line"/>
			<point x="220" y="242"/>
			<point x="253" y="228"/>
			<point x="297" y="228" type="curve"/>
			<point x="495" y="228" type="line"/>
			<point x="513" y="228"/>
			<point x="547" y="234"/>
			<point x="564" y="320" type="curve" smooth="yes"/>
			<point x="565" y="325" type="line" smooth="yes"/>
			<point x="592" y="459"/>
			<point x="526" y="552"/>
		</contour>
	</outline>
	<anchor name="top" x="389.7883841675" y="551"/>
	<anchor name="ogonek" x="433" y="26"/>
	<anchor name="bottom" x="231.7499303373" y="-1"/>
	<anchor name="hook" x="391" y="584"/>
</glyph>
<glyph name="f" format="2">
	<unicode hex="0066"/>
	<advance width="600"/>
	<outline>
		<contour>
			<point x="110" y="510" type="line"/>
			<point x="100" y="500"/>
			<point x="95" y="491"/>
			<point x="90" y="474" type="curve" smooth="yes"/>
			<point x="75" y="420"/>
			<point x="112" y="370"/>
			<point x="201" y="370" type="curve"/>
			<point x="570" y="370" type="line"/>
			<point x="578" y="386"/>
			<point x="586" y="407"/>
			<point x="591" y="428" type="curve" smooth="yes"/>
			<point x="603" y="480"/>
			<point x="582" y="510"/>
			<point x="520" y="510" type="curve" smooth="yes"/>
		</contour>
		<contour>
			<point x="294" y="86" type="curve" smooth="yes"/>
			<point x="333.0934664076" y="183.7336660191"/>
			<point x="338.0454414763" y="296.2441020738"/>
			<point x="390" y="510" type="curve" smooth="yes"/>
			<point x="403" y="565"/>
			<point x="413" y="593"/>
			<point x="429" y="621" type="curve"/>
			<point x="451" y="627"/>
			<point x="474" y="629"/>
			<point x="504" y="629" type="curve" smooth="yes"/>
			<point x="561" y="629"/>
			<point x="616" y="617"/>
			<point x="643" y="600" type="curve"/>
			<point x="649" y="600" type="line"/>
			<point x="661" y="617"/>
			<point x="670" y="642"/>
			<point x="676" y="664" type="curve" smooth="yes"/>
			<point x="684" y="701"/>
			<point x="683" y="722"/>
			<point x="668" y="737" type="curve" smooth="yes"/>
			<point x="651" y="754"/>
			<point x="611" y="770"/>
			<point x="529" y="770" type="curve" smooth="yes"/>
			<point x="408" y="770"/>
			<point x="297" y="699"/>
			<point x="252" y="539" type="curve" smooth="yes"/>
			<point x="206" y="374"/>
			<point x="204" y="287"/>
			<point x="152" y="138" type="curve" smooth="yes"/>
			<point x="129" y="72"/>
			<point x="105" y="34"/>
			<point x="79" y="0" type="curve"/>
			<point x="98" y="-12"/>
			<point x="119" y="-17"/>
			<point x="152" y="-17" type="curve" smooth="yes"/>
			<point x="220.5850340136" y="-17"/>
			<point x="264.5618394434" y="12.4045986084"/>
		</contour>
	</outline>
	<anchor name="top" x="300" y="730"/>
	<anchor name="bottom" x="300" y="-1"/>
</glyph>
<glyph name="g" format="2">
	<unicode hex="0067"/>
	<advance width="600"/>
	<outline>
		<contour>
			<point x="109" y="69" type="curve" smooth="yes"/>
			<point x="94" y="10"/>
			<point x="145" y="-44"/>
			<point x="219" y="-49" type="curve" smooth="yes"/>
			<point x="318" y="-56" type="line" smooth="yes"/>
			<point x="337" y="-57"/>
			<point x="341" y="-72"/>
			<point x="337" y="-88" type="curve" smooth="yes"/>
			<point x="335" y="-96" type="line" smooth="yes"/>
			<point x="331" y="-111"/>
			<point x="326" y="-129"/>
			<point x="317" y="-140" type="curve"/>
			<point x="270" y="-150"/>
			<point x="221" y="-154"/>
			<point x="168" y="-154" type="curve" smooth="yes"/>
			<point x="155" y="-154" type="line" smooth="yes"/>
			<point x="99" y="-154"/>
			<point x="79" y="-133"/>
			<point x="90" y="-96" type="curve" smooth="yes"/>
			<point x="92" y="-89" type="line" smooth="yes"/>
			<point x="100" y="-61"/>
			<point x="126" y="-33"/>
			<point x="172" y="-33" type="curve"/>
			<point x="122" y="19" type="line"/>
			<point x="113" y="6" type="line"/>
			<point x="10" y="3"/>
			<point x="-43" y="-35"/>
			<point x="-58" y="-93" type="curve" smooth="yes"/>
			<point x="-61" y="-105" type="line" smooth="yes"/>
			<point x="-79" y="-178"/>
			<point x="-22" y="-250"/>
			<point x="134" y="-250" type="curve" smooth="yes"/>
			<point x="143" y="-250" type="line" smooth="yes"/>
			<point x="358" y="-250"/>
			<point x="459" y="-193"/>
			<point x="485" y="-81" type="curve" smooth="yes"/>
			<point x="488" y="-68" type="line" smooth="yes"/>
			<point x="506" y="8"/>
			<point x="454" y="62"/>
			<point x="389" y="67" type="curve" smooth="yes"/>
			<point x="275" y="76" type="line" smooth="yes"/>
			<point x="256" y="78"/>
			<point x="247" y="94"/>
			<point x="252" y="114" type="curve" smooth="yes"/>
			<point x="257" y="137"/>
			<point x="269" y="158"/>
			<point x="281" y="168" type="curve"/>
			<point x="202" y="178" type="line"/>
			<point x="202" y="163" type="line"/>
			<point x="147" y="144"/>
			<point x="118" y="108"/>
		</contour>
		<contour>
			<point x="372" y="437" type="line"/>
			<point x="400" y="408"/>
			<point x="400" y="376"/>
			<point x="392" y="343" type="curve" smooth="yes"/>
			<point x="389" y="331" type="line" smooth="yes"/>
			<point x="379" y="291"/>
			<point x="341" y="267"/>
			<point x="284" y="267" type="curve" smooth="yes"/>
			<point x="243" y="267"/>
			<point x="222" y="272"/>
			<point x="200" y="283" type="curve"/>
			<point x="196" y="299"/>
			<point x="197" y="314"/>
			<point x="201" y="330" type="curve" smooth="yes"/>
			<point x="203" y="338" type="line" smooth="yes"/>
			<point x="218" y="397"/>
			<point x="265" y="422"/>
			<point x="349" y="422" type="curve" smooth="yes"/>
			<point x="457" y="422"/>
			<point x="509" y="411"/>
			<point x="547" y="411" type="curve" smooth="yes"/>
			<point x="583" y="411"/>
			<point x="605" y="445"/>
			<point x="618" y="494" type="curve" smooth="yes"/>
			<point x="623" y="514"/>
			<point x="625" y="534"/>
			<point x="623" y="544" type="curve"/>
			<point x="549" y="550"/>
			<point x="478" y="553"/>
			<point x="392" y="553" type="curve" smooth="yes"/>
			<point x="212" y="553"/>
			<point x="109" y="495"/>
			<point x="79" y="376" type="curve" smooth="yes"/>
			<point x="77" y="368" type="line" smooth="yes"/>
			<point x="48" y="254"/>
			<point x="138" y="158"/>
			<point x="275" y="160" type="curve" smooth="yes"/>
			<point x="400" y="160"/>
			<point x="488" y="191"/>
			<point x="513" y="282" type="curve" smooth="yes"/>
			<point x="516" y="293" type="line" smooth="yes"/>
			<point x="527" y="335"/>
			<point x="506" y="383"/>
			<point x="465" y="411" type="curve"/>
			<point x="469" y="427" type="line"/>
		</contour>
	</outline>
	<anchor name="top" x="363" y="539"/>
	<anchor name="bottom" x="300" y="-251"/>
</glyph>
<glyph name="l" format="2">
	<unicode hex="006C"/>
	<advance width="600"/>
	<outline>
		<contour>
			<point x="118" y="714" type="curve"/>
			<point x="106" y="692"/>
			<point x="100" y="675"/>
			<point x="95" y="656" type="curve" smooth="yes"/>
			<point x="77" y="582"/>
			<point x="92" y="555"/>
			<point x="132" y="555" type="curve" smooth="yes"/>
			<point x="179" y="555"/>
			<point x="292" y="579"/>
			<point x="360" y="646" type="curve"/>
			<point x="367" y="641" type="line"/>
			<point x="323" y="478"/>
			<point x="185" y="360"/>
			<point x="161" y="197" type="curve" smooth="yes"/>
			<point x="146" y="104"/>
			<point x="230" y="-10"/>
			<point x="341" y="-10" type="curve" smooth="yes"/>
			<point x="398" y="-10"/>
			<point x="443" y="4"/>
			<point x="473" y="29" type="curve" smooth="yes"/>
			<point x="502" y="53"/>
			<point x="520" y="80"/>
			<point x="534" y="135" type="curve" smooth="yes"/>
			<point x="543" y="174"/>
			<point x="543" y="202"/>
			<point x="541" y="239" type="curve"/>
			<point x="535" y="239" type="line"/>
			<point x="459" y="149"/>
			<point x="400" y="125"/>
			<point x="329" y="125" type="curve" smooth="yes"/>
			<point x="320" y="125"/>
			<point x="311" y="126"/>
			<point x="302" y="129" type="curve"/>
			<point x="303" y="144"/>
			<point x="306" y="160"/>
			<point x="310" y="177" type="curve" smooth="yes"/>
			<point x="349" y="343"/>
			<point x="491" y="459"/>
			<point x="521" y="627" type="curve" smooth="yes"/>
			<point x="533" y="696"/>
			<point x="469" y="761"/>
			<point x="393" y="761" type="curve" smooth="yes"/>
			<point x="313" y="761"/>
			<point x="177" y="738"/>
		</contour>
	</outline>
	<anchor name="top" x="423" y="730"/>
	<anchor name="bottom" x="312" y="-1"/>
	<anchor name="dot" x="548" y="400"/>
	<anchor name="caronslovak" x="627" y="711"/>
	<anchor name="slash" x="308" y="373"/>
	<guideline x="369" y="210" angle="75.2623251277" identifier="7pLOxGIH2k"/>
	<guideline x="363" y="760" angle="0" identifier="44ItqnPxEr"/>
</glyph>
<glyph name="m" format="2">
	<unicode hex="006D"/>
	<advance width="600"/>
	<outline>
		<contour>
			<point x="511" y="0" type="curve"/>
			<point x="504" y="46"/>
			<point x="504" y="86"/>
			<point x="521" y="150" type="curve" smooth="yes"/>
			<point x="541" y="225"/>
			<point x="575" y="295"/>
			<point x="598" y="380" type="curve" smooth="yes"/>
			<point x="613" y="435"/>
			<point x="589" y="552"/>
			<point x="528" y="552" type="curve" smooth="yes"/>
			<point x="486" y="552"/>
			<point x="429" y="501"/>
			<point x="388" y="443" type="curve"/>
			<point x="375" y="446" type="line"/>
			<point x="338" y="301" type="line"/>
			<point x="373" y="367"/>
			<point x="411" y="402"/>
			<point x="447" y="402" type="curve" smooth="yes"/>
			<point x="458" y="402"/>
			<point x="466" y="398"/>
			<point x="473" y="388" type="curve"/>
			<point x="425" y="298"/>
			<point x="386" y="208"/>
			<point x="372" y="145" type="curve" smooth="yes"/>
			<point x="352" y="57"/>
			<point x="376" y="-9"/>
			<point x="455" y="-9" type="curve" smooth="yes"/>
			<point x="481" y="-9"/>
			<point x="500" y="-6"/>
		</contour>
		<contour>
			<point x="295" y="0" type="curve"/>
			<point x="279" y="88"/>
			<point x="321" y="196"/>
			<point x="380" y="431" type="curve" smooth="yes"/>
			<point x="398" y="500"/>
			<point x="369" y="550"/>
			<point x="339" y="550" type="curve" smooth="yes"/>
			<point x="303" y="550"/>
			<point x="258" y="500"/>
			<point x="224" y="439" type="curve"/>
			<point x="209" y="442" type="line"/>
			<point x="179" y="301" type="line"/>
			<point x="220" y="365"/>
			<point x="252" y="402"/>
			<point x="280" y="402" type="curve" smooth="yes"/>
			<point x="286" y="402"/>
			<point x="292" y="400"/>
			<point x="297" y="395" type="curve"/>
			<point x="249" y="273"/>
			<point x="223" y="203"/>
			<point x="201" y="107" type="curve" smooth="yes"/>
			<point x="184" y="31"/>
			<point x="199" y="-5"/>
			<point x="252" y="-5" type="curve" smooth="yes"/>
			<point x="269" y="-5"/>
			<point x="284" y="-3"/>
		</contour>
		<contour>
			<point x="133" y="-3" type="curve"/>
			<point x="119.9958227248" y="118.0388807926"/>
			<point x="166.9252785408" y="217.7197945278"/>
			<point x="207" y="368" type="curve" smooth="yes"/>
			<point x="239" y="486"/>
			<point x="211" y="546"/>
			<point x="129" y="546" type="curve" smooth="yes"/>
			<point x="113" y="546"/>
			<point x="102" y="544"/>
			<point x="90" y="540" type="curve"/>
			<point x="95" y="512"/>
			<point x="90" y="474"/>
			<point x="83" y="441" type="curve" smooth="yes"/>
			<point x="61.9786655433" y="338.8963754958"/>
			<point x="15.0073589958" y="240.0520035704"/>
			<point x="0" y="134" type="curve" smooth="yes"/>
			<point x="-6.9805750138" y="87.1304249075"/>
			<point x="12.0806451613" y="-6"/>
			<point x="107" y="-6" type="curve" smooth="yes"/>
			<point x="115" y="-6"/>
			<point x="124" y="-5"/>
		</contour>
	</outline>
	<anchor name="bottom" x="246" y="0"/>
	<anchor name="top" x="300" y="551"/>
</glyph>
<glyph name="o" format="2">
	<unicode hex="006F"/>
	<advance width="600"/>
	<outline>
		<contour>
			<point x="363" y="552" type="curve" smooth="yes"/>
			<point x="208.4936305732" y="552"/>
			<point x="93.9907107701" y="446.9651653878"/>
			<point x="50" y="282" type="curve" smooth="yes"/>
			<point x="46" y="267" type="line" smooth="yes"/>
			<point x="4.1380794005" y="110.017797752"/>
			<point x="88.7902439024" y="-12"/>
			<point x="250" y="-12" type="curve" smooth="yes"/>
			<point x="417" y="-12"/>
			<point x="512" y="70"/>
			<point x="547" y="233" type="curve" smooth="yes"/>
			<point x="550" y="247" type="line" smooth="yes"/>
			<point x="588" y="424"/>
			<point x="496" y="552"/>
		</contour>
		<contour>
			<point x="362" y="411" type="curve" smooth="yes"/>
			<point x="392" y="411"/>
			<point x="412" y="409"/>
			<point x="429" y="402" type="curve"/>
			<point x="435" y="364"/>
			<point x="430" y="315"/>
			<point x="415" y="253" type="curve" smooth="yes"/>
			<point x="413" y="245" type="line" smooth="yes"/>
			<point x="391" y="157"/>
			<point x="328" y="114"/>
			<point x="237" y="114" type="curve" smooth="yes"/>
			<point x="217.3846153846" y="114"/>
			<point x="201.7421457181" y="117.1128112483"/>
			<point x="186" y="124" type="curve"/>
			<point x="181" y="151"/>
			<point x="186" y="187"/>
			<point x="199" y="234" type="curve" smooth="yes"/>
			<point x="201" y="241" type="line" smooth="yes"/>
			<point x="235.587513529" y="362.0562973514"/>
			<point x="292.4320987654" y="411"/>
		</contour>
	</outline>
	<anchor name="top" x="370" y="551"/>
	<anchor name="bottom" x="231.7499303373" y="-1"/>
	<anchor name="hook" x="372" y="584"/>
	<anchor name="horn" x="459" y="521"/>
	<anchor name="tildeviet" x="322" y="550"/>
	<anchor name="ogonek" x="454" y="59"/>
</glyph>
<glyph name="p" format="2">
	<unicode hex="0070"/>
	<advance width="600"/>
	<outline>
		<contour>
			<point x="114" y="540" type="curve"/>
			<point x="126" y="513"/>
			<point x="123" y="473"/>
			<point x="116" y="441" type="curve" smooth="yes"/>
			<point x="80" y="262"/>
			<point x="13" y="147"/>
			<point x="-31" y="-42" type="curve" smooth="yes"/>
			<point x="-50" y="-124"/>
			<point x="-7" y="-200"/>
			<point x="76" y="-200" type="curve" smooth="yes"/>
			<point x="85" y="-200"/>
			<point x="95" y="-199"/>
			<point x="103" y="-197" type="curve"/>
			<point x="111" y="21"/>
			<point x="209" y="175"/>
			<point x="258" y="369" type="curve" smooth="yes"/>
			<point x="291.91509207" y="505.6578709878"/>
			<point x="240" y="548"/>
			<point x="171" y="548" type="curve" smooth="yes"/>
			<point x="150" y="548"/>
			<point x="132" y="546"/>
		</contour>
		<contour>
			<point x="467" y="552" type="curve" smooth="yes"/>
			<point x="404" y="552"/>
			<point x="328" y="490"/>
			<point x="273" y="416" type="curve"/>
			<point x="243" y="430" type="line"/>
			<point x="186" y="221" type="line"/>
			<point x="260" y="343"/>
			<point x="332" y="396"/>
			<point x="405" y="396" type="curve" smooth="yes"/>
			<point x="412" y="396"/>
			<point x="418" y="395"/>
			<point x="425" y="394" type="curve"/>
			<point x="426" y="375"/>
			<point x="421" y="351"/>
			<point x="409" y="310" type="curve" smooth="yes"/>
			<point x="404" y="293" type="line" smooth="yes"/>
			<point x="373" y="187"/>
			<point x="333" y="127"/>
			<point x="259" y="127" type="curve" smooth="yes"/>
			<point x="214" y="127"/>
			<point x="181" y="141"/>
			<point x="164" y="167" type="curve"/>
			<point x="115" y="70" type="line"/>
			<point x="165" y="78" type="line"/>
			<point x="188" y="40"/>
			<point x="234" y="-12"/>
			<point x="297" y="-12" type="curve" smooth="yes"/>
			<point x="414" y="-12"/>
			<point x="505" y="84"/>
			<point x="562" y="302" type="curve" smooth="yes"/>
			<point x="569" y="329" type="line" smooth="yes"/>
			<point x="598" y="440"/>
			<point x="546" y="552"/>
		</contour>
	</outline>
	<anchor name="top" x="300" y="551"/>
	<anchor name="bottom" x="300" y="-201"/>
</glyph>
<glyph name="q" format="2">
	<unicode hex="0071"/>
	<advance width="600"/>
	<outline>
		<contour>
			<point x="447" y="540" type="curve"/>
			<point x="447" y="513"/>
			<point x="441" y="473"/>
			<point x="433" y="441" type="curve" smooth="yes"/>
			<point x="388" y="263"/>
			<point x="327" y="164"/>
			<point x="282" y="-35" type="curve" smooth="yes"/>
			<point x="261" y="-127"/>
			<point x="310" y="-200"/>
			<point x="393" y="-200" type="curve" smooth="yes"/>
			<point x="407" y="-200"/>
			<point x="420" y="-198"/>
			<point x="432" y="-195" type="curve"/>
			<point x="425" y="-160"/>
			<point x="427" y="-128"/>
			<point x="433" y="-96" type="curve" smooth="yes"/>
			<point x="464" y="69"/>
			<point x="532" y="208"/>
			<point x="573" y="369" type="curve" smooth="yes"/>
			<point x="607" y="506"/>
			<point x="570" y="548"/>
			<point x="502" y="548" type="curve" smooth="yes"/>
			<point x="481" y="548"/>
			<point x="465" y="546"/>
		</contour>
		<contour>
			<point x="351" y="121" type="line"/>
			<point x="415" y="332" type="line"/>
			<point x="320" y="194"/>
			<point x="257" y="144"/>
			<point x="189" y="144" type="curve" smooth="yes"/>
			<point x="182" y="144"/>
			<point x="176" y="145"/>
			<point x="169" y="146" type="curve"/>
			<point x="170" y="168"/>
			<point x="175" y="195"/>
			<point x="185" y="230" type="curve" smooth="yes"/>
			<point x="190" y="247" type="line" smooth="yes"/>
			<point x="221" y="353"/>
			<point x="261" y="413"/>
			<point x="335" y="413" type="curve" smooth="yes"/>
			<point x="380" y="413"/>
			<point x="421" y="398"/>
			<point x="438" y="372" type="curve"/>
			<point x="460" y="470" type="line"/>
			<point x="431" y="463" type="line"/>
			<point x="408" y="501"/>
			<point x="366" y="552"/>
			<point x="307" y="552" type="curve" smooth="yes"/>
			<point x="180" y="552"/>
			<point x="89" y="456"/>
			<point x="32" y="238" type="curve" smooth="yes"/>
			<point x="25" y="211" type="line" smooth="yes"/>
			<point x="-2" y="100"/>
			<point x="48" y="-12"/>
			<point x="127" y="-12" type="curve" smooth="yes"/>
			<point x="193.9696969697" y="-12"/>
			<point x="275.4772685305" y="52.832681266"/>
			<point x="322" y="134" type="curve"/>
		</contour>
	</outline>
	<anchor name="top" x="365" y="551"/>
	<anchor name="bottom" x="312" y="-201"/>
</glyph>
<glyph name="t" format="2">
	<unicode hex="0074"/>
	<advance width="600"/>
	<outline>
		<contour>
			<point x="85" y="540" type="line"/>
			<point x="82" y="534"/>
			<point x="80" y="529"/>
			<point x="78" y="521" type="curve"/>
			<point x="58" y="435"/>
			<point x="108" y="390"/>
			<point x="222" y="390" type="curve" smooth="yes"/>
			<point x="562" y="390" type="line"/>
			<point x="573" y="410"/>
			<point x="580" y="430"/>
			<point x="586" y="453" type="curve" smooth="yes"/>
			<point x="599" y="502"/>
			<point x="580" y="540"/>
			<point x="524" y="540" type="curve" smooth="yes"/>
		</contour>
		<contour>
			<point x="539" y="210" type="curve"/>
			<point x="533" y="210" type="line"/>
			<point x="465" y="148"/>
			<point x="395" y="130"/>
			<point x="344" y="130" type="curve" smooth="yes"/>
			<point x="321" y="130"/>
			<point x="306" y="133"/>
			<point x="293" y="138" type="curve"/>
			<point x="292.0963775549" y="152.4579591223"/>
			<point x="293.3776793577" y="170.4549158253"/>
			<point x="297" y="194" type="curve" smooth="yes"/>
			<point x="317.0818486855" y="319.5115542845"/>
			<point x="419.9757933749" y="458.8114431311"/>
			<point x="439" y="607" type="curve" smooth="yes"/>
			<point x="448.0202188213" y="677.1572574988"/>
			<point x="416.4025974026" y="710"/>
			<point x="352" y="710" type="curve" smooth="yes"/>
			<point x="329" y="710"/>
			<point x="307" y="708"/>
			<point x="281" y="700" type="curve"/>
			<point x="286" y="671"/>
			<point x="285" y="640"/>
			<point x="280" y="610" type="curve" smooth="yes"/>
			<point x="256.9526897183" y="464.7017395284"/>
			<point x="161.0116718431" y="338.1206090451"/>
			<point x="146" y="183" type="curve" smooth="yes"/>
			<point x="137" y="85"/>
			<point x="223" y="-10"/>
			<point x="346" y="-10" type="curve" smooth="yes"/>
			<point x="411.2826086957" y="-10"/>
			<point x="455.6926902503" y="2.6926902503"/>
			<point x="489" y="36" type="curve" smooth="yes"/>
			<point x="510.5990844983" y="57.5990844983"/>
			<point x="523" y="84"/>
			<point x="532" y="123" type="curve" smooth="yes"/>
			<point x="540" y="160"/>
			<point x="541" y="189"/>
		</contour>
	</outline>
	<anchor name="caronslovak" x="577.0487639151" y="700"/>
	<anchor name="bottom" x="307.7499303373" y="-1"/>
	<anchor name="top" x="343" y="665"/>
</glyph>
<glyph name="v" format="2">
	<unicode hex="0076"/>
	<advance width="600"/>
	<outline>
		<contour>
			<point x="175" y="550" type="curve" smooth="yes"/>
			<point x="147" y="550"/>
			<point x="128" y="546"/>
			<point x="112" y="540" type="curve"/>
			<point x="67" y="302"/>
			<point x="80" y="121"/>
			<point x="138" y="38" type="curve" smooth="yes"/>
			<point x="166" y="-3"/>
			<point x="188" y="-10"/>
			<point x="228" y="-10" type="curve" smooth="yes"/>
			<point x="250" y="-10"/>
			<point x="267" y="-8"/>
			<point x="281" y="-5" type="curve"/>
			<point x="404" y="77"/>
			<point x="525" y="234"/>
			<point x="588" y="447" type="curve" smooth="yes"/>
			<point x="608" y="514"/>
			<point x="577" y="552"/>
			<point x="487" y="552" type="curve" smooth="yes"/>
			<point x="467" y="552"/>
			<point x="450" y="550"/>
			<point x="426" y="540" type="curve"/>
			<point x="440" y="422"/>
			<point x="351" y="260"/>
			<point x="241" y="126" type="curve"/>
			<point x="234" y="128" type="line"/>
			<point x="216" y="202"/>
			<point x="231" y="318"/>
			<point x="267" y="486" type="curve" smooth="yes"/>
			<point x="276" y="530"/>
			<point x="233" y="550"/>
		</contour>
	</outline>
	<anchor name="top" x="300" y="551"/>
	<anchor name="bottom" x="300" y="-1"/>
</glyph>
<glyph name="w" format="2">
	<unicode hex="0077"/>
	<advance width="600"/>
	<outline>
		<contour>
			<point x="288" y="425" type="line"/>
			<point x="251" y="277"/>
			<point x="213" y="200"/>
			<point x="161" y="136" type="curve"/>
			<point x="156" y="137" type="line"/>
			<point x="155" y="196"/>
			<point x="173" y="292"/>
			<point x="225" y="477" type="curve" smooth="yes"/>
			<point x="238" y="522"/>
			<point x="204" y="550"/>
			<point x="144" y="550" type="curve" smooth="yes"/>
			<point x="125" y="550"/>
			<point x="113" y="548"/>
			<point x="98" y="544" type="curve"/>
			<point x="23" y="263"/>
			<point x="8" y="127"/>
			<point x="53" y="19" type="curve" smooth="yes"/>
			<point x="61" y="2"/>
			<point x="70" y="-10"/>
			<point x="97" y="-10" type="curve" smooth="yes"/>
			<point x="113" y="-10"/>
			<point x="128" y="-8"/>
			<point x="139" y="-4" type="curve"/>
			<point x="193" y="49"/>
			<point x="238" y="119"/>
			<point x="274" y="198" type="curve"/>
			<point x="279" y="197" type="line"/>
			<point x="280" y="121"/>
			<point x="289" y="63"/>
			<point x="310" y="9" type="curve" smooth="yes"/>
			<point x="315" y="-4"/>
			<point x="325" y="-10"/>
			<point x="350" y="-10" type="curve" smooth="yes"/>
			<point x="365" y="-10"/>
			<point x="377" y="-8"/>
			<point x="388" y="-4" type="curve"/>
			<point x="493" y="85"/>
			<point x="551" y="210"/>
			<point x="619" y="467" type="curve" smooth="yes"/>
			<point x="636" y="530"/>
			<point x="590" y="550"/>
			<point x="525" y="550" type="curve" smooth="yes"/>
			<point x="514" y="550"/>
			<point x="505" y="550"/>
			<point x="492" y="547" type="curve"/>
			<point x="426" y="277"/>
			<point x="394" y="190"/>
			<point x="360" y="132" type="curve"/>
			<point x="355" y="133" type="line"/>
			<point x="341" y="186"/>
			<point x="346" y="278"/>
			<point x="365" y="370" type="curve" smooth="yes"/>
			<point x="372" y="405"/>
			<point x="345" y="425"/>
			<point x="307" y="425" type="curve" smooth="yes"/>
		</contour>
	</outline>
	<anchor name="top" x="367.7883841675" y="551"/>
	<anchor name="bottom" x="300" y="-1"/>
</glyph>
<glyph name="x" format="2">
	<unicode hex="0078"/>
	<advance width="600"/>
	<outline>
		<contour>
			<point x="91" y="542" type="curve"/>
			<point x="125" y="422"/>
			<point x="169" y="309"/>
			<point x="225" y="203" type="curve"/>
			<point x="259" y="143" type="line"/>
			<point x="282" y="103"/>
			<point x="307" y="65"/>
			<point x="340" y="28" type="curve" smooth="yes"/>
			<point x="365" y="-1"/>
			<point x="390" y="-10"/>
			<point x="429" y="-10" type="curve" smooth="yes"/>
			<point x="469" y="-10"/>
			<point x="506" y="1"/>
			<point x="536" y="18" type="curve"/>
			<point x="470" y="88"/>
			<point x="398" y="167"/>
			<point x="355" y="258" type="curve"/>
			<point x="331" y="318" type="line"/>
			<point x="308" y="373"/>
			<point x="296" y="439"/>
			<point x="283" y="498" type="curve" smooth="yes"/>
			<point x="274" y="538"/>
			<point x="240" y="550"/>
			<point x="169" y="550" type="curve" smooth="yes"/>
			<point x="139" y="550"/>
			<point x="109" y="547"/>
		</contour>
		<contour>
			<point x="226" y="268" type="line"/>
			<point x="165.7257184051" y="209.7019243591"/>
			<point x="94.2308505962" y="166.155689937"/>
			<point x="8" y="108" type="curve" smooth="yes"/>
			<point x="-21" y="88"/>
			<point x="-28" y="74"/>
			<point x="-31" y="59" type="curve" smooth="yes"/>
			<point x="-37.9954432363" y="18.1932477883"/>
			<point x="6.5104895105" y="-10"/>
			<point x="118" y="-10" type="curve" smooth="yes"/>
			<point x="136" y="-10" type="line"/>
			<point x="181" y="33"/>
			<point x="221" y="77"/>
			<point x="257" y="123" type="curve"/>
			<point x="291" y="123" type="line"/>
		</contour>
		<contour>
			<point x="484" y="552" type="curve" smooth="yes"/>
			<point x="459" y="552" type="line"/>
			<point x="423" y="474"/>
			<point x="375" y="401"/>
			<point x="331" y="340" type="curve"/>
			<point x="289" y="340" type="line"/>
			<point x="361" y="202" type="line"/>
			<point x="461" y="290"/>
			<point x="543.7573829081" y="370.6154747978"/>
			<point x="597" y="455" type="curve" smooth="yes"/>
			<point x="606" y="470"/>
			<point x="610" y="480"/>
			<point x="612" y="489" type="curve" smooth="yes"/>
			<point x="621.4664475201" y="534.2285825962"/>
			<point x="563.186440678" y="552"/>
		</contour>
	</outline>
	<anchor name="top" x="300" y="551"/>
	<anchor name="bottom" x="300" y="-1"/>
</glyph>
<glyph name="y" format="2">
	<unicode hex="0079"/>
	<advance width="600"/>
	<outline>
		<contour>
			<point x="502" y="548" type="curve" smooth="yes"/>
			<point x="488" y="548"/>
			<point x="464" y="545"/>
			<point x="433" y="540" type="curve"/>
			<point x="390" y="224"/>
			<point x="277" y="56"/>
			<point x="208" y="2" type="curve" smooth="yes"/>
			<point x="160" y="-36"/>
			<point x="104" y="-41"/>
			<point x="59" y="-41" type="curve" smooth="yes"/>
			<point x="30" y="-41"/>
			<point x="6" y="-35"/>
			<point x="-10" y="-25" type="curve"/>
			<point x="-16" y="-25" type="line"/>
			<point x="-17" y="-29" type="line" smooth="yes"/>
			<point x="-34" y="-98"/>
			<point x="-25" y="-155"/>
			<point x="-5" y="-175" type="curve" smooth="yes"/>
			<point x="14" y="-194"/>
			<point x="38" y="-200"/>
			<point x="65" y="-200" type="curve" smooth="yes"/>
			<point x="126" y="-200"/>
			<point x="200" y="-181"/>
			<point x="269" y="-121" type="curve" smooth="yes"/>
			<point x="390" y="-17"/>
			<point x="513" y="172"/>
			<point x="605" y="466" type="curve" smooth="yes"/>
			<point x="624" y="528"/>
			<point x="581" y="548"/>
		</contour>
		<contour>
			<point x="160" y="547" type="curve" smooth="yes"/>
			<point x="141" y="547"/>
			<point x="123" y="545"/>
			<point x="105" y="540" type="curve"/>
			<point x="54" y="256"/>
			<point x="75" y="167"/>
			<point x="126" y="97" type="curve" smooth="yes"/>
			<point x="160" y="51"/>
			<point x="214" y="26"/>
			<point x="266" y="26" type="curve" smooth="yes"/>
			<point x="273" y="26" type="line"/>
			<point x="319" y="98" type="line"/>
			<point x="281" y="98" type="line"/>
			<point x="220.320135727" y="154.6345399881"/>
			<point x="217.1339491383" y="276.0427676584"/>
			<point x="253" y="466" type="curve" smooth="yes"/>
			<point x="265" y="527"/>
			<point x="241" y="547"/>
		</contour>
	</outline>
	<anchor name="top" x="370" y="551"/>
	<anchor name="dot" x="455" y="-161"/>
	<anchor name="hook" x="378" y="584"/>
	<anchor name="bottom" x="300" y="-201"/>
	<guideline x="-68" y="0" angle="75.96" identifier="PrDHO30jEo"/>
	<guideline x="-18" y="0" angle="75.96" identifier="TJoRDwKyMd"/>
	<guideline x="32" y="0" angle="75.96" identifier="xk3Lj4cau2"/>
	<guideline x="82" y="0" angle="75.96" identifier="dAxTxn54Ry"/>
	<guideline x="132" y="0" angle="75.96" identifier="hW09rZdUTq"/>
	<guideline x="182" y="0" angle="75.96" identifier="LSrrhJiN2K"/>
	<guideline x="232" y="0" angle="75.96" identifier="SIHROyBYmd"/>
	<guideline x="282" y="0" angle="75.96" identifier="phtNuoUeB9"/>
	<guideline x="332" y="0" angle="75.96" identifier="0sinMmwa0x"/>
	<guideline x="382" y="0" angle="75.96" identifier="87sMWRZqPn"/>
	<guideline x="432" y="0" angle="75.96" identifier="imwHF7QXF8"/>
	<guideline x="482" y="0" angle="75.96" identifier="bLCJi3JW8q"/>
	<guideline x="532" y="0" angle="75.96" identifier="MXrxWDLHBT"/>
	<guideline x="-68" y="-250" angle="0" identifier="w6lIz43yUw"/>
	<guideline x="-68" y="-200" angle="0" identifier="mAU3n0osVx"/>
	<guideline x="-68" y="-150" angle="0" identifier="AG7lH9YmgK"/>
	<guideline x="-68" y="-100" angle="0" identifier="xv0zmD6ob6"/>
	<guideline x="-68" y="-50" angle="0" identifier="gch20ExoaO"/>
	<guideline x="-68" y="0" angle="0" identifier="30n7B1b5nw"/>
	<guideline x="-68" y="50" angle="0" identifier="3MobiyyUoO"/>
	<guideline x="-68" y="100" angle="0" identifier="5HAqvQ871M"/>
	<guideline x="-68" y="150" angle="0" identifier="3nr9x2FbK0"/>
	<guideline x="-68" y="200" angle="0" identifier="BRmJyWuZK8"/>
	<guideline x="-68" y="250" angle="0" identifier="FBRrCRarf0"/>
	<guideline x="-68" y="300" angle="0" identifier="SLq3nNzO5V"/>
	<guideline x="-68" y="350" angle="0" identifier="N0N35WA1t9"/>
	<guideline x="-68" y="400" angle="0" identifier="CMzBddYwQo"/>
	<guideline x="-68" y="450" angle="0" identifier="ASebsBhrMx"/>
	<guideline x="-68" y="500" angle="0" identifier="zI7t8nXmPo"/>
	<guideline x="-68" y="550" angle="0" identifier="MeshGaH5wQ"/>
	<guideline x="-68" y="600" angle="0" identifier="RHGLBUvmQp"/>
	<guideline x="-68" y="650" angle="0" identifier="0uWHemvhOH"/>
	<guideline x="-68" y="700" angle="0" identifier="iITD1m6CH0"/>
</glyph>
<glyph name="asciitilde" format="2">
	<unicode hex="007E"/>
	<advance width="600"/>
	<outline>
		<contour>
			<point x="379" y="138" type="curve" smooth="yes"/>
			<point x="245" y="138"/>
			<point x="281" y="250"/>
			<point x="244" y="316" type="curve"/>
			<point x="216" y="307"/>
			<point x="191" y="281"/>
			<point x="179" y="233" type="curve" smooth="yes"/>
			<point x="173" y="210"/>
			<point x="171" y="188"/>
			<point x="174" y="168" type="curve"/>
			<point x="172" y="161" type="line"/>
			<point x="149" y="148"/>
			<point x="129" y="143"/>
			<point x="103" y="143" type="curve" smooth="yes"/>
			<point x="43" y="143"/>
			<point x="0" y="185"/>
			<point x="22" y="273" type="curve" smooth="yes"/>
			<point x="24" y="281" type="line" smooth="yes"/>
			<point x="53" y="398"/>
			<point x="143" y="462"/>
			<point x="237" y="462" type="curve" smooth="yes"/>
			<point x="371" y="462"/>
			<point x="335" y="350"/>
			<point x="372" y="284" type="curve"/>
			<point x="400" y="293"/>
			<point x="425" y="319"/>
			<point x="437" y="367" type="curve" smooth="yes"/>
			<point x="443" y="390"/>
			<point x="445" y="412"/>
			<point x="442" y="432" type="curve"/>
			<point x="444" y="439" type="line"/>
			<point x="467" y="452"/>
			<point x="487" y="457"/>
			<point x="513" y="457" type="curve" smooth="yes"/>
			<point x="576" y="457"/>
			<point x="615" y="411"/>
			<point x="594" y="327" type="curve" smooth="yes"/>
			<point x="592" y="319" type="line" smooth="yes"/>
			<point x="563" y="202"/>
			<point x="473" y="138"/>
		</contour>
	</outline>
</glyph>
<glyph name="twosuperior" format="2">
	<unicode hex="00B2"/>
	<advance width="600"/>
	<outline>
		<contour>
			<point x="455" y="355" type="curve"/>
			<point x="464" y="373"/>
			<point x="473" y="392"/>
			<point x="477" y="414" type="curve" smooth="yes"/>
			<point x="483" y="445"/>
			<point x="466" y="465"/>
			<point x="427" y="465" type="curve" smooth="yes"/>
			<point x="388" y="465" type="line" smooth="yes"/>
			<point x="344" y="465"/>
			<point x="320" y="461"/>
			<point x="289" y="451" type="curve"/>
			<point x="324" y="451" type="line"/>
			<point x="309" y="466" type="line"/>
			<point x="293" y="419" type="line"/>
			<point x="314" y="476"/>
			<point x="333" y="496"/>
			<point x="398" y="520" type="curve" smooth="yes"/>
			<point x="483" y="551"/>
			<point x="524" y="585"/>
			<point x="539" y="648" type="curve" smooth="yes"/>
			<point x="542" y="661" type="line" smooth="yes"/>
			<point x="560" y="739"/>
			<point x="503" y="795"/>
			<point x="406" y="795" type="curve" smooth="yes"/>
			<point x="353" y="795"/>
			<point x="325" y="786"/>
			<point x="302" y="766" type="curve" smooth="yes"/>
			<point x="284" y="750"/>
			<point x="274" y="726"/>
			<point x="270" y="704" type="curve" smooth="yes"/>
			<point x="267" y="686"/>
			<point x="266" y="665"/>
			<point x="268" y="654" type="curve"/>
			<point x="274" y="654" type="line"/>
			<point x="304" y="675"/>
			<point x="344" y="685"/>
			<point x="378" y="685" type="curve" smooth="yes"/>
			<point x="405" y="685"/>
			<point x="422" y="682"/>
			<point x="434" y="676" type="curve"/>
			<point x="434" y="670"/>
			<point x="433" y="663"/>
			<point x="431" y="655" type="curve" smooth="yes"/>
			<point x="426" y="636"/>
			<point x="412" y="622"/>
			<point x="334" y="590" type="curve" smooth="yes"/>
			<point x="245" y="553"/>
			<point x="212" y="510"/>
			<point x="195" y="426" type="curve" smooth="yes"/>
			<point x="194" y="421" type="line" smooth="yes"/>
			<point x="185" y="377"/>
			<point x="196" y="355"/>
			<point x="224" y="355" type="curve" smooth="yes"/>
			<point x="258" y="355"/>
			<point x="437" y="355"/>
		</contour>
	</outline>
</glyph>
<glyph name="threesuperior" format="2">
	<unicode hex="00B3"/>
	<advance width="600"/>
	<outline>
		<contour>
			<point x="528" y="676" type="curve" smooth="yes"/>
			<point x="529" y="683" type="line" smooth="yes"/>
			<point x="537" y="741"/>
			<point x="503" y="795"/>
			<point x="409" y="795" type="curve" smooth="yes"/>
			<point x="363" y="795"/>
			<point x="327" y="784"/>
			<point x="307" y="768" type="curve" smooth="yes"/>
			<point x="286" y="751"/>
			<point x="278" y="735"/>
			<point x="271" y="708" type="curve" smooth="yes"/>
			<point x="267" y="693"/>
			<point x="267" y="671"/>
			<point x="270" y="655" type="curve"/>
			<point x="276" y="655" type="line"/>
			<point x="306" y="676"/>
			<point x="331" y="685"/>
			<point x="368" y="685" type="curve" smooth="yes"/>
			<point x="401" y="685"/>
			<point x="425" y="672"/>
			<point x="427" y="651" type="curve"/>
			<point x="403" y="625"/>
			<point x="367" y="612"/>
			<point x="319" y="607" type="curve"/>
			<point x="315" y="599"/>
			<point x="311" y="586"/>
			<point x="308" y="574" type="curve" smooth="yes"/>
			<point x="301" y="547"/>
			<point x="303" y="526"/>
			<point x="318" y="524" type="curve" smooth="yes"/>
			<point x="363" y="518"/>
			<point x="387" y="510"/>
			<point x="393" y="487" type="curve"/>
			<point x="375" y="463"/>
			<point x="344" y="455"/>
			<point x="310" y="455" type="curve" smooth="yes"/>
			<point x="273" y="455"/>
			<point x="249" y="465"/>
			<point x="228" y="483" type="curve"/>
			<point x="222" y="483" type="line"/>
			<point x="212" y="468"/>
			<point x="204" y="454"/>
			<point x="200" y="439" type="curve" smooth="yes"/>
			<point x="193" y="409"/>
			<point x="196" y="392"/>
			<point x="205" y="377" type="curve" smooth="yes"/>
			<point x="215" y="361"/>
			<point x="243" y="345"/>
			<point x="302" y="345" type="curve" smooth="yes"/>
			<point x="398" y="345"/>
			<point x="468" y="390"/>
			<point x="480" y="459" type="curve" smooth="yes"/>
			<point x="481" y="465" type="line" smooth="yes"/>
			<point x="490" y="521"/>
			<point x="483" y="565"/>
			<point x="407" y="577" type="curve"/>
			<point x="432" y="561" type="line"/>
			<point x="440" y="590" type="line"/>
			<point x="405" y="568" type="line"/>
			<point x="474" y="579"/>
			<point x="519" y="614"/>
		</contour>
	</outline>
</glyph>
<glyph name="mu.math" format="2">
	<unicode hex="00B5"/>
	<advance width="600"/>
	<outline>
		<contour>
			<point x="533" y="548" type="curve" smooth="yes"/>
			<point x="467" y="548"/>
			<point x="446" y="526"/>
			<point x="429" y="459" type="curve" smooth="yes"/>
			<point x="404" y="359"/>
			<point x="379" y="259"/>
			<point x="354" y="159" type="curve" smooth="yes"/>
			<point x="332" y="72"/>
			<point x="369" y="-10"/>
			<point x="438" y="-10" type="curve" smooth="yes"/>
			<point x="441" y="-10" type="line" smooth="yes"/>
			<point x="480" y="-10"/>
			<point x="514" y="21"/>
			<point x="540" y="123" type="curve" smooth="yes"/>
			<point x="541" y="128"/>
			<point x="543" y="134"/>
			<point x="544" y="139" type="curve"/>
			<point x="541" y="139" type="line"/>
			<point x="537" y="139"/>
			<point x="534" y="139"/>
			<point x="530" y="139" type="curve" smooth="yes"/>
			<point x="522" y="139"/>
			<point x="517" y="140"/>
			<point x="507" y="144" type="curve"/>
			<point x="509" y="157"/>
			<point x="512" y="171"/>
			<point x="516" y="186" type="curve" smooth="yes"/>
			<point x="546" y="303"/>
			<point x="575" y="420"/>
			<point x="605" y="537" type="curve"/>
			<point x="586" y="544"/>
			<point x="557" y="548"/>
		</contour>
		<contour>
			<point x="61.4962151964" y="197.5817818107"/>
			<point x="12" y="122"/>
			<point x="-28" y="-78" type="curve" smooth="yes"/>
			<point x="-46" y="-170"/>
			<point x="-5" y="-204"/>
			<point x="47" y="-204" type="curve" smooth="yes"/>
			<point x="78.4328358209" y="-204"/>
			<point x="105" y="-197"/>
			<point x="128" y="-187" type="curve"/>
			<point x="143" y="-120"/>
			<point x="135" y="-70"/>
			<point x="124" y="-2" type="curve"/>
			<point x="132" y="1" type="line"/>
			<point x="148" y="-7"/>
			<point x="166" y="-11"/>
			<point x="185" y="-11" type="curve" smooth="yes"/>
			<point x="239" y="-11"/>
			<point x="293" y="36"/>
			<point x="347" y="154" type="curve"/>
			<point x="375" y="154" type="line"/>
			<point x="432" y="435" type="line"/>
			<point x="334" y="192"/>
			<point x="270" y="156"/>
			<point x="214" y="156" type="curve" smooth="yes"/>
			<point x="203" y="156"/>
			<point x="191" y="159"/>
			<point x="186" y="168" type="curve"/>
			<point x="226" y="255"/>
			<point x="263" y="337"/>
			<point x="277" y="408" type="curve" smooth="yes"/>
			<point x="278" y="413" type="line" smooth="yes"/>
			<point x="296" y="504"/>
			<point x="268" y="547"/>
			<point x="183" y="547" type="curve" smooth="yes"/>
			<point x="157" y="547"/>
			<point x="139" y="545"/>
			<point x="118" y="541" type="curve"/>
			<point x="124" y="478"/>
			<point x="120" y="446"/>
			<point x="105" y="382" type="curve" smooth="yes"/>
		</contour>
	</outline>
</glyph>
<glyph name="onesuperior" format="2">
	<unicode hex="00B9"/>
	<advance width="600"/>
	<outline>
		<contour>
			<point x="220" y="465" type="line"/>
			<point x="213" y="452"/>
			<point x="207" y="442"/>
			<point x="203" y="426" type="curve" smooth="yes"/>
			<point x="191" y="377"/>
			<point x="202" y="349"/>
			<point x="261" y="349" type="curve" smooth="yes"/>
			<point x="460" y="349" type="line"/>
			<point x="466" y="361"/>
			<point x="477" y="383"/>
			<point x="482" y="407" type="curve" smooth="yes"/>
			<point x="490" y="446"/>
			<point x="474" y="465"/>
			<point x="415" y="465" type="curve" smooth="yes"/>
		</contour>
		<contour>
			<point x="414" y="445" type="line"/>
			<point x="415" y="559"/>
			<point x="473" y="658"/>
			<point x="484" y="747" type="curve" smooth="yes"/>
			<point x="489" y="789"/>
			<point x="470" y="805"/>
			<point x="432" y="805" type="curve" smooth="yes"/>
			<point x="409" y="805"/>
			<point x="386" y="801"/>
			<point x="370" y="795" type="curve"/>
			<point x="356" y="778"/>
			<point x="338" y="761"/>
			<point x="319" y="744" type="curve" smooth="yes"/>
			<point x="301" y="729"/>
			<point x="282" y="716"/>
			<point x="260" y="704" type="curve"/>
			<point x="251" y="667" type="line" smooth="yes"/>
			<point x="234" y="601"/>
			<point x="246" y="581"/>
			<point x="266" y="581" type="curve" smooth="yes"/>
			<point x="278" y="581"/>
			<point x="291" y="588"/>
			<point x="305" y="603" type="curve" smooth="yes"/>
			<point x="323" y="623"/>
			<point x="340" y="646"/>
			<point x="352" y="670" type="curve"/>
			<point x="330" y="658" type="line"/>
			<point x="364" y="658" type="line"/>
			<point x="354" y="678" type="line"/>
			<point x="349" y="632"/>
			<point x="315" y="552"/>
			<point x="313" y="517" type="curve" smooth="yes"/>
			<point x="311" y="488"/>
			<point x="315" y="477"/>
			<point x="325" y="469" type="curve"/>
			<point x="314" y="445" type="line"/>
		</contour>
	</outline>
</glyph>
<glyph name="oslash" format="2">
	<unicode hex="00F8"/>
	<advance width="600"/>
	<outline>
		<contour>
			<point x="576" y="592" type="curve"/>
			<point x="560" y="601"/>
			<point x="540" y="605"/>
			<point x="512" y="605" type="curve" smooth="yes"/>
			<point x="466" y="605"/>
			<point x="433" y="588"/>
			<point x="420" y="557" type="curve" smooth="yes"/>
			<point x="411" y="535"/>
			<point x="402" y="514"/>
			<point x="392" y="494" type="curve"/>
			<point x="393" y="481"/>
			<point x="398" y="467"/>
			<point x="402" y="454" type="curve"/>
			<point x="359" y="394"/>
			<point x="313" y="337"/>
			<point x="263" y="280" type="curve" smooth="yes"/>
			<point x="221" y="232"/>
			<point x="201" y="199"/>
			<point x="181" y="145" type="curve"/>
			<point x="225" y="185" type="line"/>
			<point x="127" y="185" type="line"/>
			<point x="90" y="62" type="line"/>
			<point x="66" y="34"/>
			<point x="35" y="8"/>
			<point x="-4" y="-17" type="curve"/>
			<point x="12" y="-36"/>
			<point x="34" y="-45"/>
			<point x="65" y="-45" type="curve" smooth="yes"/>
			<point x="91" y="-45"/>
			<point x="124" y="-33"/>
			<point x="148" y="-14" type="curve" smooth="yes"/>
			<point x="164" y="-1"/>
			<point x="180" y="15"/>
			<point x="195" y="35" type="curve"/>
			<point x="201.6258915645" y="49.3560983897"/>
			<point x="202.0774245453" y="60.2866455842"/>
			<point x="210" y="75" type="curve"/>
			<point x="266" y="132"/>
			<point x="317" y="191"/>
			<point x="370" y="260" type="curve"/>
			<point x="390" y="284"/>
			<point x="409" y="324"/>
			<point x="433" y="394" type="curve"/>
			<point x="399" y="354" type="line"/>
			<point x="489" y="354" type="line"/>
			<point x="513" y="458" type="line"/>
			<point x="533" y="501"/>
			<point x="553" y="544"/>
		</contour>
		<component base="o"/>
	</outline>
	<anchor name="top" x="370" y="551"/>
</glyph>
<glyph name="dcaron" format="2">
	<unicode hex="010F"/>
	<advance width="600"/>
	<outline>
		<contour>
			<point x="25" y="211" type="line" smooth="yes"/>
			<point x="-2" y="100"/>
			<point x="48" y="-12"/>
			<point x="127" y="-12" type="curve" smooth="yes"/>
			<point x="182" y="-12"/>
			<point x="231" y="16"/>
			<point x="286" y="95" type="curve"/>
			<point x="318" y="87" type="line"/>
			<point x="362" y="319" type="line"/>
			<point x="280" y="181"/>
			<point x="225" y="144"/>
			<point x="189" y="144" type="curve" smooth="yes"/>
			<point x="182" y="144"/>
			<point x="176" y="145"/>
			<point x="169" y="146" type="curve"/>
			<point x="168" y="165"/>
			<point x="173" y="189"/>
			<point x="185" y="230" type="curve" smooth="yes"/>
			<point x="190" y="247" type="line" smooth="yes"/>
			<point x="221" y="353"/>
			<point x="266" y="413"/>
			<point x="330" y="413" type="curve" smooth="yes"/>
			<point x="354" y="413"/>
			<point x="373" y="395"/>
			<point x="384" y="372" type="curve"/>
			<point x="422" y="492" type="line"/>
			<point x="389" y="487" type="line"/>
			<point x="372" y="533"/>
			<point x="344" y="552"/>
			<point x="307" y="552" type="curve" smooth="yes"/>
			<point x="180" y="552"/>
			<point x="89" y="456"/>
			<point x="32" y="238" type="curve" smooth="yes"/>
		</contour>
		<contour>
			<point x="453" y="723"/>
			<point x="451" y="683"/>
			<point x="443" y="651" type="curve" smooth="yes"/>
			<point x="396" y="470"/>
			<point x="346" y="352"/>
			<point x="296" y="155" type="curve" smooth="yes"/>
			<point x="276" y="73"/>
			<point x="320" y="-6"/>
			<point x="403" y="-6" type="curve" smooth="yes"/>
			<point x="422" y="-6"/>
			<point x="432" y="-4"/>
			<point x="451" y="0" type="curve"/>
			<point x="440" y="37"/>
			<point x="438" y="71"/>
			<point x="444" y="104" type="curve" smooth="yes"/>
			<point x="476" y="276"/>
			<point x="540" y="410"/>
			<point x="583" y="579" type="curve" smooth="yes"/>
			<point x="617" y="716"/>
			<point x="567" y="758"/>
			<point x="498" y="758" type="curve" smooth="yes"/>
			<point x="477" y="758"/>
			<point x="459" y="756"/>
			<point x="441" y="750" type="curve"/>
		</contour>
		<contour>
			<point x="639" y="532" type="curve" smooth="yes"/>
			<point x="659" y="532"/>
			<point x="667" y="535"/>
			<point x="681" y="546" type="curve" smooth="yes"/>
			<point x="717" y="575"/>
			<point x="747" y="642"/>
			<point x="762" y="700" type="curve" smooth="yes"/>
			<point x="772" y="740"/>
			<point x="762" y="759"/>
			<point x="713" y="759" type="curve" smooth="yes"/>
			<point x="694" y="759"/>
			<point x="679" y="757"/>
			<point x="640" y="750" type="curve"/>
			<point x="631" y="659"/>
			<point x="620" y="613"/>
			<point x="601" y="540" type="curve"/>
			<point x="609" y="535"/>
			<point x="624" y="532"/>
		</contour>
	</outline>
</glyph>
<glyph name="IJ" format="2">
	<unicode hex="0132"/>
	<advance width="600"/>
	<outline>
		<contour>
			<point x="169" y="703" type="curve"/>
			<point x="169" y="661"/>
			<point x="166.3726726551" y="631.8167791934"/>
			<point x="158" y="591" type="curve" smooth="yes"/>
			<point x="143.0324246003" y="513.1686079213"/>
			<point x="95" y="432"/>
			<point x="83" y="363" type="curve" smooth="yes"/>
			<point x="67" y="272"/>
			<point x="99" y="221"/>
			<point x="171" y="221" type="curve" smooth="yes"/>
			<point x="192" y="221"/>
			<point x="206" y="223"/>
			<point x="224" y="229" type="curve"/>
			<point x="227" y="358"/>
			<point x="297" y="480"/>
			<point x="315" y="569" type="curve" smooth="yes"/>
			<point x="333" y="656"/>
			<point x="301" y="710"/>
			<point x="231" y="710" type="curve" smooth="yes"/>
			<point x="208" y="710"/>
			<point x="190.9745097095" y="707.5780228561"/>
		</contour>
		<contour>
			<point x="266" y="130" type="curve" smooth="yes"/>
			<point x="191" y="130"/>
			<point x="131" y="142"/>
			<point x="78" y="185" type="curve"/>
			<point x="72" y="185" type="line"/>
			<point x="58" y="161"/>
			<point x="53" y="148"/>
			<point x="45" y="116" type="curve"/>
			<point x="33" y="70"/>
			<point x="37" y="43"/>
			<point x="54" y="21" type="curve" smooth="yes"/>
			<point x="77.0292909302" y="-9.3567925898"/>
			<point x="121" y="-20"/>
			<point x="206" y="-20" type="curve" smooth="yes"/>
			<point x="360" y="-20"/>
			<point x="468" y="59"/>
			<point x="523" y="210" type="curve" smooth="yes"/>
			<point x="566" y="327"/>
			<point x="557" y="453"/>
			<point x="624" y="614" type="curve" smooth="yes"/>
			<point x="650" y="677"/>
			<point x="606" y="710"/>
			<point x="503" y="710" type="curve" smooth="yes"/>
			<point x="465" y="710"/>
			<point x="422" y="706"/>
			<point x="387" y="700" type="curve"/>
			<point x="379" y="686"/>
			<point x="372" y="663"/>
			<point x="365" y="637" type="curve" smooth="yes"/>
			<point x="348" y="568"/>
			<point x="353" y="540"/>
			<point x="382" y="540" type="curve"/>
			<point x="415" y="540"/>
			<point x="457" y="560"/>
			<point x="482" y="588" type="curve"/>
			<point x="433" y="567" type="line"/>
			<point x="468" y="548" type="line"/>
			<point x="469" y="603" type="line"/>
			<point x="409" y="444"/>
			<point x="407.2105500104" y="328.6688059155"/>
			<point x="373" y="220" type="curve" smooth="yes"/>
			<point x="364" y="190"/>
			<point x="352.2489596517" y="167.2930901175"/>
			<point x="342" y="144" type="curve"/>
			<point x="318" y="135"/>
			<point x="295" y="130"/>
		</contour>
	</outline>
</glyph>
<glyph name="DZ" format="2">
	<unicode hex="01F1"/>
	<advance width="600"/>
	<outline>
		<contour>
			<point x="253" y="720" type="curve" smooth="yes"/>
			<point x="201" y="720"/>
			<point x="161" y="714"/>
			<point x="112" y="700" type="curve"/>
			<point x="106" y="683"/>
			<point x="99" y="666"/>
			<point x="93" y="643" type="curve" smooth="yes"/>
			<point x="77" y="579"/>
			<point x="77" y="550"/>
			<point x="109" y="550" type="curve" smooth="yes"/>
			<point x="150" y="550"/>
			<point x="183" y="570"/>
			<point x="232" y="570" type="curve" smooth="yes"/>
			<point x="254" y="570"/>
			<point x="266" y="569"/>
			<point x="276" y="567" type="curve"/>
			<point x="275" y="533"/>
			<point x="261" y="470"/>
			<point x="244" y="403" type="curve" smooth="yes"/>
			<point x="241" y="393" type="line" smooth="yes"/>
			<point x="186" y="174"/>
			<point x="160" y="145"/>
			<point x="127" y="145" type="curve" smooth="yes"/>
			<point x="122" y="145"/>
			<point x="115" y="146"/>
			<point x="113" y="147" type="curve"/>
			<point x="127" y="257"/>
			<point x="187" y="365"/>
			<point x="205" y="475" type="curve" smooth="yes"/>
			<point x="213" y="524"/>
			<point x="210" y="542"/>
			<point x="194" y="561" type="curve"/>
			<point x="206" y="589" type="line"/>
			<point x="136" y="699" type="line"/>
			<point x="123" y="505"/>
			<point x="7" y="266"/>
			<point x="-12" y="135" type="curve" smooth="yes"/>
			<point x="-19" y="86"/>
			<point x="-17" y="63"/>
			<point x="-4" y="40" type="curve" smooth="yes"/>
			<point x="12" y="12"/>
			<point x="42" y="-10"/>
			<point x="85" y="-10" type="curve" smooth="yes"/>
			<point x="188" y="-10"/>
			<point x="270" y="51"/>
			<point x="347" y="360" type="curve" smooth="yes"/>
			<point x="364" y="428" type="line" smooth="yes"/>
			<point x="418" y="644"/>
			<point x="324" y="720"/>
		</contour>
		<contour>
			<point x="528" y="0" type="line"/>
			<point x="531" y="8"/>
			<point x="538" y="30"/>
			<point x="543" y="52" type="curve" smooth="yes"/>
			<point x="561" y="123"/>
			<point x="540" y="150"/>
			<point x="506" y="150" type="curve" smooth="yes"/>
			<point x="496" y="150" type="line" smooth="yes"/>
			<point x="464" y="150"/>
			<point x="434" y="149"/>
			<point x="384" y="140" type="curve"/>
			<point x="397" y="119" type="line"/>
			<point x="410" y="178" type="line"/>
			<point x="383" y="129" type="line"/>
			<point x="432" y="175"/>
			<point x="492" y="241"/>
			<point x="533" y="297" type="curve" smooth="yes"/>
			<point x="611" y="404"/>
			<point x="652" y="476"/>
			<point x="667" y="545" type="curve" smooth="yes"/>
			<point x="669" y="554" type="line" smooth="yes"/>
			<point x="697" y="664"/>
			<point x="682" y="700"/>
			<point x="634" y="700" type="curve" smooth="yes"/>
			<point x="472" y="700" type="line"/>
			<point x="449" y="645"/>
			<point x="438" y="555"/>
			<point x="472" y="555" type="curve" smooth="yes"/>
			<point x="495" y="555" type="line" smooth="yes"/>
			<point x="525" y="555"/>
			<point x="548" y="558"/>
			<point x="574" y="568" type="curve"/>
			<point x="565" y="592" type="line"/>
			<point x="545" y="512" type="line"/>
			<point x="573" y="593" type="line"/>
			<point x="547" y="533"/>
			<point x="517" y="473"/>
			<point x="488" y="423" type="curve" smooth="yes"/>
			<point x="434" y="328"/>
			<point x="371" y="240"/>
			<point x="290" y="142" type="curve"/>
			<point x="285" y="125" type="line" smooth="yes"/>
			<point x="262" y="47"/>
			<point x="281" y="0"/>
			<point x="328" y="0" type="curve" smooth="yes"/>
		</contour>
		<contour>
			<point x="502" y="500" type="curve"/>
			<point x="527" y="591"/>
			<point x="544" y="648"/>
			<point x="559" y="711" type="curve" smooth="yes"/>
			<point x="567" y="740"/>
			<point x="549" y="760"/>
			<point x="473" y="760" type="curve"/>
			<point x="438" y="696"/>
			<point x="417" y="630"/>
			<point x="407" y="576" type="curve" smooth="yes"/>
			<point x="395" y="510"/>
			<point x="405" y="494"/>
			<point x="439" y="494" type="curve" smooth="yes"/>
			<point x="465" y="494"/>
			<point x="489" y="496"/>
		</contour>
	</outline>
</glyph>
<glyph name="ringhalfrightmod" format="2">
	<unicode hex="02BE"/>
	<advance width="600"/>
	<outline>
		<contour>
			<point x="322" y="592" type="curve" smooth="yes"/>
			<point x="394" y="592"/>
			<point x="458" y="614"/>
			<point x="489" y="721" type="curve" smooth="yes"/>
			<point x="491" y="728" type="line" smooth="yes"/>
			<point x="513" y="806"/>
			<point x="466" y="868"/>
			<point x="388" y="868" type="curve"/>
			<point x="372" y="847"/>
			<point x="361" y="826"/>
			<point x="356" y="806" type="curve" smooth="yes"/>
			<point x="353" y="793"/>
			<point x="356" y="785"/>
			<point x="367" y="785" type="curve" smooth="yes"/>
			<point x="383" y="785"/>
			<point x="394" y="784"/>
			<point x="401" y="779" type="curve"/>
			<point x="404" y="770"/>
			<point x="404" y="756"/>
			<point x="401" y="743" type="curve" smooth="yes"/>
			<point x="399" y="735" type="line" smooth="yes"/>
			<point x="392" y="707"/>
			<point x="371" y="693"/>
			<point x="340" y="690" type="curve"/>
			<point x="325" y="665"/>
			<point x="313" y="639"/>
			<point x="309" y="621" type="curve" smooth="yes"/>
			<point x="303" y="599"/>
			<point x="307" y="592"/>
		</contour>
	</outline>
</glyph>
<glyph name="verticallinelowmod" format="2">
	<unicode hex="02CC"/>
	<outline>
		<contour>
			<point x="-46" y="-244" type="curve"/>
			<point x="-21" y="-157" type="line" smooth="yes"/>
			<point x="1" y="-80"/>
			<point x="-24" y="-46"/>
			<point x="-87" y="-46" type="curve" smooth="yes"/>
			<point x="-118" y="-46"/>
			<point x="-144" y="-48"/>
			<point x="-171" y="-50" type="curve"/>
			<point x="-169" y="-70"/>
			<point x="-166" y="-92"/>
			<point x="-179" y="-135" type="curve" smooth="yes"/>
			<point x="-190" y="-172" type="line" smooth="yes"/>
			<point x="-209" y="-235"/>
			<point x="-196" y="-250"/>
			<point x="-126" y="-250" type="curve" smooth="yes"/>
			<point x="-104" y="-250"/>
			<point x="-72" y="-248"/>
		</contour>
	</outline>
	<anchor name="_bottom" x="-68" y="0"/>
</glyph>
<glyph name="macroncomb" format="2">
	<unicode hex="0304"/>
	<outline>
		<contour>
			<point x="-85" y="730" type="line"/>
			<point x="-90" y="722"/>
			<point x="-95" y="711"/>
			<point x="-99" y="696" type="curve" smooth="yes"/>
			<point x="-114" y="639"/>
			<point x="-88" y="610"/>
			<point x="2" y="610" type="curve" smooth="yes"/>
			<point x="276" y="610" type="line"/>
			<point x="287" y="625"/>
			<point x="297" y="641"/>
			<point x="303" y="663" type="curve" smooth="yes"/>
			<point x="314" y="704"/>
			<point x="295" y="730"/>
			<point x="247" y="730" type="curve" smooth="yes"/>
		</contour>
	</outline>
	<anchor name="_top" x="69" y="549"/>
	<anchor name="top" x="112" y="721"/>
</glyph>
<glyph name="ogonekcomb" format="2">
	<unicode hex="0328"/>
	<outline>
		<contour>
			<point x="-99" y="13" type="curve"/>
			<point x="-174" y="-3"/>
			<point x="-252" y="-54"/>
			<point x="-266" y="-129" type="curve" smooth="yes"/>
			<point x="-280" y="-206"/>
			<point x="-241" y="-250"/>
			<point x="-162" y="-250" type="curve" smooth="yes"/>
			<point x="-103" y="-250"/>
			<point x="-64" y="-223"/>
			<point x="-51" y="-164" type="curve" smooth="yes"/>
			<point x="-45" y="-137"/>
			<point x="-47" y="-113"/>
			<point x="-56" y="-93" type="curve"/>
			<point x="-62" y="-93" type="line"/>
			<point x="-75" y="-103"/>
			<point x="-88" y="-106"/>
			<point x="-103" y="-106" type="curve" smooth="yes"/>
			<point x="-129" y="-106"/>
			<point x="-143" y="-96"/>
			<point x="-138" y="-72" type="curve" smooth="yes"/>
			<point x="-134" y="-50"/>
			<point x="-114" y="-33"/>
			<point x="-64" y="-15" type="curve" smooth="yes"/>
			<point x="-46" y="-9"/>
			<point x="-33" y="-4"/>
			<point x="-25" y="0" type="curve"/>
			<point x="-57" y="13"/>
			<point x="-85" y="16"/>
		</contour>
	</outline>
	<anchor name="_ogonek" x="-22" y="0"/>
</glyph>
<glyph name="Gamma" format="2">
	<unicode hex="0393"/>
	<advance width="600"/>
	<outline>
		<contour>
			<point x="190" y="0" type="curve"/>
			<point x="185" y="31"/>
			<point x="186" y="65"/>
			<point x="191" y="96" type="curve" smooth="yes"/>
			<point x="212" y="218"/>
			<point x="280" y="336"/>
			<point x="294" y="455" type="curve" smooth="yes"/>
			<point x="299" y="495"/>
			<point x="290" y="526"/>
			<point x="267" y="550" type="curve"/>
			<point x="285" y="584" type="line"/>
			<point x="169" y="630" type="line"/>
			<point x="148" y="413"/>
			<point x="57" y="292"/>
			<point x="30" y="115" type="curve" smooth="yes"/>
			<point x="19" y="45"/>
			<point x="45" y="-8"/>
			<point x="131" y="-8" type="curve"/>
			<point x="151" y="-8"/>
			<point x="172" y="-6"/>
		</contour>
		<contour>
			<point x="621" y="555" type="line"/>
			<point x="632" y="570"/>
			<point x="642" y="590"/>
			<point x="647" y="613" type="curve" smooth="yes"/>
			<point x="659" y="661"/>
			<point x="641" y="700"/>
			<point x="586" y="700" type="curve" smooth="yes"/>
			<point x="151" y="700" type="line"/>
			<point x="112" y="623"/>
			<point x="142" y="555"/>
			<point x="231" y="555" type="curve"/>
		</contour>
	</outline>
</glyph>
<glyph name="Pi" format="2">
	<unicode hex="03A0"/>
	<advance width="600"/>
	<outline>
		<contour>
			<point x="179" y="0" type="curve"/>
			<point x="174" y="31"/>
			<point x="175" y="65"/>
			<point x="180" y="96" type="curve" smooth="yes"/>
			<point x="201" y="218"/>
			<point x="269" y="336"/>
			<point x="283" y="455" type="curve" smooth="yes"/>
			<point x="288" y="495"/>
			<point x="279" y="526"/>
			<point x="256" y="550" type="curve"/>
			<point x="274" y="584" type="line"/>
			<point x="158" y="630" type="line"/>
			<point x="137" y="413"/>
			<point x="46" y="292"/>
			<point x="19" y="115" type="curve" smooth="yes"/>
			<point x="8" y="45"/>
			<point x="34" y="-8"/>
			<point x="120" y="-8" type="curve" smooth="yes"/>
			<point x="140" y="-8"/>
			<point x="161" y="-6"/>
		</contour>
		<contour>
			<point x="484" y="0" type="curve"/>
			<point x="475" y="35"/>
			<point x="476" y="68"/>
			<point x="484" y="111" type="curve" smooth="yes"/>
			<point x="516" y="285"/>
			<point x="587" y="420"/>
			<point x="608" y="557" type="curve" smooth="yes"/>
			<point x="618" y="618"/>
			<point x="583" y="700"/>
			<point x="492" y="700" type="curve" smooth="yes"/>
			<point x="140" y="700" type="line"/>
			<point x="101" y="623"/>
			<point x="131" y="555"/>
			<point x="220" y="555" type="curve" smooth="yes"/>
			<point x="453" y="555" type="line"/>
			<point x="421" y="403"/>
			<point x="345" y="256"/>
			<point x="328" y="113" type="curve" smooth="yes"/>
			<point x="318" y="28"/>
			<point x="363" y="-8"/>
			<point x="415" y="-8" type="curve" smooth="yes"/>
			<point x="441" y="-8"/>
			<point x="467" y="-5"/>
		</contour>
	</outline>
</glyph>
<glyph name="Phi" format="2">
	<unicode hex="03A6"/>
	<advance width="600"/>
	<outline>
		<contour>
			<point x="322" y="722" type="curve"/>
			<point x="321" y="642"/>
			<point x="305" y="592"/>
			<point x="286" y="516" type="curve"/>
			<point x="307" y="509" type="line"/>
			<point x="292" y="394"/>
			<point x="242" y="314"/>
			<point x="221" y="168" type="curve"/>
			<point x="194" y="140" type="line"/>
			<point x="186.4606577033" y="107.3295167142"/>
			<point x="173.3960738146" y="75.7446878768"/>
			<point x="165" y="43" type="curve" smooth="yes"/>
			<point x="152.8001996117" y="-8.5102683063"/>
			<point x="183.0579710145" y="-34"/>
			<point x="254" y="-34" type="curve" smooth="yes"/>
			<point x="281.9292929293" y="-34"/>
			<point x="301.7355839972" y="-30.0082584619"/>
			<point x="333" y="-26" type="curve"/>
			<point x="331" y="47"/>
			<point x="343" y="99"/>
			<point x="361" y="172" type="curve"/>
			<point x="336" y="190" type="line"/>
			<point x="351" y="304"/>
			<point x="398" y="380"/>
			<point x="422" y="534" type="curve"/>
			<point x="460" y="563" type="line"/>
			<point x="468.1737321937" y="592.9703513768"/>
			<point x="477.8262678063" y="624.0296486232"/>
			<point x="486" y="654" type="curve" smooth="yes"/>
			<point x="497.3373326141" y="701.6167969794"/>
			<point x="474" y="735"/>
			<point x="408" y="735" type="curve" smooth="yes"/>
			<point x="379" y="735"/>
			<point x="356" y="731"/>
		</contour>
		<contour>
			<point x="423" y="669" type="curve" smooth="yes"/>
			<point x="383" y="669" type="line" smooth="yes"/>
			<point x="254.6444444444" y="669"/>
			<point x="129" y="570"/>
			<point x="79" y="383" type="curve" smooth="yes"/>
			<point x="75" y="368" type="line" smooth="yes"/>
			<point x="15" y="144"/>
			<point x="88.96875" y="30"/>
			<point x="224" y="30" type="curve"/>
			<point x="264" y="30" type="line"/>
			<point x="387.9545454545" y="30"/>
			<point x="514" y="135"/>
			<point x="567" y="332" type="curve" smooth="yes"/>
			<point x="571" y="347" type="line" smooth="yes"/>
			<point x="628" y="562"/>
			<point x="556.4901960784" y="669"/>
		</contour>
		<contour>
			<point x="207" y="353" type="curve" smooth="yes"/>
			<point x="211" y="366" type="line" smooth="yes"/>
			<point x="243" y="470"/>
			<point x="297.3137254902" y="528"/>
			<point x="353" y="528" type="curve"/>
			<point x="393" y="528" type="line" smooth="yes"/>
			<point x="400" y="528"/>
			<point x="417" y="528"/>
			<point x="443" y="517" type="curve"/>
			<point x="451.5211098937" y="486.5674646654"/>
			<point x="458" y="439"/>
			<point x="440" y="362" type="curve" smooth="yes"/>
			<point x="437" y="349" type="line" smooth="yes"/>
			<point x="410" y="233"/>
			<point x="346.0322580645" y="171"/>
			<point x="287" y="171" type="curve" smooth="yes"/>
			<point x="247" y="171" type="line" smooth="yes"/>
			<point x="242" y="171"/>
			<point x="224" y="170"/>
			<point x="198" y="179" type="curve"/>
			<point x="182" y="226"/>
			<point x="183" y="274"/>
		</contour>
	</outline>
</glyph>
<glyph name="alpha" format="2">
	<unicode hex="03B1"/>
	<advance width="600"/>
	<outline>
		<contour>
			<point x="314" y="552" type="curve" smooth="yes"/>
			<point x="212" y="552"/>
			<point x="96" y="463"/>
			<point x="37" y="246" type="curve" smooth="yes"/>
			<point x="31" y="224" type="line" smooth="yes"/>
			<point x="-4" y="94"/>
			<point x="46" y="-12"/>
			<point x="136" y="-12" type="curve" smooth="yes"/>
			<point x="211" y="-12"/>
			<point x="280" y="35"/>
			<point x="355" y="155" type="curve"/>
			<point x="361" y="155" type="line"/>
			<point x="357" y="121"/>
			<point x="353" y="95"/>
			<point x="345" y="44" type="curve" smooth="yes"/>
			<point x="341" y="13"/>
			<point x="345" y="-12"/>
			<point x="415" y="-12" type="curve" smooth="yes"/>
			<point x="459" y="-12"/>
			<point x="485" y="-6"/>
			<point x="506" y="0" type="curve"/>
			<point x="518" y="107"/>
			<point x="516" y="186"/>
			<point x="511" y="282" type="curve"/>
			<point x="553.434188447" y="349.6926339512"/>
			<point x="585" y="392"/>
			<point x="610" y="450" type="curve" smooth="yes"/>
			<point x="639" y="519"/>
			<point x="612.1967213115" y="548"/>
			<point x="543" y="548" type="curve" smooth="yes"/>
			<point x="522" y="548"/>
			<point x="509" y="545"/>
			<point x="487" y="540" type="curve"/>
			<point x="474" y="507"/>
			<point x="459" y="466"/>
			<point x="444" y="425" type="curve"/>
			<point x="438" y="425" type="line"/>
			<point x="428" y="510"/>
			<point x="384" y="552"/>
		</contour>
		<contour>
			<point x="320" y="403" type="curve" smooth="yes"/>
			<point x="366" y="403"/>
			<point x="387" y="369"/>
			<point x="384" y="300" type="curve"/>
			<point x="322" y="185"/>
			<point x="252" y="149"/>
			<point x="184" y="149" type="curve" smooth="yes"/>
			<point x="180" y="149"/>
			<point x="176" y="149"/>
			<point x="171" y="150" type="curve"/>
			<point x="172.0124690199" y="170.2493803975"/>
			<point x="173.5769705391" y="192.9232351304"/>
			<point x="185" y="231" type="curve" smooth="yes"/>
			<point x="188" y="241" type="line" smooth="yes"/>
			<point x="219" y="344"/>
			<point x="262" y="403"/>
		</contour>
	</outline>
</glyph>
<glyph name="gamma" format="2">
	<unicode hex="03B3"/>
	<advance width="600"/>
	<outline>
		<contour>
			<point x="297" y="1" type="curve"/>
			<point x="456" y="120"/>
			<point x="565" y="311"/>
			<point x="595" y="431" type="curve" smooth="yes"/>
			<point x="597" y="439" type="line" smooth="yes"/>
			<point x="616.7733091192" y="518.0932364768"/>
			<point x="592.4444444444" y="550"/>
			<point x="515" y="550" type="curve" smooth="yes"/>
			<point x="492.0952380952" y="550"/>
			<point x="463.9697818869" y="545.300718897"/>
			<point x="441" y="540" type="curve"/>
			<point x="439" y="533" type="line"/>
			<point x="442" y="507"/>
			<point x="442" y="475"/>
			<point x="432" y="436" type="curve" smooth="yes"/>
			<point x="406" y="333"/>
			<point x="351" y="231"/>
			<point x="253" y="112" type="curve"/>
			<point x="245" y="112" type="line"/>
			<point x="224" y="186"/>
			<point x="229" y="295"/>
			<point x="258" y="477" type="curve"/>
			<point x="266" y="527"/>
			<point x="233" y="549"/>
			<point x="166" y="549" type="curve" smooth="yes"/>
			<point x="149" y="549"/>
			<point x="122" y="546"/>
			<point x="103" y="540" type="curve"/>
			<point x="66" y="254"/>
			<point x="73" y="114"/>
			<point x="161" y="1" type="curve"/>
			<point x="141" y="-28"/>
			<point x="124" y="-57"/>
			<point x="116" y="-92" type="curve" smooth="yes"/>
			<point x="98" y="-171"/>
			<point x="128.48" y="-199"/>
			<point x="188" y="-199" type="curve" smooth="yes"/>
			<point x="214" y="-199"/>
			<point x="238" y="-194"/>
			<point x="259" y="-188" type="curve"/>
			<point x="270.2603490721" y="-164.5409394331"/>
			<point x="281" y="-137"/>
			<point x="288" y="-111" type="curve" smooth="yes"/>
			<point x="299" y="-71"/>
			<point x="301" y="-34"/>
		</contour>
	</outline>
	<guideline x="0" y="-88" angle="0" identifier="6ILLXmen8u"/>
</glyph>
<glyph name="delta" format="2">
	<unicode hex="03B4"/>
	<advance width="600"/>
	<outline>
		<contour>
			<point x="469" y="765" type="curve" smooth="yes"/>
			<point x="314" y="765"/>
			<point x="176" y="704"/>
			<point x="140" y="558" type="curve" smooth="yes"/>
			<point x="118" y="470"/>
			<point x="157" y="398"/>
			<point x="238" y="372" type="curve" smooth="yes"/>
			<point x="338" y="340" type="line" smooth="yes"/>
			<point x="390" y="323"/>
			<point x="424" y="295"/>
			<point x="409" y="203" type="curve"/>
			<point x="406" y="192" type="line"/>
			<point x="374" y="150"/>
			<point x="327" y="128"/>
			<point x="258" y="128" type="curve" smooth="yes"/>
			<point x="188" y="128"/>
			<point x="166" y="165"/>
			<point x="181" y="219" type="curve" smooth="yes"/>
			<point x="183" y="226" type="line" smooth="yes"/>
			<point x="203" y="295"/>
			<point x="231" y="320"/>
			<point x="328" y="359" type="curve"/>
			<point x="226" y="393" type="line"/>
			<point x="219" y="364" type="line"/>
			<point x="121.5243476024" y="344.1070097148"/>
			<point x="54.2412031422" y="300.3442109978"/>
			<point x="31" y="219" type="curve" smooth="yes"/>
			<point x="27" y="205" type="line" smooth="yes"/>
			<point x="-8" y="81"/>
			<point x="85" y="-12"/>
			<point x="234" y="-12" type="curve" smooth="yes"/>
			<point x="374" y="-12"/>
			<point x="496" y="49"/>
			<point x="528" y="176" type="curve" smooth="yes"/>
			<point x="532" y="192" type="line" smooth="yes"/>
			<point x="561" y="310"/>
			<point x="533" y="408"/>
			<point x="416" y="443" type="curve" smooth="yes"/>
			<point x="339" y="466" type="line" smooth="yes"/>
			<point x="294.4465017174" y="479.3081877987"/>
			<point x="272" y="505"/>
			<point x="280" y="542" type="curve" smooth="yes"/>
			<point x="291" y="587"/>
			<point x="347.6898734177" y="615"/>
			<point x="435" y="615" type="curve" smooth="yes"/>
			<point x="504" y="615"/>
			<point x="541" y="604"/>
			<point x="577" y="583" type="curve"/>
			<point x="583" y="583" type="line"/>
			<point x="589" y="598"/>
			<point x="593" y="611"/>
			<point x="596" y="624" type="curve" smooth="yes"/>
			<point x="610" y="680"/>
			<point x="608" y="717"/>
			<point x="591" y="734" type="curve" smooth="yes"/>
			<point x="572" y="753"/>
			<point x="536" y="765"/>
		</contour>
	</outline>
</glyph>
<glyph name="theta" format="2">
	<unicode hex="03B8"/>
	<advance width="600"/>
	<outline>
		<contour>
			<point x="127" y="425" type="line"/>
			<point x="125" y="419"/>
			<point x="124" y="413"/>
			<point x="122" y="406" type="curve" smooth="yes"/>
			<point x="94" y="296"/>
			<point x="197" y="275"/>
			<point x="287" y="275" type="curve" smooth="yes"/>
			<point x="494" y="275" type="line"/>
			<point x="503" y="296"/>
			<point x="512" y="319"/>
			<point x="517" y="338" type="curve" smooth="yes"/>
			<point x="531" y="395"/>
			<point x="475" y="425"/>
			<point x="324" y="425" type="curve" smooth="yes"/>
		</contour>
		<contour>
			<point x="419" y="760" type="curve" smooth="yes"/>
			<point x="270" y="760"/>
			<point x="136" y="615"/>
			<point x="79" y="385" type="curve" smooth="yes"/>
			<point x="69" y="345" type="line" smooth="yes"/>
			<point x="16" y="133"/>
			<point x="91" y="-10"/>
			<point x="238" y="-10" type="curve"/>
			<point x="386" y="-10"/>
			<point x="498" y="87"/>
			<point x="551" y="289" type="curve" smooth="yes"/>
			<point x="562" y="331" type="line" smooth="yes"/>
			<point x="627" y="577"/>
			<point x="566" y="760"/>
		</contour>
		<contour>
			<point x="404" y="616" type="curve" smooth="yes"/>
			<point x="413" y="616"/>
			<point x="423" y="616"/>
			<point x="431" y="615" type="curve"/>
			<point x="451" y="571"/>
			<point x="447" y="470"/>
			<point x="422" y="369" type="curve" smooth="yes"/>
			<point x="411" y="324" type="line" smooth="yes"/>
			<point x="383" y="210"/>
			<point x="333" y="134"/>
			<point x="251" y="134" type="curve" smooth="yes"/>
			<point x="238" y="134"/>
			<point x="225" y="135"/>
			<point x="214" y="137" type="curve"/>
			<point x="193" y="173"/>
			<point x="191" y="229"/>
			<point x="210" y="306" type="curve" smooth="yes"/>
			<point x="222" y="353" type="line" smooth="yes"/>
			<point x="259" y="504"/>
			<point x="322" y="616"/>
		</contour>
	</outline>
</glyph>
<glyph name="nu" format="2">
	<unicode hex="03BD"/>
	<advance width="600"/>
	<outline>
		<contour>
			<point x="167" y="549" type="curve" smooth="yes"/>
			<point x="150" y="549"/>
			<point x="122" y="546"/>
			<point x="104" y="540" type="curve"/>
			<point x="71.7194557747" y="294.8696172894"/>
			<point x="75.5318571227" y="150.7844479764"/>
			<point x="142" y="37" type="curve" smooth="yes"/>
			<point x="164" y="-1"/>
			<point x="185" y="-10"/>
			<point x="228" y="-10" type="curve" smooth="yes"/>
			<point x="254" y="-10"/>
			<point x="281" y="-6"/>
			<point x="301" y="0" type="curve"/>
			<point x="467.7879048071" y="127.7731902323"/>
			<point x="565.0686448041" y="311.2745792162"/>
			<point x="595" y="431" type="curve"/>
			<point x="597" y="439" type="line"/>
			<point x="617.1633997473" y="518.6454290019"/>
			<point x="592.5" y="551"/>
			<point x="516" y="551" type="curve" smooth="yes"/>
			<point x="492.8192771084" y="551"/>
			<point x="464.449707017" y="545.3879296841"/>
			<point x="442" y="540" type="curve"/>
			<point x="440" y="533" type="line"/>
			<point x="443" y="507"/>
			<point x="442" y="475"/>
			<point x="433" y="436" type="curve" smooth="yes"/>
			<point x="407" y="333"/>
			<point x="351" y="231"/>
			<point x="253" y="112" type="curve"/>
			<point x="245" y="112" type="line"/>
			<point x="224" y="186"/>
			<point x="228" y="285"/>
			<point x="258" y="467" type="curve"/>
			<point x="265" y="517"/>
			<point x="240" y="549"/>
		</contour>
	</outline>
</glyph>
<glyph name="phi" format="2">
	<unicode hex="03C6"/>
	<advance width="600"/>
	<outline>
		<contour>
			<point x="428" y="548" type="curve" smooth="yes"/>
			<point x="375" y="548"/>
			<point x="319" y="498"/>
			<point x="305" y="438" type="curve" smooth="yes"/>
			<point x="275" y="309"/>
			<point x="231" y="204"/>
			<point x="197" y="84" type="curve"/>
			<point x="184" y="58" type="line"/>
			<point x="171.9130834107" y="16.7030349864"/>
			<point x="156" y="-25"/>
			<point x="147" y="-67" type="curve" smooth="yes"/>
			<point x="130" y="-144"/>
			<point x="150.1343283582" y="-197"/>
			<point x="217" y="-197" type="curve" smooth="yes"/>
			<point x="240" y="-197"/>
			<point x="261" y="-193"/>
			<point x="283" y="-186" type="curve"/>
			<point x="284" y="-119"/>
			<point x="290" y="-70"/>
			<point x="319" y="40" type="curve"/>
			<point x="306" y="72" type="line"/>
			<point x="332" y="187"/>
			<point x="372" y="284"/>
			<point x="389" y="411" type="curve"/>
			<point x="428.9223673675" y="394.4468232867"/>
			<point x="453" y="338"/>
			<point x="430" y="256" type="curve" smooth="yes"/>
			<point x="428" y="249" type="line" smooth="yes"/>
			<point x="405" y="168"/>
			<point x="357.9281045752" y="130"/>
			<point x="277" y="130" type="curve" smooth="yes"/>
			<point x="235.7073999383" y="130"/>
			<point x="194.8993747507" y="135.0056251443"/>
			<point x="169" y="150" type="curve"/>
			<point x="165.4581958973" y="187.7792437627"/>
			<point x="170" y="228"/>
			<point x="184" y="284" type="curve" smooth="yes"/>
			<point x="186" y="292" type="line" smooth="yes"/>
			<point x="213" y="400"/>
			<point x="258.4857156266" y="479.6080214381"/>
			<point x="312" y="535" type="curve"/>
			<point x="312" y="540" type="line"/>
			<point x="299" y="548"/>
			<point x="284" y="550"/>
			<point x="253" y="550" type="curve" smooth="yes"/>
			<point x="158.4129353234" y="550"/>
			<point x="94" y="492"/>
			<point x="59" y="353" type="curve" smooth="yes"/>
			<point x="56" y="341" type="line" smooth="yes"/>
			<point x="0.2155641399" y="117.8622565595"/>
			<point x="123.5789473684" y="-13"/>
			<point x="270" y="-13" type="curve" smooth="yes"/>
			<point x="403.7465753425" y="-13"/>
			<point x="520" y="71"/>
			<point x="553" y="204" type="curve" smooth="yes"/>
			<point x="555" y="212" type="line" smooth="yes"/>
			<point x="612.5761588745" y="442.304635498"/>
			<point x="498.9705882353" y="548"/>
		</contour>
	</outline>
	<guideline x="285" y="261" angle="0" identifier="IsR3UV5EAJ"/>
</glyph>
<glyph name="Germandbls" format="2">
	<unicode hex="1E9E"/>
	<advance width="600"/>
	<outline>
		<contour>
			<point x="165" y="0" type="curve"/>
			<point x="164" y="20"/>
			<point x="166" y="59"/>
			<point x="170" y="96" type="curve" smooth="yes"/>
			<point x="186" y="244"/>
			<point x="243.9149769856" y="329.6540442863"/>
			<point x="273" y="448" type="curve"/>
			<point x="284.2006912437" y="493.8210096334"/>
			<point x="278.8156182676" y="526.1382862993"/>
			<point x="255" y="544" type="curve"/>
			<point x="274" y="578" type="line"/>
			<point x="152" y="578" type="line"/>
			<point x="124" y="412"/>
			<point x="44.0329573717" y="277.238940945"/>
			<point x="24" y="132" type="curve" smooth="yes"/>
			<point x="11" y="41"/>
			<point x="43" y="-8"/>
			<point x="112" y="-8" type="curve"/>
			<point x="129" y="-8"/>
			<point x="150" y="-5"/>
		</contour>
		<contour>
			<point x="367" y="146" type="curve" smooth="yes"/>
			<point x="323" y="146"/>
			<point x="301" y="151"/>
			<point x="278" y="167" type="curve"/>
			<point x="274" y="167" type="line"/>
			<point x="260" y="149"/>
			<point x="250" y="128"/>
			<point x="244" y="103" type="curve" smooth="yes"/>
			<point x="233" y="59"/>
			<point x="238" y="28"/>
			<point x="261" y="9" type="curve" smooth="yes"/>
			<point x="278" y="-5"/>
			<point x="304" y="-12"/>
			<point x="341" y="-12" type="curve"/>
			<point x="449" y="-12"/>
			<point x="520" y="45"/>
			<point x="547" y="154" type="curve" smooth="yes"/>
			<point x="550" y="166" type="line"/>
			<point x="566" y="229"/>
			<point x="551" y="277"/>
			<point x="500" y="328" type="curve" smooth="yes"/>
			<point x="479" y="349" type="line" smooth="yes"/>
			<point x="468" y="360"/>
			<point x="459" y="369"/>
			<point x="451" y="379" type="curve"/>
			<point x="457" y="396"/>
			<point x="479" y="420"/>
			<point x="525" y="459" type="curve" smooth="yes"/>
			<point x="551" y="481" type="line" smooth="yes"/>
			<point x="589" y="513"/>
			<point x="623" y="549"/>
			<point x="632" y="595" type="curve" smooth="yes"/>
			<point x="633" y="600" type="line" smooth="yes"/>
			<point x="645" y="660"/>
			<point x="618" y="700"/>
			<point x="565" y="700" type="curve"/>
			<point x="138" y="700" type="line"/>
			<point x="129" y="681"/>
			<point x="123" y="663"/>
			<point x="118" y="643" type="curve"/>
			<point x="102" y="578"/>
			<point x="107" y="550"/>
			<point x="135" y="550" type="curve"/>
			<point x="436" y="550" type="line"/>
			<point x="438" y="545" type="line"/>
			<point x="431" y="540"/>
			<point x="424" y="536"/>
			<point x="406" y="520" type="curve" smooth="yes"/>
			<point x="397" y="512" type="line" smooth="yes"/>
			<point x="366" y="484"/>
			<point x="332" y="441"/>
			<point x="322" y="406" type="curve" smooth="yes"/>
			<point x="320" y="399" type="line" smooth="yes"/>
			<point x="309" y="361"/>
			<point x="324" y="319"/>
			<point x="361" y="286" type="curve" smooth="yes"/>
			<point x="386" y="264" type="line" smooth="yes"/>
			<point x="424" y="230"/>
			<point x="433" y="211"/>
			<point x="426" y="181" type="curve" smooth="yes"/>
			<point x="424" y="172"/>
			<point x="421" y="164"/>
			<point x="417" y="156" type="curve"/>
			<point x="405" y="149"/>
			<point x="390" y="146"/>
		</contour>
	</outline>
</glyph>
<glyph name="quotedblleft" format="2">
	<unicode hex="201C"/>
	<advance width="600"/>
	<outline>
		<contour>
			<point x="427" y="726" type="curve"/>
			<point x="395" y="745"/>
			<point x="360" y="755"/>
			<point x="325" y="755" type="curve" smooth="yes"/>
			<point x="293" y="755"/>
			<point x="274" y="749"/>
			<point x="259" y="735" type="curve" smooth="yes"/>
			<point x="208" y="688"/>
			<point x="155" y="602"/>
			<point x="134" y="523" type="curve" smooth="yes"/>
			<point x="119" y="466"/>
			<point x="145" y="441"/>
			<point x="210" y="441" type="curve" smooth="yes"/>
			<point x="242" y="441"/>
			<point x="269" y="446"/>
			<point x="293" y="454" type="curve"/>
			<point x="321" y="563"/>
			<point x="360" y="645"/>
		</contour>
		<contour>
			<point x="676" y="726" type="curve"/>
			<point x="644" y="745"/>
			<point x="609" y="755"/>
			<point x="574" y="755" type="curve" smooth="yes"/>
			<point x="542" y="755"/>
			<point x="523" y="749"/>
			<point x="508" y="735" type="curve" smooth="yes"/>
			<point x="457" y="688"/>
			<point x="404" y="602"/>
			<point x="383" y="523" type="curve" smooth="yes"/>
			<point x="368" y="466"/>
			<point x="394" y="441"/>
			<point x="459" y="441" type="curve" smooth="yes"/>
			<point x="491" y="441"/>
			<point x="518" y="446"/>
			<point x="542" y="454" type="curve"/>
			<point x="570" y="563"/>
			<point x="609" y="645"/>
		</contour>
	</outline>
</glyph>
<glyph name="fraction" format="2">
	<unicode hex="2044"/>
	<advance width="600"/>
	<outline>
		<contour>
			<point x="778" y="700" type="curve"/>
			<point x="751" y="708"/>
			<point x="731" y="714"/>
			<point x="700" y="714" type="curve" smooth="yes"/>
			<point x="644" y="714"/>
			<point x="596" y="697"/>
			<point x="534" y="623" type="curve" smooth="yes"/>
			<point x="372" y="422"/>
			<point x="186" y="255"/>
			<point x="-68" y="82" type="curve" smooth="yes"/>
			<point x="-144" y="30"/>
			<point x="-189" y="7"/>
			<point x="-222" y="0" type="curve"/>
			<point x="-209" y="-21"/>
			<point x="-156" y="-31"/>
			<point x="-118" y="-31" type="curve" smooth="yes"/>
			<point x="-57" y="-31"/>
			<point x="-13" y="-16"/>
			<point x="77" y="40" type="curve" smooth="yes"/>
			<point x="329" y="198"/>
			<point x="581" y="448"/>
		</contour>
	</outline>
</glyph>
<glyph name="zerosuperior" format="2">
	<unicode hex="2070"/>
	<advance width="600"/>
	<outline>
		<contour>
			<point x="422" y="795" type="curve" smooth="yes"/>
			<point x="308" y="795"/>
			<point x="251" y="719"/>
			<point x="220" y="592" type="curve" smooth="yes"/>
			<point x="210" y="551" type="line" smooth="yes"/>
			<point x="179" y="423"/>
			<point x="232" y="345"/>
			<point x="333" y="345" type="curve" smooth="yes"/>
			<point x="425" y="345"/>
			<point x="493" y="402"/>
			<point x="523" y="522" type="curve" smooth="yes"/>
			<point x="534" y="568" type="line" smooth="yes"/>
			<point x="565" y="699"/>
			<point x="528" y="795"/>
		</contour>
		<contour>
			<point x="415" y="690" type="curve" smooth="yes"/>
			<point x="427" y="690"/>
			<point x="439" y="688"/>
			<point x="447" y="685" type="curve"/>
			<point x="456" y="668"/>
			<point x="455" y="637"/>
			<point x="445" y="599" type="curve" smooth="yes"/>
			<point x="431" y="543" type="line" smooth="yes"/>
			<point x="414" y="474"/>
			<point x="373" y="449"/>
			<point x="333" y="449" type="curve" smooth="yes"/>
			<point x="324" y="449"/>
			<point x="318" y="449"/>
			<point x="308" y="451" type="curve"/>
			<point x="295" y="466"/>
			<point x="292" y="492"/>
			<point x="299" y="521" type="curve" smooth="yes"/>
			<point x="314" y="586" type="line" smooth="yes"/>
			<point x="330" y="654"/>
			<point x="373" y="690"/>
		</contour>
		<contour>
			<point x="490" y="699" type="line"/>
			<point x="430" y="656"/>
			<point x="395" y="630"/>
			<point x="363" y="607" type="curve" smooth="yes"/>
			<point x="339" y="589"/>
			<point x="317" y="566"/>
			<point x="303" y="543" type="curve"/>
			<point x="329" y="558" type="line"/>
			<point x="281" y="558" type="line"/>
			<point x="260" y="469" type="line"/>
			<point x="309" y="489"/>
			<point x="355" y="513"/>
			<point x="390" y="538" type="curve" smooth="yes"/>
			<point x="414" y="555"/>
			<point x="434" y="578"/>
			<point x="446" y="607" type="curve"/>
			<point x="419" y="591" type="line"/>
			<point x="463" y="591" type="line"/>
			<point x="475" y="640" type="line"/>
		</contour>
	</outline>
</glyph>
<glyph name="foursuperior" format="2">
	<unicode hex="2074"/>
	<advance width="600"/>
	<outline>
		<contour>
			<point x="447" y="352" type="curve"/>
			<point x="441" y="375"/>
			<point x="440" y="393"/>
			<point x="452" y="437" type="curve" smooth="yes"/>
			<point x="489" y="575" type="line" smooth="yes"/>
			<point x="496" y="602"/>
			<point x="479" y="620"/>
			<point x="435" y="632" type="curve"/>
			<point x="429" y="632" type="line"/>
			<point x="399" y="596"/>
			<point x="378" y="554"/>
			<point x="366" y="512" type="curve" smooth="yes"/>
			<point x="345" y="436" type="line" smooth="yes"/>
			<point x="326" y="367"/>
			<point x="352" y="345"/>
			<point x="394" y="345" type="curve" smooth="yes"/>
			<point x="415" y="345"/>
			<point x="434" y="348"/>
		</contour>
		<contour>
			<point x="496" y="435" type="line"/>
			<point x="502" y="446"/>
			<point x="508" y="458"/>
			<point x="512" y="475" type="curve" smooth="yes"/>
			<point x="522" y="521"/>
			<point x="507" y="545"/>
			<point x="465" y="545" type="curve" smooth="yes"/>
			<point x="401" y="545" type="line" smooth="yes"/>
			<point x="359" y="545"/>
			<point x="327" y="541"/>
			<point x="275" y="530" type="curve"/>
			<point x="300" y="505" type="line"/>
			<point x="316" y="574" type="line"/>
			<point x="288" y="510" type="line"/>
			<point x="339" y="592"/>
			<point x="421" y="680"/>
			<point x="518" y="762" type="curve"/>
			<point x="520" y="768" type="line"/>
			<point x="501" y="784"/>
			<point x="475" y="795"/>
			<point x="447" y="795" type="curve" smooth="yes"/>
			<point x="417" y="795"/>
			<point x="391" y="787"/>
			<point x="360" y="758" type="curve" smooth="yes"/>
			<point x="307" y="711"/>
			<point x="219" y="587"/>
			<point x="203" y="524" type="curve" smooth="yes"/>
			<point x="202" y="520" type="line" smooth="yes"/>
			<point x="191" y="475"/>
			<point x="204" y="435"/>
			<point x="232" y="435" type="curve" smooth="yes"/>
		</contour>
	</outline>
</glyph>
<glyph name="fivesuperior" format="2">
	<unicode hex="2075"/>
	<advance width="600"/>
	<outline>
		<contour>
			<point x="304" y="785" type="line"/>
			<point x="293" y="765"/>
			<point x="283" y="748"/>
			<point x="275" y="717" type="curve" smooth="yes"/>
			<point x="268" y="691"/>
			<point x="275" y="675"/>
			<point x="309" y="675" type="curve" smooth="yes"/>
			<point x="522" y="675" type="line"/>
			<point x="532" y="692"/>
			<point x="540" y="706"/>
			<point x="546" y="733" type="curve" smooth="yes"/>
			<point x="554" y="767"/>
			<point x="537" y="785"/>
			<point x="502" y="785" type="curve" smooth="yes"/>
		</contour>
		<contour>
			<point x="486" y="463" type="curve" smooth="yes"/>
			<point x="488" y="471" type="line" smooth="yes"/>
			<point x="508" y="551"/>
			<point x="473" y="606"/>
			<point x="405" y="606" type="curve" smooth="yes"/>
			<point x="372" y="606"/>
			<point x="358" y="600"/>
			<point x="334" y="587" type="curve"/>
			<point x="365" y="595" type="line"/>
			<point x="333" y="595" type="line"/>
			<point x="329" y="573" type="line"/>
			<point x="336" y="588"/>
			<point x="361" y="615"/>
			<point x="368" y="630" type="curve" smooth="yes"/>
			<point x="378" y="648"/>
			<point x="378" y="660"/>
			<point x="371" y="671" type="curve"/>
			<point x="378" y="683" type="line"/>
			<point x="368" y="694"/>
			<point x="333" y="700"/>
			<point x="311" y="701" type="curve"/>
			<point x="287" y="661"/>
			<point x="257" y="602"/>
			<point x="233" y="544" type="curve" smooth="yes"/>
			<point x="222" y="518"/>
			<point x="234" y="511"/>
			<point x="272" y="511" type="curve" smooth="yes"/>
			<point x="294" y="511" type="line" smooth="yes"/>
			<point x="314" y="511"/>
			<point x="331" y="511"/>
			<point x="345" y="511" type="curve" smooth="yes"/>
			<point x="379" y="511"/>
			<point x="401" y="504"/>
			<point x="410" y="484" type="curve"/>
			<point x="409" y="482" type="line"/>
			<point x="395" y="465"/>
			<point x="359" y="453"/>
			<point x="320" y="453" type="curve" smooth="yes"/>
			<point x="280" y="453"/>
			<point x="254" y="461"/>
			<point x="234" y="481" type="curve"/>
			<point x="228" y="481" type="line"/>
			<point x="216" y="464"/>
			<point x="208" y="448"/>
			<point x="203" y="432" type="curve" smooth="yes"/>
			<point x="196" y="410"/>
			<point x="197" y="386"/>
			<point x="210" y="371" type="curve" smooth="yes"/>
			<point x="224" y="355"/>
			<point x="254" y="345"/>
			<point x="313" y="345" type="curve" smooth="yes"/>
			<point x="404" y="345"/>
			<point x="465" y="379"/>
		</contour>
	</outline>
</glyph>
<glyph name="sixsuperior" format="2">
	<unicode hex="2076"/>
	<advance width="600"/>
	<outline>
		<contour>
			<point x="462" y="795" type="curve" smooth="yes"/>
			<point x="338" y="795"/>
			<point x="252" y="716"/>
			<point x="219" y="583" type="curve" smooth="yes"/>
			<point x="217" y="575" type="line" smooth="yes"/>
			<point x="180" y="426"/>
			<point x="233" y="345"/>
			<point x="338" y="345" type="curve" smooth="yes"/>
			<point x="432" y="345"/>
			<point x="490" y="382"/>
			<point x="511" y="479" type="curve" smooth="yes"/>
			<point x="513" y="488" type="line" smooth="yes"/>
			<point x="530" y="564"/>
			<point x="490" y="629"/>
			<point x="419" y="629" type="curve" smooth="yes"/>
			<point x="371" y="629"/>
			<point x="341" y="607"/>
			<point x="316" y="577" type="curve"/>
			<point x="340" y="589" type="line"/>
			<point x="301" y="589" type="line"/>
			<point x="281" y="508" type="line"/>
			<point x="316" y="527"/>
			<point x="344" y="535"/>
			<point x="377" y="535" type="curve" smooth="yes"/>
			<point x="395" y="535"/>
			<point x="408" y="534"/>
			<point x="418" y="531" type="curve"/>
			<point x="418" y="522"/>
			<point x="418" y="516"/>
			<point x="416" y="506" type="curve" smooth="yes"/>
			<point x="415" y="502" type="line" smooth="yes"/>
			<point x="408" y="472"/>
			<point x="384" y="455"/>
			<point x="351" y="455" type="curve" smooth="yes"/>
			<point x="333" y="455"/>
			<point x="315" y="456"/>
			<point x="304" y="459" type="curve"/>
			<point x="300" y="477"/>
			<point x="300" y="503"/>
			<point x="309" y="540" type="curve" smooth="yes"/>
			<point x="314" y="560" type="line" smooth="yes"/>
			<point x="327" y="610"/>
			<point x="344" y="643"/>
			<point x="368" y="676" type="curve"/>
			<point x="387" y="683"/>
			<point x="411" y="685"/>
			<point x="437" y="685" type="curve" smooth="yes"/>
			<point x="466" y="685"/>
			<point x="489" y="681"/>
			<point x="511" y="670" type="curve"/>
			<point x="517" y="670" type="line"/>
			<point x="526" y="682"/>
			<point x="535" y="700"/>
			<point x="541" y="724" type="curve" smooth="yes"/>
			<point x="546" y="745"/>
			<point x="547" y="764"/>
			<point x="533" y="776" type="curve" smooth="yes"/>
			<point x="519" y="787"/>
			<point x="499" y="795"/>
		</contour>
	</outline>
</glyph>
<glyph name="sevensuperior" format="2">
	<unicode hex="2077"/>
	<advance width="600"/>
	<outline>
		<contour>
			<point x="303" y="802" type="curve"/>
			<point x="279" y="751"/>
			<point x="249" y="676"/>
			<point x="240" y="639" type="curve" smooth="yes"/>
			<point x="233" y="610"/>
			<point x="242" y="593"/>
			<point x="274" y="593" type="curve" smooth="yes"/>
			<point x="295" y="593"/>
			<point x="314" y="596"/>
			<point x="332" y="600" type="curve"/>
			<point x="343" y="642"/>
			<point x="374" y="726"/>
			<point x="382" y="768" type="curve" smooth="yes"/>
			<point x="386" y="789"/>
			<point x="352" y="802"/>
		</contour>
		<contour>
			<point x="457" y="684" type="line"/>
			<point x="423" y="638"/>
			<point x="374" y="571"/>
			<point x="332" y="506" type="curve" smooth="yes"/>
			<point x="301" y="456"/>
			<point x="284" y="427"/>
			<point x="278" y="402" type="curve" smooth="yes"/>
			<point x="270" y="371"/>
			<point x="283" y="350"/>
			<point x="325" y="350" type="curve" smooth="yes"/>
			<point x="352" y="350"/>
			<point x="379" y="354"/>
			<point x="397" y="359" type="curve"/>
			<point x="407" y="404"/>
			<point x="428" y="467"/>
			<point x="465" y="538" type="curve" smooth="yes"/>
			<point x="506" y="617"/>
			<point x="554" y="676"/>
			<point x="559" y="697" type="curve" smooth="yes"/>
			<point x="561" y="705" type="line" smooth="yes"/>
			<point x="569" y="738"/>
			<point x="560" y="775"/>
			<point x="528" y="775" type="curve" smooth="yes"/>
			<point x="498" y="775"/>
			<point x="381" y="775"/>
			<point x="303" y="775" type="curve"/>
			<point x="291" y="726"/>
			<point x="287" y="669"/>
			<point x="305" y="669" type="curve" smooth="yes"/>
			<point x="370" y="669" type="line" smooth="yes"/>
			<point x="419" y="669"/>
			<point x="441" y="670"/>
			<point x="458" y="675" type="curve"/>
			<point x="449" y="682" type="line"/>
			<point x="441" y="651" type="line"/>
		</contour>
	</outline>
</glyph>
<glyph name="eightsuperior" format="2">
	<unicode hex="2078"/>
	<advance width="600"/>
	<outline>
		<contour>
			<point x="416" y="795" type="curve" smooth="yes"/>
			<point x="326" y="795"/>
			<point x="264" y="746"/>
			<point x="253" y="680" type="curve" smooth="yes"/>
			<point x="252" y="674" type="line" smooth="yes"/>
			<point x="242" y="612"/>
			<point x="257" y="573"/>
			<point x="304" y="553" type="curve" smooth="yes"/>
			<point x="370" y="525" type="line" smooth="yes"/>
			<point x="399" y="513"/>
			<point x="411" y="501"/>
			<point x="406" y="469" type="curve"/>
			<point x="391" y="458"/>
			<point x="365" y="451"/>
			<point x="339" y="451" type="curve" smooth="yes"/>
			<point x="314" y="451"/>
			<point x="300" y="456"/>
			<point x="290" y="468" type="curve"/>
			<point x="305" y="501"/>
			<point x="335" y="530"/>
			<point x="377" y="547" type="curve"/>
			<point x="289" y="571" type="line"/>
			<point x="282" y="543" type="line"/>
			<point x="321" y="564" type="line"/>
			<point x="255" y="561"/>
			<point x="213" y="520"/>
			<point x="202" y="478" type="curve" smooth="yes"/>
			<point x="200" y="470" type="line" smooth="yes"/>
			<point x="184" y="407"/>
			<point x="221" y="345"/>
			<point x="318" y="345" type="curve" smooth="yes"/>
			<point x="421" y="345"/>
			<point x="477" y="378"/>
			<point x="494" y="447" type="curve" smooth="yes"/>
			<point x="496" y="455" type="line" smooth="yes"/>
			<point x="512" y="520"/>
			<point x="487" y="573"/>
			<point x="439" y="594" type="curve" smooth="yes"/>
			<point x="385" y="617" type="line" smooth="yes"/>
			<point x="357" y="629"/>
			<point x="351" y="647"/>
			<point x="356" y="665" type="curve" smooth="yes"/>
			<point x="360" y="680"/>
			<point x="377" y="689"/>
			<point x="408" y="689" type="curve" smooth="yes"/>
			<point x="422" y="689"/>
			<point x="435" y="686"/>
			<point x="444" y="682" type="curve"/>
			<point x="446" y="676"/>
			<point x="445" y="667"/>
			<point x="444" y="662" type="curve" smooth="yes"/>
			<point x="443" y="658" type="line" smooth="yes"/>
			<point x="437" y="635"/>
			<point x="418" y="617"/>
			<point x="367" y="597" type="curve"/>
			<point x="452" y="569" type="line"/>
			<point x="461" y="604" type="line"/>
			<point x="430" y="587" type="line"/>
			<point x="491" y="592"/>
			<point x="530" y="613"/>
			<point x="542" y="653" type="curve" smooth="yes"/>
			<point x="544" y="660" type="line" smooth="yes"/>
			<point x="564" y="730"/>
			<point x="515" y="795"/>
		</contour>
	</outline>
</glyph>
<glyph name="ninesuperior" format="2">
	<unicode hex="2079"/>
	<advance width="600"/>
	<outline>
		<contour>
			<point x="399" y="795" type="curve" smooth="yes"/>
			<point x="308" y="795"/>
			<point x="256" y="740"/>
			<point x="241" y="671" type="curve" smooth="yes"/>
			<point x="239" y="662" type="line" smooth="yes"/>
			<point x="217" y="565"/>
			<point x="252" y="508"/>
			<point x="320" y="508" type="curve" smooth="yes"/>
			<point x="362" y="508"/>
			<point x="393" y="517"/>
			<point x="422" y="552" type="curve"/>
			<point x="384" y="539" type="line"/>
			<point x="440" y="539" type="line"/>
			<point x="458" y="610" type="line"/>
			<point x="426" y="599"/>
			<point x="400" y="596"/>
			<point x="377" y="596" type="curve" smooth="yes"/>
			<point x="361" y="596"/>
			<point x="345" y="597"/>
			<point x="334" y="600" type="curve"/>
			<point x="332" y="612"/>
			<point x="332" y="622"/>
			<point x="334" y="633" type="curve" smooth="yes"/>
			<point x="336" y="643" type="line" smooth="yes"/>
			<point x="341" y="668"/>
			<point x="361" y="685"/>
			<point x="397" y="685" type="curve" smooth="yes"/>
			<point x="415" y="685"/>
			<point x="428" y="683"/>
			<point x="440" y="679" type="curve"/>
			<point x="441" y="659"/>
			<point x="439" y="639"/>
			<point x="431" y="606" type="curve" smooth="yes"/>
			<point x="429" y="598" type="line" smooth="yes"/>
			<point x="415" y="541"/>
			<point x="400" y="490"/>
			<point x="384" y="463" type="curve"/>
			<point x="365" y="458"/>
			<point x="343" y="455"/>
			<point x="317" y="455" type="curve" smooth="yes"/>
			<point x="287" y="455"/>
			<point x="263" y="460"/>
			<point x="240" y="471" type="curve"/>
			<point x="234" y="471" type="line"/>
			<point x="223" y="453"/>
			<point x="211" y="433"/>
			<point x="206" y="412" type="curve" smooth="yes"/>
			<point x="201" y="390"/>
			<point x="205" y="376"/>
			<point x="214" y="365" type="curve" smooth="yes"/>
			<point x="224" y="353"/>
			<point x="244" y="345"/>
			<point x="286" y="345" type="curve" smooth="yes"/>
			<point x="410" y="345"/>
			<point x="491" y="396"/>
			<point x="526" y="537" type="curve" smooth="yes"/>
			<point x="529" y="549" type="line" smooth="yes"/>
			<point x="567" y="700"/>
			<point x="519" y="795"/>
		</contour>
	</outline>
</glyph>
<glyph name="minus.superior" format="2">
	<unicode hex="207B"/>
	<advance width="600"/>
	<outline>
		<contour>
			<point x="205" y="620" type="line"/>
			<point x="198" y="608"/>
			<point x="193" y="594"/>
			<point x="190" y="583" type="curve" smooth="yes"/>
			<point x="179" y="539"/>
			<point x="194" y="520"/>
			<point x="231" y="520" type="curve" smooth="yes"/>
			<point x="548" y="520" type="line"/>
			<point x="554" y="532"/>
			<point x="560" y="545"/>
			<point x="563" y="557" type="curve" smooth="yes"/>
			<point x="574" y="600"/>
			<point x="561" y="620"/>
			<point x="527" y="620" type="curve" smooth="yes"/>
		</contour>
	</outline>
</glyph>
<glyph name="numero" format="2">
	<unicode hex="2116"/>
	<advance width="600"/>
	<outline>
		<contour>
			<point x="115" y="0" type="curve"/>
			<point x="116" y="33"/>
			<point x="118" y="66"/>
			<point x="124" y="101" type="curve" smooth="yes"/>
			<point x="139" y="192"/>
			<point x="169" y="343"/>
			<point x="190" y="488" type="curve"/>
			<point x="159" y="458" type="line"/>
			<point x="223" y="458" type="line"/>
			<point x="193" y="487" type="line"/>
			<point x="183" y="256"/>
			<point x="187" y="138"/>
			<point x="209" y="50" type="curve" smooth="yes"/>
			<point x="219" y="10"/>
			<point x="240" y="-10"/>
			<point x="290" y="-10" type="curve" smooth="yes"/>
			<point x="315" y="-10"/>
			<point x="349" y="-6"/>
			<point x="370" y="0" type="curve"/>
			<point x="369" y="35"/>
			<point x="371" y="71"/>
			<point x="376" y="106" type="curve" smooth="yes"/>
			<point x="401" y="280"/>
			<point x="456" y="446"/>
			<point x="497" y="608" type="curve" smooth="yes"/>
			<point x="515" y="679"/>
			<point x="491" y="708"/>
			<point x="437" y="708" type="curve" smooth="yes"/>
			<point x="411" y="708"/>
			<point x="385" y="705"/>
			<point x="367" y="700" type="curve"/>
			<point x="364" y="639"/>
			<point x="357" y="594"/>
			<point x="343" y="532" type="curve" smooth="yes"/>
			<point x="319" y="423"/>
			<point x="297" y="318"/>
			<point x="281" y="192" type="curve"/>
			<point x="314" y="215" type="line"/>
			<point x="244" y="215" type="line"/>
			<point x="280" y="195" type="line"/>
			<point x="273" y="321"/>
			<point x="281" y="438"/>
			<point x="299" y="615" type="curve" smooth="yes"/>
			<point x="306" y="681"/>
			<point x="277" y="708"/>
			<point x="215" y="708" type="curve" smooth="yes"/>
			<point x="178" y="708"/>
			<point x="154" y="706"/>
			<point x="121" y="700" type="curve"/>
			<point x="121" y="664"/>
			<point x="119" y="630"/>
			<point x="112" y="590" type="curve" smooth="yes"/>
			<point x="83" y="426"/>
			<point x="25" y="313"/>
			<point x="-7" y="114" type="curve" smooth="yes"/>
			<point x="-21" y="29"/>
			<point x="-8" y="-7"/>
			<point x="44" y="-7" type="curve" smooth="yes"/>
			<point x="66" y="-7"/>
			<point x="101" y="-4"/>
		</contour>
		<contour>
			<point x="622" y="708" type="curve" smooth="yes"/>
			<point x="564" y="708"/>
			<point x="524" y="654"/>
			<point x="504" y="572" type="curve" smooth="yes"/>
			<point x="502" y="564" type="line" smooth="yes"/>
			<point x="484" y="491"/>
			<point x="503" y="432"/>
			<point x="557" y="432" type="curve" smooth="yes"/>
			<point x="618" y="432"/>
			<point x="658" y="496"/>
			<point x="676" y="570" type="curve" smooth="yes"/>
			<point x="678" y="578" type="line" smooth="yes"/>
			<point x="698" y="658"/>
			<point x="676" y="708"/>
		</contour>
		<contour>
			<point x="611" y="625" type="curve" smooth="yes"/>
			<point x="619" y="625"/>
			<point x="623" y="624"/>
			<point x="627" y="623" type="curve"/>
			<point x="628" y="612"/>
			<point x="627" y="597"/>
			<point x="623" y="582" type="curve" smooth="yes"/>
			<point x="622" y="578" type="line" smooth="yes"/>
			<point x="613" y="540"/>
			<point x="595" y="530"/>
			<point x="575" y="530" type="curve" smooth="yes"/>
			<point x="566" y="530"/>
			<point x="562" y="531"/>
			<point x="556" y="534" type="curve"/>
			<point x="554" y="545"/>
			<point x="555" y="555"/>
			<point x="558" y="569" type="curve" smooth="yes"/>
			<point x="559" y="573" type="line" smooth="yes"/>
			<point x="568" y="608"/>
			<point x="593" y="625"/>
		</contour>
		<contour>
			<point x="468" y="400" type="line"/>
			<point x="465" y="394"/>
			<point x="463" y="387"/>
			<point x="461" y="380" type="curve" smooth="yes"/>
			<point x="446" y="319"/>
			<point x="468" y="308"/>
			<point x="506" y="308" type="curve" smooth="yes"/>
			<point x="601" y="308" type="line"/>
			<point x="608" y="322"/>
			<point x="615" y="338"/>
			<point x="620" y="355" type="curve" smooth="yes"/>
			<point x="627" y="383"/>
			<point x="614" y="400"/>
			<point x="572" y="400" type="curve" smooth="yes"/>
		</contour>
	</outline>
</glyph>
<glyph name="arrowNW" format="2">
	<unicode hex="2196"/>
	<advance width="600"/>
	<outline>
		<contour>
			<point x="144" y="625"/>
			<point x="129" y="611"/>
			<point x="105" y="540" type="curve" smooth="yes"/>
			<point x="67" y="429"/>
			<point x="54" y="325"/>
			<point x="67" y="177" type="curve"/>
			<point x="93" y="178"/>
			<point x="122" y="187"/>
			<point x="150" y="203" type="curve"/>
			<point x="200" y="231"/>
			<point x="209" y="254"/>
			<point x="206" y="298" type="curve" smooth="yes"/>
			<point x="199" y="391"/>
			<point x="199" y="451"/>
			<point x="236" y="554" type="curve"/>
			<point x="199" y="508" type="line"/>
			<point x="260" y="543" type="line"/>
			<point x="203" y="534" type="line"/>
			<point x="304" y="512"/>
			<point x="353" y="478"/>
			<point x="423" y="421" type="curve" smooth="yes"/>
			<point x="456" y="396"/>
			<point x="478" y="390"/>
			<point x="529" y="419" type="curve"/>
			<point x="557" y="435"/>
			<point x="579" y="456"/>
			<point x="595" y="478" type="curve"/>
			<point x="470" y="586"/>
			<point x="339" y="647"/>
			<point x="199" y="656" type="curve"/>
			<point x="181" y="646" type="line" smooth="yes"/>
		</contour>
		<contour>
			<point x="313" y="219"/>
			<point x="338" y="182"/>
			<point x="355" y="146" type="curve" smooth="yes"/>
			<point x="370" y="115"/>
			<point x="381" y="83"/>
			<point x="384" y="50" type="curve"/>
			<point x="405" y="49"/>
			<point x="424" y="47"/>
			<point x="459" y="56" type="curve" smooth="yes"/>
			<point x="512" y="70"/>
			<point x="532" y="104"/>
			<point x="510" y="167" type="curve" smooth="yes"/>
			<point x="492" y="212"/>
			<point x="464" y="263"/>
			<point x="436" y="304" type="curve" smooth="yes"/>
			<point x="406" y="350"/>
			<point x="368" y="392"/>
			<point x="296" y="468" type="curve"/>
			<point x="285" y="469"/>
			<point x="274" y="467"/>
			<point x="264" y="461" type="curve" smooth="yes"/>
			<point x="238" y="447"/>
			<point x="230" y="425"/>
			<point x="240" y="394" type="curve" smooth="yes"/>
			<point x="258" y="338"/>
			<point x="273" y="302"/>
			<point x="296" y="256" type="curve" smooth="yes"/>
		</contour>
	</outline>
</glyph>
<glyph name="arrowNE" format="2">
	<unicode hex="2197"/>
	<advance width="600"/>
	<outline>
		<contour>
			<point x="423" y="426" type="curve"/>
			<point x="421" y="437"/>
			<point x="416" y="447"/>
			<point x="408" y="455" type="curve" smooth="yes"/>
			<point x="387" y="476"/>
			<point x="364" y="478"/>
			<point x="337" y="460" type="curve" smooth="yes"/>
			<point x="283" y="424"/>
			<point x="249" y="395"/>
			<point x="206" y="356" type="curve" smooth="yes"/>
			<point x="169" y="324"/>
			<point x="132" y="284"/>
			<point x="96" y="252" type="curve" smooth="yes"/>
			<point x="71" y="229"/>
			<point x="43" y="210"/>
			<point x="12" y="198" type="curve"/>
			<point x="17" y="177"/>
			<point x="20" y="158"/>
			<point x="39" y="127" type="curve" smooth="yes"/>
			<point x="67" y="80"/>
			<point x="105" y="70"/>
			<point x="159" y="109" type="curve" smooth="yes"/>
			<point x="204" y="143"/>
			<point x="253" y="191"/>
			<point x="291" y="235" type="curve" smooth="yes"/>
			<point x="330" y="280"/>
			<point x="366" y="329"/>
		</contour>
		<contour>
			<point x="603" y="592" type="line"/>
			<point x="616" y="453"/>
			<point x="577" y="306"/>
			<point x="491" y="149" type="curve"/>
			<point x="467" y="157"/>
			<point x="443" y="172"/>
			<point x="423" y="194" type="curve"/>
			<point x="387" y="234"/>
			<point x="389" y="257"/>
			<point x="408" y="297" type="curve" smooth="yes"/>
			<point x="453" y="384"/>
			<point x="479" y="442"/>
			<point x="484" y="548" type="curve"/>
			<point x="502" y="495" type="line"/>
			<point x="458" y="543" type="line"/>
			<point x="509" y="522" type="line"/>
			<point x="402" y="525"/>
			<point x="343" y="505"/>
			<point x="254" y="468" type="curve" smooth="yes"/>
			<point x="212" y="451"/>
			<point x="188" y="452"/>
			<point x="152" y="491" type="curve"/>
			<point x="132" y="513"/>
			<point x="119" y="538"/>
			<point x="114" y="563" type="curve"/>
			<point x="257" y="624"/>
			<point x="360" y="645"/>
			<point x="475" y="645" type="curve" smooth="yes"/>
			<point x="548" y="645"/>
			<point x="564" y="635"/>
			<point x="590" y="606" type="curve" smooth="yes"/>
		</contour>
	</outline>
</glyph>
<glyph name="product" format="2">
	<unicode hex="220F"/>
	<advance width="600"/>
	<outline>
		<contour>
			<point x="142" y="700" type="line"/>
			<point x="128" y="683"/>
			<point x="118" y="663"/>
			<point x="112" y="641" type="curve" smooth="yes"/>
			<point x="102" y="599"/>
			<point x="118" y="550"/>
			<point x="183" y="550" type="curve" smooth="yes"/>
			<point x="617" y="550" type="line"/>
			<point x="632" y="566"/>
			<point x="646" y="590"/>
			<point x="654" y="623" type="curve" smooth="yes"/>
			<point x="665" y="668"/>
			<point x="650" y="700"/>
			<point x="595" y="700" type="curve" smooth="yes"/>
		</contour>
		<contour>
			<point x="185" y="584" type="line"/>
			<point x="174.0279993346" y="304.2139830332"/>
			<point x="8.366878456" y="85.4292947933"/>
			<point x="-15" y="-118" type="curve" smooth="yes"/>
			<point x="-21" y="-170"/>
			<point x="6" y="-198"/>
			<point x="73" y="-198" type="curve" smooth="yes"/>
			<point x="98" y="-198"/>
			<point x="113" y="-196"/>
			<point x="128" y="-193" type="curve"/>
			<point x="146.8644033466" y="59.4927832539"/>
			<point x="276.3432719682" y="219.1248174535"/>
			<point x="304" y="420" type="curve" smooth="yes"/>
			<point x="313" y="487"/>
			<point x="307" y="514"/>
			<point x="288" y="544" type="curve"/>
			<point x="298" y="584" type="line"/>
		</contour>
		<contour>
			<point x="435" y="584" type="line"/>
			<point x="424.028267689" y="291.8776272209"/>
			<point x="252.8504865111" y="85.2209233574"/>
			<point x="235" y="-118" type="curve" smooth="yes"/>
			<point x="230" y="-177"/>
			<point x="253" y="-200"/>
			<point x="322" y="-200" type="curve" smooth="yes"/>
			<point x="347" y="-200"/>
			<point x="367" y="-198"/>
			<point x="391" y="-193" type="curve"/>
			<point x="386" y="-151"/>
			<point x="391" y="-110"/>
			<point x="400" y="-70" type="curve" smooth="yes"/>
			<point x="442.4497212816" y="127.5544721183"/>
			<point x="538.2268593721" y="271.4679743108"/>
			<point x="561" y="426" type="curve" smooth="yes"/>
			<point x="570" y="489"/>
			<point x="562" y="522"/>
			<point x="539" y="544" type="curve"/>
			<point x="549" y="584" type="line"/>
		</contour>
	</outline>
</glyph>
<glyph name="squareblack" format="2">
	<unicode hex="25A0"/>
	<advance width="600"/>
	<outline>
		<contour>
			<point x="69" y="600" type="line"/>
			<point x="69" y="156" type="line" smooth="yes"/>
			<point x="69" y="121"/>
			<point x="76" y="100"/>
			<point x="92" y="100" type="curve" smooth="yes"/>
			<point x="569" y="100" type="line"/>
			<point x="569" y="544" type="line" smooth="yes"/>
			<point x="569" y="579"/>
			<point x="562" y="600"/>
			<point x="546" y="600" type="curve" smooth="yes"/>
		</contour>
	</outline>
</glyph>
<glyph name="heartwhite" format="2">
	<unicode hex="2661"/>
	<advance width="600"/>
	<outline>
		<contour>
			<point x="178" y="656" type="curve" smooth="yes"/>
			<point x="78" y="656"/>
			<point x="18" y="579"/>
			<point x="18" y="456" type="curve" smooth="yes"/>
			<point x="18" y="453" type="line" smooth="yes"/>
			<point x="18" y="324"/>
			<point x="107" y="176"/>
			<point x="226" y="107" type="curve" smooth="yes"/>
			<point x="268" y="83"/>
			<point x="291" y="75"/>
			<point x="318" y="75" type="curve" smooth="yes"/>
			<point x="337" y="75"/>
			<point x="347" y="76"/>
			<point x="361" y="79" type="curve"/>
			<point x="474" y="140"/>
			<point x="608" y="296"/>
			<point x="608" y="453" type="curve" smooth="yes"/>
			<point x="608" y="456" type="line" smooth="yes"/>
			<point x="608" y="594"/>
			<point x="540" y="656"/>
			<point x="450" y="656" type="curve" smooth="yes"/>
			<point x="370" y="656"/>
			<point x="326" y="603"/>
			<point x="311" y="495" type="curve"/>
			<point x="346" y="530" type="line"/>
			<point x="280" y="530" type="line"/>
			<point x="319" y="495" type="line"/>
			<point x="305" y="604"/>
			<point x="256" y="656"/>
		</contour>
		<contour>
			<point x="339" y="121" type="line"/>
			<point x="188" y="185"/>
			<point x="88" y="306"/>
			<point x="88" y="458" type="curve" smooth="yes"/>
			<point x="88" y="460" type="line" smooth="yes"/>
			<point x="88" y="546"/>
			<point x="123" y="586"/>
			<point x="168" y="586" type="curve" smooth="yes"/>
			<point x="216" y="586"/>
			<point x="246" y="555"/>
			<point x="263" y="496" type="curve" smooth="yes"/>
			<point x="269" y="475"/>
			<point x="282" y="465"/>
			<point x="316" y="465" type="curve"/>
			<point x="329" y="465"/>
			<point x="343" y="467"/>
			<point x="358" y="471" type="curve"/>
			<point x="373" y="545"/>
			<point x="404" y="586"/>
			<point x="451" y="586" type="curve" smooth="yes"/>
			<point x="503" y="586"/>
			<point x="538" y="547"/>
			<point x="538" y="458" type="curve" smooth="yes"/>
			<point x="538" y="456" type="line" smooth="yes"/>
			<point x="538" y="296"/>
			<point x="421" y="182"/>
			<point x="308" y="116" type="curve"/>
			<point x="367" y="128" type="line"/>
			<point x="291" y="128" type="line"/>
		</contour>
	</outline>
</glyph>
<glyph name="heartblack" format="2">
	<unicode hex="2665"/>
	<advance width="600"/>
	<outline>
		<contour>
			<point x="178" y="656" type="curve" smooth="yes"/>
			<point x="78" y="656"/>
			<point x="18" y="579"/>
			<point x="18" y="456" type="curve" smooth="yes"/>
			<point x="18" y="453" type="line" smooth="yes"/>
			<point x="18" y="324"/>
			<point x="107" y="176"/>
			<point x="226" y="107" type="curve" smooth="yes"/>
			<point x="268" y="83"/>
			<point x="291" y="75"/>
			<point x="318" y="75" type="curve" smooth="yes"/>
			<point x="337" y="75"/>
			<point x="347" y="76"/>
			<point x="361" y="79" type="curve"/>
			<point x="474" y="140"/>
			<point x="608" y="296"/>
			<point x="608" y="453" type="curve" smooth="yes"/>
			<point x="608" y="456" type="line" smooth="yes"/>
			<point x="608" y="594"/>
			<point x="540" y="656"/>
			<point x="450" y="656" type="curve" smooth="yes"/>
			<point x="370" y="656"/>
			<point x="326" y="603"/>
			<point x="311" y="495" type="curve"/>
			<point x="346" y="530" type="line"/>
			<point x="280" y="530" type="line"/>
			<point x="319" y="495" type="line"/>
			<point x="305" y="604"/>
			<point x="256" y="656"/>
		</contour>
	</outline>
</glyph>
<glyph name="f_f" format="2">
  <advance width="1200"/>
  <unicode hex="FB00"/>
  <anchor x="600" y="0" name="caret_1"/>
  <outline>
    <contour>
      <point x="309" y="86" type="curve" smooth="yes"/>
      <point x="348" y="184"/>
      <point x="353" y="296"/>
      <point x="405" y="510" type="curve" smooth="yes"/>
      <point x="418" y="565"/>
      <point x="428" y="593"/>
      <point x="444" y="621" type="curve"/>
      <point x="466" y="627"/>
      <point x="505" y="629"/>
      <point x="549" y="629" type="curve" smooth="yes"/>
      <point x="606" y="629"/>
      <point x="665" y="619"/>
      <point x="714" y="600" type="curve"/>
      <point x="720" y="600" type="line"/>
      <point x="732" y="617"/>
      <point x="741" y="642"/>
      <point x="747" y="664" type="curve" smooth="yes"/>
      <point x="755" y="701"/>
      <point x="748" y="722"/>
      <point x="733" y="737" type="curve" smooth="yes"/>
      <point x="716" y="754"/>
      <point x="674" y="770"/>
      <point x="574" y="770" type="curve" smooth="yes"/>
      <point x="429" y="770"/>
      <point x="312" y="699"/>
      <point x="267" y="539" type="curve" smooth="yes"/>
      <point x="221" y="374"/>
      <point x="219" y="287"/>
      <point x="167" y="138" type="curve" smooth="yes"/>
      <point x="144" y="72"/>
      <point x="120" y="34"/>
      <point x="94" y="0" type="curve"/>
      <point x="113" y="-12"/>
      <point x="134" y="-17"/>
      <point x="167" y="-17" type="curve" smooth="yes"/>
      <point x="236" y="-17"/>
      <point x="280" y="12"/>
    </contour>
    <contour>
      <point x="1168" y="370" type="line"/>
      <point x="1176" y="386"/>
      <point x="1184" y="407"/>
      <point x="1189" y="428" type="curve" smooth="yes"/>
      <point x="1201" y="480"/>
      <point x="1180" y="510"/>
      <point x="1118" y="510" type="curve" smooth="yes"/>
      <point x="110" y="510" type="line"/>
      <point x="100" y="500"/>
      <point x="95" y="491"/>
      <point x="90" y="474" type="curve" smooth="yes"/>
      <point x="75" y="420"/>
      <point x="112" y="370"/>
      <point x="201" y="370" type="curve"/>
    </contour>
    <contour>
      <point x="834" y="86" type="curve" smooth="yes"/>
      <point x="873" y="184"/>
      <point x="878" y="296"/>
      <point x="930" y="510" type="curve" smooth="yes"/>
      <point x="943" y="565"/>
      <point x="953" y="593"/>
      <point x="969" y="621" type="curve"/>
      <point x="996" y="627"/>
      <point x="1030" y="629"/>
      <point x="1073" y="629" type="curve" smooth="yes"/>
      <point x="1133" y="629"/>
      <point x="1199" y="617"/>
      <point x="1243" y="600" type="curve"/>
      <point x="1249" y="600" type="line"/>
      <point x="1261" y="617"/>
      <point x="1271" y="642"/>
      <point x="1276" y="664" type="curve" smooth="yes"/>
      <point x="1283" y="698"/>
      <point x="1274" y="723"/>
      <point x="1257" y="736" type="curve" smooth="yes"/>
      <point x="1233" y="755"/>
      <point x="1174" y="770"/>
      <point x="1107" y="770" type="curve" smooth="yes"/>
      <point x="944" y="770"/>
      <point x="837" y="699"/>
      <point x="792" y="539" type="curve" smooth="yes"/>
      <point x="746" y="374"/>
      <point x="744" y="287"/>
      <point x="692" y="138" type="curve" smooth="yes"/>
      <point x="669" y="72"/>
      <point x="645" y="34"/>
      <point x="619" y="0" type="curve"/>
      <point x="638" y="-12"/>
      <point x="659" y="-17"/>
      <point x="692" y="-17" type="curve" smooth="yes"/>
      <point x="761" y="-17"/>
      <point x="805" y="12"/>
    </contour>
  </outline>
</glyph>
<glyph name="fi" format="2">
	<unicode hex="FB01"/>
	<advance width="600"/>
	<outline>
		<contour>
			<point x="87" y="510" type="line"/>
			<point x="77" y="500"/>
			<point x="72" y="491"/>
			<point x="67" y="474" type="curve" smooth="yes"/>
			<point x="52" y="420"/>
			<point x="89" y="370"/>
			<point x="178" y="370" type="curve" smooth="yes"/>
			<point x="417" y="370" type="line"/>
			<point x="425" y="386"/>
			<point x="433" y="407"/>
			<point x="438" y="428" type="curve" smooth="yes"/>
			<point x="447" y="469"/>
			<point x="408" y="510"/>
			<point x="317" y="510" type="curve" smooth="yes"/>
		</contour>
		<contour>
			<point x="190" y="86" type="curve" smooth="yes"/>
			<point x="229" y="184"/>
			<point x="234" y="296"/>
			<point x="286" y="510" type="curve"/>
			<point x="299" y="567"/>
			<point x="309" y="596"/>
			<point x="325" y="625" type="curve"/>
			<point x="341" y="629"/>
			<point x="357" y="629"/>
			<point x="377" y="629" type="curve" smooth="yes"/>
			<point x="394" y="629"/>
			<point x="410" y="626"/>
			<point x="424" y="620" type="curve"/>
			<point x="430" y="620" type="line"/>
			<point x="444" y="639"/>
			<point x="457" y="665"/>
			<point x="463" y="689" type="curve" smooth="yes"/>
			<point x="469" y="715"/>
			<point x="463" y="738"/>
			<point x="457" y="747" type="curve" smooth="yes"/>
			<point x="449" y="759"/>
			<point x="432" y="770"/>
			<point x="400" y="770" type="curve" smooth="yes"/>
			<point x="294" y="770"/>
			<point x="193" y="698"/>
			<point x="148" y="539" type="curve"/>
			<point x="102" y="374"/>
			<point x="100" y="287"/>
			<point x="48" y="138" type="curve" smooth="yes"/>
			<point x="25" y="72"/>
			<point x="1" y="34"/>
			<point x="-25" y="0" type="curve"/>
			<point x="-6" y="-12"/>
			<point x="15" y="-17"/>
			<point x="48" y="-17" type="curve" smooth="yes"/>
			<point x="117" y="-17"/>
			<point x="161" y="12"/>
		</contour>
		<contour>
			<point x="513" y="754" type="curve"/>
			<point x="500" y="704" type="line" smooth="yes"/>
			<point x="481" y="633"/>
			<point x="505" y="601"/>
			<point x="555" y="601" type="curve" smooth="yes"/>
			<point x="581" y="601"/>
			<point x="615" y="603"/>
			<point x="644" y="607" type="curve"/>
			<point x="657" y="659" type="line" smooth="yes"/>
			<point x="673" y="724"/>
			<point x="648" y="760"/>
			<point x="603" y="760" type="curve" smooth="yes"/>
			<point x="577" y="760"/>
			<point x="542" y="758"/>
		</contour>
		<contour>
			<point x="430" y="540" type="curve"/>
			<point x="441" y="496"/>
			<point x="440" y="462"/>
			<point x="428" y="420" type="curve" smooth="yes"/>
			<point x="397" y="315"/>
			<point x="345" y="233"/>
			<point x="329" y="134" type="curve" smooth="yes"/>
			<point x="315" y="49"/>
			<point x="351" y="-9"/>
			<point x="430" y="-9" type="curve" smooth="yes"/>
			<point x="457" y="-9"/>
			<point x="476" y="-6"/>
			<point x="492" y="0" type="curve"/>
			<point x="483" y="45"/>
			<point x="486" y="89"/>
			<point x="499" y="149" type="curve" smooth="yes"/>
			<point x="522" y="251"/>
			<point x="579" y="341"/>
			<point x="595" y="431" type="curve" smooth="yes"/>
			<point x="606" y="491"/>
			<point x="573" y="550"/>
			<point x="499" y="550" type="curve" smooth="yes"/>
			<point x="469" y="550"/>
			<point x="449" y="546"/>
		</contour>
	</outline>
	<anchor name="caret_1" x="240" y="0"/>
</glyph>
<glyph name="fl" format="2">
	<unicode hex="FB02"/>
	<advance width="600"/>
	<outline>
		<contour>
			<point x="87" y="510" type="line"/>
			<point x="77" y="500"/>
			<point x="72" y="491"/>
			<point x="67" y="474" type="curve" smooth="yes"/>
			<point x="52" y="420"/>
			<point x="89" y="370"/>
			<point x="178" y="370" type="curve" smooth="yes"/>
			<point x="357" y="370" type="line"/>
			<point x="365" y="386"/>
			<point x="373" y="407"/>
			<point x="378" y="428" type="curve" smooth="yes"/>
			<point x="390" y="480"/>
			<point x="369" y="510"/>
			<point x="307" y="510" type="curve" smooth="yes"/>
		</contour>
		<contour>
			<point x="488" y="613" type="curve"/>
			<point x="449" y="476"/>
			<point x="360" y="352"/>
			<point x="336" y="181" type="curve" smooth="yes"/>
			<point x="319" y="77"/>
			<point x="381" y="-10"/>
			<point x="470" y="-10" type="curve" smooth="yes"/>
			<point x="495.2765957447" y="-10"/>
			<point x="511" y="-3"/>
			<point x="524" y="10" type="curve" smooth="yes"/>
			<point x="537" y="23"/>
			<point x="544.2951806669" y="36.1807226678"/>
			<point x="550" y="59" type="curve" smooth="yes"/>
			<point x="559" y="98"/>
			<point x="559" y="131"/>
			<point x="557" y="152" type="curve"/>
			<point x="551" y="152" type="line"/>
			<point x="535" y="137"/>
			<point x="522" y="130"/>
			<point x="506" y="130" type="curve" smooth="yes"/>
			<point x="497" y="130"/>
			<point x="488" y="131"/>
			<point x="479" y="134" type="curve"/>
			<point x="480" y="149"/>
			<point x="483" y="165"/>
			<point x="487" y="182" type="curve" smooth="yes"/>
			<point x="526" y="348"/>
			<point x="612" y="460"/>
			<point x="645" y="627" type="curve" smooth="yes"/>
			<point x="654" y="673"/>
			<point x="650" y="698"/>
			<point x="618" y="719" type="curve" smooth="yes"/>
			<point x="573" y="748"/>
			<point x="506" y="770"/>
			<point x="413" y="770" type="curve" smooth="yes"/>
			<point x="254.6300578035" y="770"/>
			<point x="191.2313254652" y="695.2840166438"/>
			<point x="147" y="539" type="curve"/>
			<point x="101" y="374"/>
			<point x="99" y="287"/>
			<point x="47" y="138" type="curve" smooth="yes"/>
			<point x="24" y="72"/>
			<point x="0" y="34"/>
			<point x="-26" y="0" type="curve"/>
			<point x="-7" y="-12"/>
			<point x="14" y="-17"/>
			<point x="47" y="-17" type="curve" smooth="yes"/>
			<point x="116" y="-17"/>
			<point x="160" y="12"/>
			<point x="189" y="86" type="curve" smooth="yes"/>
			<point x="228" y="184"/>
			<point x="233" y="296"/>
			<point x="285" y="510" type="curve"/>
			<point x="298" y="565"/>
			<point x="308" y="593"/>
			<point x="324" y="621" type="curve"/>
			<point x="342" y="628"/>
			<point x="368" y="630"/>
			<point x="402" y="630" type="curve" smooth="yes"/>
			<point x="436" y="630"/>
			<point x="460.0984723127" y="620.8696616554"/>
		</contour>
	</outline>
	<anchor name="caret_1" x="250" y="0"/>
</glyph>
<glyph name="f_f_i" format="2">
	<unicode hex="FB03"/>
	<advance width="1200"/>
	<outline>
		<contour>
			<point x="255" y="86" type="curve" smooth="yes"/>
			<point x="294" y="184"/>
			<point x="299" y="296"/>
			<point x="351" y="510" type="curve" smooth="yes"/>
			<point x="364" y="565"/>
			<point x="374" y="593"/>
			<point x="390" y="621" type="curve"/>
			<point x="412" y="627"/>
			<point x="424" y="629"/>
			<point x="445" y="629" type="curve" smooth="yes"/>
			<point x="496" y="629"/>
			<point x="547" y="617"/>
			<point x="574" y="600" type="curve"/>
			<point x="580" y="600" type="line"/>
			<point x="592" y="617"/>
			<point x="601" y="642"/>
			<point x="607" y="664" type="curve" smooth="yes"/>
			<point x="615" y="701"/>
			<point x="614" y="722"/>
			<point x="599" y="737" type="curve" smooth="yes"/>
			<point x="582" y="754"/>
			<point x="543" y="770"/>
			<point x="470" y="770" type="curve" smooth="yes"/>
			<point x="372" y="770"/>
			<point x="258" y="699"/>
			<point x="213" y="539" type="curve" smooth="yes"/>
			<point x="167" y="374"/>
			<point x="165" y="287"/>
			<point x="113" y="138" type="curve" smooth="yes"/>
			<point x="90" y="72"/>
			<point x="66" y="34"/>
			<point x="40" y="0" type="curve"/>
			<point x="59" y="-12"/>
			<point x="80" y="-17"/>
			<point x="113" y="-17" type="curve" smooth="yes"/>
			<point x="182" y="-17"/>
			<point x="226" y="12"/>
		</contour>
		<contour>
			<point x="87" y="510" type="line"/>
			<point x="77" y="500"/>
			<point x="72" y="491"/>
			<point x="67" y="474" type="curve" smooth="yes"/>
			<point x="52" y="420"/>
			<point x="89" y="370"/>
			<point x="178" y="370" type="curve"/>
			<point x="1000" y="370" type="line"/>
			<point x="1008" y="382"/>
			<point x="1015" y="397"/>
			<point x="1019" y="420" type="curve" smooth="yes"/>
			<point x="1028" y="471"/>
			<point x="1000" y="510"/>
			<point x="921" y="510" type="curve" smooth="yes"/>
		</contour>
		<contour>
			<point x="655" y="86" type="curve" smooth="yes"/>
			<point x="694" y="184"/>
			<point x="699" y="296"/>
			<point x="751" y="510" type="curve"/>
			<point x="764" y="565"/>
			<point x="774" y="593"/>
			<point x="790" y="621" type="curve"/>
			<point x="812" y="627"/>
			<point x="821" y="629"/>
			<point x="845" y="629" type="curve" smooth="yes"/>
			<point x="891" y="629"/>
			<point x="932" y="617"/>
			<point x="959" y="600" type="curve"/>
			<point x="965" y="600" type="line"/>
			<point x="977" y="617"/>
			<point x="986" y="642"/>
			<point x="992" y="664" type="curve" smooth="yes"/>
			<point x="1000" y="701"/>
			<point x="999" y="722"/>
			<point x="984" y="737" type="curve" smooth="yes"/>
			<point x="967" y="754"/>
			<point x="935" y="770"/>
			<point x="870" y="770" type="curve" smooth="yes"/>
			<point x="764" y="770"/>
			<point x="658" y="699"/>
			<point x="613" y="539" type="curve" smooth="yes"/>
			<point x="567" y="374"/>
			<point x="565" y="287"/>
			<point x="513" y="138" type="curve" smooth="yes"/>
			<point x="490" y="72"/>
			<point x="466" y="34"/>
			<point x="440" y="0" type="curve"/>
			<point x="459" y="-12"/>
			<point x="480" y="-17"/>
			<point x="513" y="-17" type="curve" smooth="yes"/>
			<point x="582" y="-17"/>
			<point x="626" y="12"/>
		</contour>
		<contour>
			<point x="1056" y="754" type="curve"/>
			<point x="1042" y="704" type="line" smooth="yes"/>
			<point x="1022" y="632"/>
			<point x="1052" y="601"/>
			<point x="1138" y="601" type="curve" smooth="yes"/>
			<point x="1164" y="601"/>
			<point x="1198" y="603"/>
			<point x="1227" y="607" type="curve"/>
			<point x="1240" y="659" type="line" smooth="yes"/>
			<point x="1256" y="725"/>
			<point x="1224" y="760"/>
			<point x="1146" y="760" type="curve" smooth="yes"/>
			<point x="1120" y="760"/>
			<point x="1085" y="758"/>
		</contour>
		<contour>
			<point x="1008" y="540" type="curve"/>
			<point x="1019" y="504"/>
			<point x="1020" y="471"/>
			<point x="1010" y="432" type="curve" smooth="yes"/>
			<point x="981" y="323"/>
			<point x="926" y="240"/>
			<point x="908" y="133" type="curve" smooth="yes"/>
			<point x="893" y="48"/>
			<point x="915" y="-9"/>
			<point x="991" y="-9" type="curve" smooth="yes"/>
			<point x="1018" y="-9"/>
			<point x="1046" y="-6"/>
			<point x="1062" y="0" type="curve"/>
			<point x="1053" y="45"/>
			<point x="1056" y="97"/>
			<point x="1069" y="157" type="curve" smooth="yes"/>
			<point x="1092" y="259"/>
			<point x="1141" y="331"/>
			<point x="1160" y="437" type="curve" smooth="yes"/>
			<point x="1171" y="497"/>
			<point x="1143" y="550"/>
			<point x="1070" y="550" type="curve" smooth="yes"/>
			<point x="1041" y="550"/>
			<point x="1026" y="546"/>
		</contour>
	</outline>
	<anchor name="caret_1" x="600" y="0"/>
	<anchor name="caret_2" x="1200" y="0"/>
</glyph>
<glyph name="f_f_l" format="2">
	<unicode hex="FB04"/>
	<advance width="1200"/>
	<outline>
		<contour>
			<point x="255" y="86" type="curve" smooth="yes"/>
			<point x="294" y="184"/>
			<point x="299" y="296"/>
			<point x="351" y="510" type="curve" smooth="yes"/>
			<point x="364" y="565"/>
			<point x="374" y="593"/>
			<point x="390" y="621" type="curve"/>
			<point x="412" y="627"/>
			<point x="424" y="629"/>
			<point x="445" y="629" type="curve" smooth="yes"/>
			<point x="496" y="629"/>
			<point x="547" y="617"/>
			<point x="574" y="600" type="curve"/>
			<point x="580" y="600" type="line"/>
			<point x="592" y="617"/>
			<point x="601" y="642"/>
			<point x="607" y="664" type="curve" smooth="yes"/>
			<point x="615" y="701"/>
			<point x="614" y="725"/>
			<point x="599" y="740" type="curve" smooth="yes"/>
			<point x="582" y="757"/>
			<point x="543" y="770"/>
			<point x="497" y="770" type="curve" smooth="yes"/>
			<point x="372" y="770"/>
			<point x="258" y="699"/>
			<point x="213" y="539" type="curve" smooth="yes"/>
			<point x="167" y="374"/>
			<point x="165" y="287"/>
			<point x="113" y="138" type="curve" smooth="yes"/>
			<point x="90" y="72"/>
			<point x="66" y="34"/>
			<point x="40" y="0" type="curve"/>
			<point x="59" y="-12"/>
			<point x="80" y="-17"/>
			<point x="113" y="-17" type="curve" smooth="yes"/>
			<point x="182" y="-17"/>
			<point x="226" y="12"/>
		</contour>
		<contour>
			<point x="1036" y="610" type="curve"/>
			<point x="992" y="447"/>
			<point x="915" y="360"/>
			<point x="891" y="197" type="curve" smooth="yes"/>
			<point x="876" y="104"/>
			<point x="950" y="-10"/>
			<point x="1039" y="-10" type="curve" smooth="yes"/>
			<point x="1080" y="-10"/>
			<point x="1106" y="2"/>
			<point x="1122" y="19" type="curve" smooth="yes"/>
			<point x="1138" y="37"/>
			<point x="1150" y="52"/>
			<point x="1157" y="82" type="curve" smooth="yes"/>
			<point x="1166" y="121"/>
			<point x="1166" y="149"/>
			<point x="1164" y="170" type="curve"/>
			<point x="1158" y="170" type="line"/>
			<point x="1124" y="139"/>
			<point x="1090" y="125"/>
			<point x="1066" y="125" type="curve" smooth="yes"/>
			<point x="1053" y="125"/>
			<point x="1041" y="126"/>
			<point x="1032" y="129" type="curve"/>
			<point x="1033" y="144"/>
			<point x="1036" y="160"/>
			<point x="1040" y="177" type="curve" smooth="yes"/>
			<point x="1079" y="343"/>
			<point x="1166" y="461"/>
			<point x="1201" y="627" type="curve" smooth="yes"/>
			<point x="1210" y="670"/>
			<point x="1202" y="700"/>
			<point x="1168" y="723" type="curve" smooth="yes"/>
			<point x="1127" y="751"/>
			<point x="1059" y="770"/>
			<point x="946" y="770" type="curve" smooth="yes"/>
			<point x="774" y="770"/>
			<point x="653" y="699"/>
			<point x="608" y="539" type="curve" smooth="yes"/>
			<point x="562" y="374"/>
			<point x="560" y="287"/>
			<point x="508" y="138" type="curve" smooth="yes"/>
			<point x="485" y="72"/>
			<point x="461" y="34"/>
			<point x="435" y="0" type="curve"/>
			<point x="454" y="-12"/>
			<point x="475" y="-17"/>
			<point x="508" y="-17" type="curve" smooth="yes"/>
			<point x="577" y="-17"/>
			<point x="621" y="12"/>
			<point x="650" y="86" type="curve" smooth="yes"/>
			<point x="689" y="184"/>
			<point x="694" y="296"/>
			<point x="746" y="510" type="curve" smooth="yes"/>
			<point x="759" y="565"/>
			<point x="769" y="593"/>
			<point x="785" y="621" type="curve"/>
			<point x="817" y="625"/>
			<point x="848" y="629"/>
			<point x="880" y="629" type="curve" smooth="yes"/>
			<point x="934" y="629"/>
			<point x="999" y="622"/>
		</contour>
		<contour>
			<point x="860" y="370" type="line"/>
			<point x="868" y="386"/>
			<point x="876" y="407"/>
			<point x="881" y="428" type="curve" smooth="yes"/>
			<point x="893" y="480"/>
			<point x="872" y="510"/>
			<point x="810" y="510" type="curve" smooth="yes"/>
			<point x="87" y="510" type="line"/>
			<point x="77" y="500"/>
			<point x="72" y="491"/>
			<point x="67" y="474" type="curve" smooth="yes"/>
			<point x="52" y="420"/>
			<point x="89" y="370"/>
			<point x="178" y="370" type="curve" smooth="yes"/>
		</contour>
	</outline>
	<anchor name="caret_1" x="600" y="0"/>
	<anchor name="caret_2" x="1200" y="0"/>
</glyph>
<glyph name="DZ.sans" format="2">
  <advance width="600"/>
  <outline>
    <contour>
      <point x="253" y="720" type="curve" smooth="yes"/>
      <point x="201" y="720"/>
      <point x="161" y="714"/>
      <point x="112" y="700" type="curve"/>
      <point x="106" y="683"/>
      <point x="99" y="666"/>
      <point x="93" y="643" type="curve" smooth="yes"/>
      <point x="77" y="579"/>
      <point x="77" y="550"/>
      <point x="109" y="550" type="curve" smooth="yes"/>
      <point x="150" y="550"/>
      <point x="183" y="570"/>
      <point x="232" y="570" type="curve" smooth="yes"/>
      <point x="254" y="570"/>
      <point x="266" y="569"/>
      <point x="276" y="567" type="curve"/>
      <point x="275" y="533"/>
      <point x="261" y="470"/>
      <point x="244" y="403" type="curve" smooth="yes"/>
      <point x="241" y="393" type="line" smooth="yes"/>
      <point x="186" y="174"/>
      <point x="160" y="145"/>
      <point x="127" y="145" type="curve" smooth="yes"/>
      <point x="122" y="145"/>
      <point x="115" y="146"/>
      <point x="113" y="147" type="curve"/>
      <point x="127" y="257"/>
      <point x="187" y="365"/>
      <point x="205" y="475" type="curve" smooth="yes"/>
      <point x="213" y="524"/>
      <point x="210" y="542"/>
      <point x="194" y="561" type="curve"/>
      <point x="206" y="589" type="line"/>
      <point x="136" y="699" type="line"/>
      <point x="123" y="505"/>
      <point x="7" y="266"/>
      <point x="-12" y="135" type="curve" smooth="yes"/>
      <point x="-19" y="86"/>
      <point x="-17" y="63"/>
      <point x="-4" y="40" type="curve" smooth="yes"/>
      <point x="12" y="12"/>
      <point x="42" y="-10"/>
      <point x="85" y="-10" type="curve" smooth="yes"/>
      <point x="188" y="-10"/>
      <point x="270" y="51"/>
      <point x="347" y="360" type="curve" smooth="yes"/>
      <point x="364" y="428" type="line" smooth="yes"/>
      <point x="418" y="644"/>
      <point x="324" y="720"/>
    </contour>
    <contour>
      <point x="528" y="0" type="line"/>
      <point x="531" y="8"/>
      <point x="538" y="30"/>
      <point x="543" y="52" type="curve" smooth="yes"/>
      <point x="561" y="123"/>
      <point x="540" y="150"/>
      <point x="506" y="150" type="curve" smooth="yes"/>
      <point x="496" y="150" type="line" smooth="yes"/>
      <point x="468" y="150"/>
      <point x="442" y="149"/>
      <point x="402" y="143" type="curve"/>
      <point x="404" y="149" type="line"/>
      <point x="448" y="193"/>
      <point x="498" y="249"/>
      <point x="533" y="297" type="curve" smooth="yes"/>
      <point x="611" y="404"/>
      <point x="652" y="476"/>
      <point x="667" y="545" type="curve" smooth="yes"/>
      <point x="669" y="554" type="line" smooth="yes"/>
      <point x="697" y="664"/>
      <point x="682" y="700"/>
      <point x="634" y="700" type="curve" smooth="yes"/>
      <point x="422" y="700" type="line"/>
      <point x="415" y="682"/>
      <point x="409" y="661"/>
      <point x="405" y="641" type="curve" smooth="yes"/>
      <point x="397" y="597"/>
      <point x="399" y="555"/>
      <point x="422" y="555" type="curve" smooth="yes"/>
      <point x="495" y="555" type="line" smooth="yes"/>
      <point x="519" y="555"/>
      <point x="538" y="557"/>
      <point x="558" y="563" type="curve"/>
      <point x="555" y="554" type="line"/>
      <point x="534" y="507"/>
      <point x="511" y="462"/>
      <point x="488" y="423" type="curve" smooth="yes"/>
      <point x="434" y="328"/>
      <point x="381" y="240"/>
      <point x="300" y="142" type="curve"/>
      <point x="295" y="125" type="line" smooth="yes"/>
      <point x="272" y="47"/>
      <point x="291" y="0"/>
      <point x="338" y="0" type="curve" smooth="yes"/>
    </contour>
  </outline>
</glyph>
<glyph name="Ldot.sans" format="2">
	<advance width="600"/>
	<outline>
		<contour>
			<point x="388" y="474" type="curve"/>
			<point x="374" y="424" type="line" smooth="yes"/>
			<point x="354" y="352"/>
			<point x="384" y="321"/>
			<point x="470" y="321" type="curve" smooth="yes"/>
			<point x="496" y="321"/>
			<point x="530" y="323"/>
			<point x="559" y="327" type="curve"/>
			<point x="572" y="379" type="line" smooth="yes"/>
			<point x="588" y="445"/>
			<point x="556" y="480"/>
			<point x="478" y="480" type="curve" smooth="yes"/>
			<point x="452" y="480"/>
			<point x="417" y="478"/>
		</contour>
		<component base="L.sans"/>
	</outline>
</glyph>
<glyph name="_arrowhead" format="2">
	<advance width="600"/>
	<outline>
		<contour>
			<point x="350" y="710" type="line"/>
			<point x="221" y="639"/>
			<point x="114" y="516"/>
			<point x="25" y="345" type="curve"/>
			<point x="46" y="333"/>
			<point x="76" y="326"/>
			<point x="107" y="326" type="curve"/>
			<point x="169" y="326"/>
			<point x="184" y="342"/>
			<point x="207" y="383" type="curve" smooth="yes"/>
			<point x="258" y="473"/>
			<point x="301" y="529"/>
			<point x="400" y="598" type="curve"/>
			<point x="342" y="576" type="line"/>
			<point x="410" y="576" type="line"/>
			<point x="362" y="598" type="line"/>
			<point x="417" y="516"/>
			<point x="433" y="469"/>
			<point x="451" y="383" type="curve" smooth="yes"/>
			<point x="461" y="342"/>
			<point x="474" y="326"/>
			<point x="530" y="326" type="curve"/>
			<point x="558.9285714286" y="326"/>
			<point x="585.7932740136" y="333.7970106727"/>
			<point x="611" y="345" type="curve"/>
			<point x="578" y="486"/>
			<point x="542" y="569"/>
			<point x="483" y="651" type="curve" smooth="yes"/>
			<point x="446" y="705"/>
			<point x="427" y="710"/>
			<point x="370" y="710" type="curve"/>
		</contour>
	</outline>
</glyph>
<glyph name="ampersand_ampersand.code" format="2">
	<advance width="1200"/>
	<outline>
		<contour>
			<point x="364" y="362" type="curve" smooth="yes"/>
			<point x="353" y="412"/>
			<point x="353" y="465"/>
			<point x="361" y="504" type="curve" smooth="yes"/>
			<point x="365" y="522"/>
			<point x="368" y="538"/>
			<point x="376" y="553" type="curve"/>
			<point x="395" y="558"/>
			<point x="413" y="560"/>
			<point x="446" y="560" type="curve" smooth="yes"/>
			<point x="499" y="560"/>
			<point x="557" y="550"/>
			<point x="596" y="531" type="curve"/>
			<point x="602" y="531" type="line"/>
			<point x="617" y="545"/>
			<point x="628" y="563"/>
			<point x="634" y="589" type="curve" smooth="yes"/>
			<point x="643" y="623"/>
			<point x="638" y="653"/>
			<point x="616" y="673" type="curve" smooth="yes"/>
			<point x="591" y="696"/>
			<point x="547" y="710"/>
			<point x="495" y="710" type="curve" smooth="yes"/>
			<point x="334" y="710"/>
			<point x="236" y="610"/>
			<point x="222" y="526" type="curve" smooth="yes"/>
			<point x="221" y="520" type="line" smooth="yes"/>
			<point x="213" y="470"/>
			<point x="207" y="403"/>
			<point x="236" y="310" type="curve" smooth="yes"/>
			<point x="253" y="256"/>
			<point x="288" y="171"/>
			<point x="336" y="108" type="curve" smooth="yes"/>
			<point x="405" y="15"/>
			<point x="452" y="-8"/>
			<point x="513" y="-8" type="curve" smooth="yes"/>
			<point x="561.976744186" y="-8"/>
			<point x="593.0419209215" y="8.3672693174"/>
			<point x="621" y="31" type="curve" smooth="yes"/>
			<point x="642" y="48"/>
			<point x="662" y="78"/>
			<point x="672" y="122" type="curve" smooth="yes"/>
			<point x="678" y="149"/>
			<point x="678" y="173"/>
			<point x="675" y="190" type="curve"/>
			<point x="669" y="190" type="line"/>
			<point x="624.5441739997" y="163.3265043998"/>
			<point x="590.25" y="150"/>
			<point x="543" y="150" type="curve" smooth="yes"/>
			<point x="503" y="150"/>
			<point x="465" y="169"/>
			<point x="429" y="214" type="curve" smooth="yes"/>
			<point x="387" y="266"/>
			<point x="377" y="302"/>
		</contour>
		<contour>
			<point x="826" y="104" type="curve" smooth="yes"/>
			<point x="897" y="15"/>
			<point x="947" y="-10"/>
			<point x="988" y="-10" type="curve" smooth="yes"/>
			<point x="1008" y="-10"/>
			<point x="1027" y="-5"/>
			<point x="1039" y="7" type="curve" smooth="yes"/>
			<point x="1058" y="25"/>
			<point x="1072" y="45"/>
			<point x="1078" y="86" type="curve" smooth="yes"/>
			<point x="1082" y="114"/>
			<point x="1082" y="142"/>
			<point x="1080" y="159" type="curve"/>
			<point x="1074" y="159" type="line"/>
			<point x="1063" y="153"/>
			<point x="1049" y="150"/>
			<point x="1032" y="150" type="curve" smooth="yes"/>
			<point x="992" y="150"/>
			<point x="954" y="166"/>
			<point x="916" y="214" type="curve" smooth="yes"/>
			<point x="880" y="260"/>
			<point x="860" y="312"/>
			<point x="851" y="362" type="curve" smooth="yes"/>
			<point x="842" y="410"/>
			<point x="841" y="466"/>
			<point x="848" y="503" type="curve" smooth="yes"/>
			<point x="852" y="525"/>
			<point x="858" y="542"/>
			<point x="862" y="553" type="curve"/>
			<point x="882" y="557"/>
			<point x="903" y="560"/>
			<point x="932" y="560" type="curve" smooth="yes"/>
			<point x="999" y="560"/>
			<point x="1041" y="551"/>
			<point x="1083" y="531" type="curve"/>
			<point x="1089" y="531" type="line"/>
			<point x="1103" y="546"/>
			<point x="1116" y="565"/>
			<point x="1122" y="590" type="curve" smooth="yes"/>
			<point x="1131" y="626"/>
			<point x="1124" y="653"/>
			<point x="1101" y="673" type="curve" smooth="yes"/>
			<point x="1073" y="698"/>
			<point x="1033" y="710"/>
			<point x="977" y="710" type="curve" smooth="yes"/>
			<point x="827" y="710"/>
			<point x="725" y="616"/>
			<point x="710" y="527" type="curve" smooth="yes"/>
			<point x="708" y="515" type="line" smooth="yes"/>
			<point x="699" y="462"/>
			<point x="698" y="393"/>
			<point x="712" y="341" type="curve" smooth="yes"/>
			<point x="735" y="256"/>
			<point x="770" y="174"/>
		</contour>
		<contour>
			<point x="187" y="-9" type="curve" smooth="yes"/>
			<point x="254" y="-10"/>
			<point x="311" y="26"/>
			<point x="344" y="90" type="curve"/>
			<point x="392" y="90" type="line"/>
			<point x="351" y="179" type="line"/>
			<point x="314" y="145"/>
			<point x="287" y="123"/>
			<point x="242" y="123" type="curve" smooth="yes"/>
			<point x="199" y="123"/>
			<point x="180" y="157"/>
			<point x="195" y="201" type="curve" smooth="yes"/>
			<point x="197" y="207" type="line" smooth="yes"/>
			<point x="211" y="250"/>
			<point x="248" y="280"/>
			<point x="280" y="280" type="curve"/>
			<point x="234" y="375" type="line"/>
			<point x="224" y="336" type="line"/>
			<point x="130" y="321"/>
			<point x="66" y="262"/>
			<point x="51" y="174" type="curve" smooth="yes"/>
			<point x="50" y="168" type="line" smooth="yes"/>
			<point x="32" y="60"/>
			<point x="90" y="-8"/>
		</contour>
		<contour>
			<point x="447" y="176" type="line"/>
			<point x="473" y="252"/>
			<point x="504" y="292"/>
			<point x="580" y="292" type="curve" smooth="yes"/>
			<point x="635" y="292"/>
			<point x="692" y="279"/>
			<point x="754" y="253" type="curve"/>
			<point x="721" y="356" type="line"/>
			<point x="703" y="345" type="line"/>
			<point x="663" y="393"/>
			<point x="609" y="418"/>
			<point x="546" y="418" type="curve" smooth="yes"/>
			<point x="542" y="418" type="line" smooth="yes"/>
			<point x="464" y="418"/>
			<point x="417" y="363"/>
			<point x="414" y="242" type="curve"/>
			<point x="387" y="242" type="line"/>
		</contour>
		<contour>
			<point x="1029" y="427" type="curve" smooth="yes"/>
			<point x="1010" y="427"/>
			<point x="993" y="424"/>
			<point x="982" y="421" type="curve"/>
			<point x="980" y="411"/>
			<point x="977" y="389"/>
			<point x="974" y="377" type="curve" smooth="yes"/>
			<point x="956" y="306"/>
			<point x="941" y="261"/>
			<point x="877" y="208" type="curve"/>
			<point x="933" y="149" type="line"/>
			<point x="944" y="192" type="line"/>
			<point x="1046" y="217"/>
			<point x="1099" y="277"/>
			<point x="1115" y="337" type="curve" smooth="yes"/>
			<point x="1118" y="348" type="line" smooth="yes"/>
			<point x="1131" y="395"/>
			<point x="1092" y="427"/>
		</contour>
	</outline>
	<anchor name="caret_1" x="600" y="0"/>
</glyph>
<glyph name="ampersand_ampersand_ampersand.code" format="2">
	<advance width="1800"/>
	<outline>
		<contour>
			<point x="404" y="362" type="curve" smooth="yes"/>
			<point x="393" y="412"/>
			<point x="393" y="465"/>
			<point x="401" y="504" type="curve" smooth="yes"/>
			<point x="405" y="522"/>
			<point x="408" y="538"/>
			<point x="416" y="553" type="curve"/>
			<point x="435" y="558"/>
			<point x="453" y="560"/>
			<point x="486" y="560" type="curve" smooth="yes"/>
			<point x="539" y="560"/>
			<point x="597" y="550"/>
			<point x="636" y="531" type="curve"/>
			<point x="642" y="531" type="line"/>
			<point x="657" y="545"/>
			<point x="668" y="563"/>
			<point x="674" y="589" type="curve" smooth="yes"/>
			<point x="683.200406777" y="623.7570922688"/>
			<point x="678.2385462458" y="654.7831397766"/>
			<point x="656" y="675" type="curve" smooth="yes"/>
			<point x="631.6101707713" y="697.4386428904"/>
			<point x="587" y="710"/>
			<point x="535" y="710" type="curve" smooth="yes"/>
			<point x="374" y="710"/>
			<point x="276" y="610"/>
			<point x="262" y="526" type="curve" smooth="yes"/>
			<point x="261" y="520" type="line" smooth="yes"/>
			<point x="253" y="470"/>
			<point x="247" y="403"/>
			<point x="276" y="310" type="curve" smooth="yes"/>
			<point x="293" y="256"/>
			<point x="328" y="171"/>
			<point x="376" y="108" type="curve" smooth="yes"/>
			<point x="445" y="15"/>
			<point x="492" y="-8"/>
			<point x="553" y="-8" type="curve" smooth="yes"/>
			<point x="601.0925925926" y="-8"/>
			<point x="632.1653923099" y="5.9572865403"/>
			<point x="659" y="28" type="curve" smooth="yes"/>
			<point x="680.7716745674" y="45.6246889355"/>
			<point x="701.6672517629" y="76.5359077569"/>
			<point x="712" y="122" type="curve" smooth="yes"/>
			<point x="718" y="149"/>
			<point x="718" y="173"/>
			<point x="715" y="190" type="curve"/>
			<point x="709" y="190" type="line"/>
			<point x="665" y="163"/>
			<point x="630" y="150"/>
			<point x="583" y="150" type="curve" smooth="yes"/>
			<point x="543" y="150"/>
			<point x="505" y="169"/>
			<point x="469" y="214" type="curve" smooth="yes"/>
			<point x="427" y="266"/>
			<point x="417" y="302"/>
		</contour>
		<contour>
			<point x="1354" y="104" type="curve" smooth="yes"/>
			<point x="1425" y="15"/>
			<point x="1475" y="-10"/>
			<point x="1516" y="-10" type="curve" smooth="yes"/>
			<point x="1536" y="-10"/>
			<point x="1555" y="-5"/>
			<point x="1567" y="7" type="curve" smooth="yes"/>
			<point x="1586" y="25"/>
			<point x="1600" y="45"/>
			<point x="1606" y="86" type="curve" smooth="yes"/>
			<point x="1610" y="114"/>
			<point x="1610" y="142"/>
			<point x="1608" y="159" type="curve"/>
			<point x="1602" y="159" type="line"/>
			<point x="1591" y="153"/>
			<point x="1577" y="150"/>
			<point x="1560" y="150" type="curve" smooth="yes"/>
			<point x="1520" y="150"/>
			<point x="1482" y="166"/>
			<point x="1444" y="214" type="curve" smooth="yes"/>
			<point x="1408" y="260"/>
			<point x="1388" y="312"/>
			<point x="1379" y="362" type="curve" smooth="yes"/>
			<point x="1370" y="410"/>
			<point x="1369" y="466"/>
			<point x="1376" y="503" type="curve" smooth="yes"/>
			<point x="1380" y="525"/>
			<point x="1386" y="542"/>
			<point x="1390" y="553" type="curve"/>
			<point x="1410" y="557"/>
			<point x="1431" y="560"/>
			<point x="1460" y="560" type="curve" smooth="yes"/>
			<point x="1527" y="560"/>
			<point x="1569" y="551"/>
			<point x="1611" y="531" type="curve"/>
			<point x="1617" y="531" type="line"/>
			<point x="1631" y="546"/>
			<point x="1644" y="565"/>
			<point x="1650" y="590" type="curve" smooth="yes"/>
			<point x="1659.2042520076" y="626.8170080302"/>
			<point x="1652.2402497095" y="654.7910872091"/>
			<point x="1629" y="675" type="curve" smooth="yes"/>
			<point x="1601.6610175061" y="699.4098057982"/>
			<point x="1561" y="710"/>
			<point x="1505" y="710" type="curve" smooth="yes"/>
			<point x="1355" y="710"/>
			<point x="1253" y="616"/>
			<point x="1238" y="527" type="curve" smooth="yes"/>
			<point x="1236" y="515" type="line" smooth="yes"/>
			<point x="1227" y="462"/>
			<point x="1226" y="393"/>
			<point x="1240" y="341" type="curve" smooth="yes"/>
			<point x="1263" y="256"/>
			<point x="1298" y="174"/>
		</contour>
		<contour>
			<point x="227" y="-9" type="curve" smooth="yes"/>
			<point x="294" y="-10"/>
			<point x="351" y="26"/>
			<point x="384" y="90" type="curve"/>
			<point x="432" y="90" type="line"/>
			<point x="391" y="179" type="line"/>
			<point x="354" y="145"/>
			<point x="327" y="123"/>
			<point x="282" y="123" type="curve" smooth="yes"/>
			<point x="239" y="123"/>
			<point x="220" y="157"/>
			<point x="235" y="201" type="curve" smooth="yes"/>
			<point x="237" y="207" type="line" smooth="yes"/>
			<point x="251" y="250"/>
			<point x="288" y="280"/>
			<point x="320" y="280" type="curve"/>
			<point x="274" y="375" type="line"/>
			<point x="264" y="336" type="line"/>
			<point x="170" y="321"/>
			<point x="106" y="262"/>
			<point x="91" y="174" type="curve" smooth="yes"/>
			<point x="90" y="168" type="line" smooth="yes"/>
			<point x="72" y="60"/>
			<point x="130" y="-8"/>
		</contour>
		<contour>
			<point x="487" y="176" type="line"/>
			<point x="513" y="252"/>
			<point x="544" y="292"/>
			<point x="620" y="292" type="curve" smooth="yes"/>
			<point x="675" y="292"/>
			<point x="732" y="279"/>
			<point x="794" y="253" type="curve"/>
			<point x="761" y="356" type="line"/>
			<point x="743" y="345" type="line"/>
			<point x="703" y="393"/>
			<point x="649" y="418"/>
			<point x="586" y="418" type="curve" smooth="yes"/>
			<point x="582" y="418" type="line" smooth="yes"/>
			<point x="504" y="418"/>
			<point x="457" y="363"/>
			<point x="454" y="242" type="curve"/>
			<point x="427" y="242" type="line"/>
		</contour>
		<contour>
			<point x="1557" y="427" type="curve" smooth="yes"/>
			<point x="1538" y="427"/>
			<point x="1521" y="424"/>
			<point x="1510" y="421" type="curve"/>
			<point x="1508" y="411"/>
			<point x="1505" y="389"/>
			<point x="1502" y="377" type="curve" smooth="yes"/>
			<point x="1484" y="306"/>
			<point x="1469" y="261"/>
			<point x="1405" y="208" type="curve"/>
			<point x="1461" y="149" type="line"/>
			<point x="1472" y="192" type="line"/>
			<point x="1574" y="217"/>
			<point x="1627" y="277"/>
			<point x="1643" y="337" type="curve" smooth="yes"/>
			<point x="1646" y="348" type="line" smooth="yes"/>
			<point x="1659" y="395"/>
			<point x="1620" y="427"/>
		</contour>
		<contour>
			<point x="890" y="362" type="curve" smooth="yes"/>
			<point x="879" y="412"/>
			<point x="879" y="465"/>
			<point x="887" y="504" type="curve" smooth="yes"/>
			<point x="891" y="522"/>
			<point x="894" y="538"/>
			<point x="902" y="553" type="curve"/>
			<point x="921" y="558"/>
			<point x="939" y="560"/>
			<point x="972" y="560" type="curve" smooth="yes"/>
			<point x="1025" y="560"/>
			<point x="1083" y="550"/>
			<point x="1122" y="531" type="curve"/>
			<point x="1128" y="531" type="line"/>
			<point x="1143" y="545"/>
			<point x="1154" y="563"/>
			<point x="1160" y="589" type="curve" smooth="yes"/>
			<point x="1169.200406777" y="623.7570922688"/>
			<point x="1164.2385462458" y="654.7831397766"/>
			<point x="1142" y="675" type="curve" smooth="yes"/>
			<point x="1117.6101707713" y="697.4386428904"/>
			<point x="1073" y="710"/>
			<point x="1021" y="710" type="curve" smooth="yes"/>
			<point x="860" y="710"/>
			<point x="762" y="610"/>
			<point x="748" y="526" type="curve" smooth="yes"/>
			<point x="747" y="520" type="line" smooth="yes"/>
			<point x="739" y="470"/>
			<point x="733" y="403"/>
			<point x="762" y="310" type="curve" smooth="yes"/>
			<point x="779" y="256"/>
			<point x="814" y="171"/>
			<point x="862" y="108" type="curve" smooth="yes"/>
			<point x="931" y="15"/>
			<point x="978" y="-8"/>
			<point x="1039" y="-8" type="curve" smooth="yes"/>
			<point x="1087.0925925926" y="-8"/>
			<point x="1118.1653923099" y="5.9572865403"/>
			<point x="1145" y="28" type="curve" smooth="yes"/>
			<point x="1166.7716745674" y="45.6246889355"/>
			<point x="1187.6672517629" y="76.5359077569"/>
			<point x="1198" y="122" type="curve" smooth="yes"/>
			<point x="1204" y="149"/>
			<point x="1204" y="173"/>
			<point x="1201" y="190" type="curve"/>
			<point x="1195" y="190" type="line"/>
			<point x="1151" y="163"/>
			<point x="1116" y="150"/>
			<point x="1069" y="150" type="curve" smooth="yes"/>
			<point x="1029" y="150"/>
			<point x="991" y="169"/>
			<point x="955" y="214" type="curve" smooth="yes"/>
			<point x="913" y="266"/>
			<point x="903" y="302"/>
		</contour>
		<contour>
			<point x="973" y="176" type="line"/>
			<point x="999" y="252"/>
			<point x="1030" y="292"/>
			<point x="1106" y="292" type="curve" smooth="yes"/>
			<point x="1161" y="292"/>
			<point x="1218" y="279"/>
			<point x="1280" y="253" type="curve"/>
			<point x="1247" y="356" type="line"/>
			<point x="1229" y="345" type="line"/>
			<point x="1189" y="393"/>
			<point x="1135" y="418"/>
			<point x="1072" y="418" type="curve" smooth="yes"/>
			<point x="1068" y="418" type="line" smooth="yes"/>
			<point x="990" y="418"/>
			<point x="943" y="363"/>
			<point x="940" y="242" type="curve"/>
			<point x="913" y="242" type="line"/>
		</contour>
	</outline>
	<anchor name="caret_1" x="600" y="0"/>
	<anchor name="caret_2" x="1200" y="0"/>
</glyph>
<glyph name="b.italic" format="2">
	<advance width="600"/>
	<outline>
		<contour>
			<point x="177" y="103" type="line"/>
			<point x="168" y="272"/>
			<point x="281" y="427"/>
			<point x="313" y="579" type="curve" smooth="yes"/>
			<point x="342" y="716"/>
			<point x="295" y="758"/>
			<point x="226" y="758" type="curve" smooth="yes"/>
			<point x="205" y="758"/>
			<point x="187" y="756"/>
			<point x="169" y="750" type="curve"/>
			<point x="181" y="723"/>
			<point x="178" y="675"/>
			<point x="171" y="643" type="curve" smooth="yes"/>
			<point x="133" y="457"/>
			<point x="69" y="354"/>
			<point x="40" y="221" type="curve" smooth="yes"/>
			<point x="24" y="149"/>
			<point x="45" y="84"/>
			<point x="87" y="41" type="curve" smooth="yes"/>
			<point x="119" y="9"/>
			<point x="163" y="-11"/>
			<point x="223" y="-11" type="curve" smooth="yes"/>
			<point x="374" y="-11"/>
			<point x="503" y="77"/>
			<point x="555" y="276" type="curve" smooth="yes"/>
			<point x="560" y="294" type="line" smooth="yes"/>
			<point x="598" y="429"/>
			<point x="552" y="553"/>
			<point x="458" y="553" type="curve" smooth="yes"/>
			<point x="395" y="553"/>
			<point x="329" y="506"/>
			<point x="269" y="427" type="curve"/>
			<point x="244" y="437" type="line"/>
			<point x="172" y="212" type="line"/>
			<point x="242" y="325"/>
			<point x="342" y="397"/>
			<point x="405" y="397" type="curve" smooth="yes"/>
			<point x="411" y="397"/>
			<point x="417" y="396"/>
			<point x="422" y="395" type="curve"/>
			<point x="422" y="368"/>
			<point x="416" y="338"/>
			<point x="405" y="298" type="curve" smooth="yes"/>
			<point x="401" y="284" type="line" smooth="yes"/>
			<point x="368" y="169"/>
			<point x="302" y="126"/>
			<point x="231" y="126" type="curve" smooth="yes"/>
			<point x="195" y="126"/>
			<point x="172" y="129"/>
			<point x="143" y="142" type="curve"/>
		</contour>
	</outline>
	<anchor name="top" x="300" y="730"/>
	<anchor name="bottom" x="300" y="-1"/>
</glyph>
<glyph name="bar_equal.code" format="2">
	<advance width="1200"/>
	<outline>
		<contour>
			<point x="279" y="751" type="curve"/>
			<point x="283" y="717"/>
			<point x="282" y="681"/>
			<point x="275" y="642" type="curve" smooth="yes"/>
			<point x="228" y="378"/>
			<point x="112" y="213"/>
			<point x="83" y="6" type="curve" smooth="yes"/>
			<point x="69" y="-94"/>
			<point x="109" y="-134"/>
			<point x="171" y="-134" type="curve" smooth="yes"/>
			<point x="190" y="-134"/>
			<point x="209" y="-131"/>
			<point x="224" y="-126" type="curve"/>
			<point x="230" y="170"/>
			<point x="375" y="328"/>
			<point x="423" y="615" type="curve" smooth="yes"/>
			<point x="439" y="709"/>
			<point x="417" y="759"/>
			<point x="342" y="759" type="curve" smooth="yes"/>
			<point x="321" y="759"/>
			<point x="303" y="757"/>
		</contour>
		<contour>
			<point x="377" y="500" type="line"/>
			<point x="371" y="488"/>
			<point x="364" y="474"/>
			<point x="358" y="448" type="curve" smooth="yes"/>
			<point x="342.4332096123" y="379.5061222939"/>
			<point x="369.2168674699" y="350"/>
			<point x="491" y="350" type="curve" smooth="yes"/>
			<point x="1055" y="350" type="line"/>
			<point x="1066" y="368"/>
			<point x="1074" y="387"/>
			<point x="1081" y="413" type="curve" smooth="yes"/>
			<point x="1095" y="467"/>
			<point x="1075" y="500"/>
			<point x="1017" y="500" type="curve" smooth="yes"/>
		</contour>
		<contour>
			<point x="298" y="250" type="line"/>
			<point x="287.1512879194" y="231.4022078618"/>
			<point x="278.2294402183" y="214.9177608731"/>
			<point x="273" y="194" type="curve" smooth="yes"/>
			<point x="259.2078691815" y="133.8161564284"/>
			<point x="281.6666666667" y="100"/>
			<point x="351" y="100" type="curve" smooth="yes"/>
			<point x="993" y="100" type="line"/>
			<point x="1000" y="108"/>
			<point x="1010" y="125"/>
			<point x="1016" y="152" type="curve" smooth="yes"/>
			<point x="1030" y="217"/>
			<point x="1011" y="250"/>
			<point x="933" y="250" type="curve" smooth="yes"/>
		</contour>
	</outline>
	<anchor name="caret_1" x="600" y="0"/>
</glyph>
<glyph name="bar_greater.code" format="2">
	<advance width="1200"/>
	<outline>
		<contour>
			<point x="687" y="-34"/>
			<point x="872" y="110"/>
			<point x="962" y="221" type="curve"/>
			<point x="971" y="244"/>
			<point x="975" y="256"/>
			<point x="983" y="286" type="curve" smooth="yes"/>
			<point x="996" y="340"/>
			<point x="992" y="374"/>
			<point x="968" y="418" type="curve" smooth="yes"/>
			<point x="910" y="527"/>
			<point x="822" y="621"/>
			<point x="663" y="710" type="curve"/>
			<point x="650" y="683"/>
			<point x="639" y="657"/>
			<point x="629" y="625" type="curve" smooth="yes"/>
			<point x="611" y="557"/>
			<point x="630" y="531"/>
			<point x="657" y="512" type="curve" smooth="yes"/>
			<point x="740" y="455"/>
			<point x="798" y="407"/>
			<point x="854" y="287" type="curve"/>
			<point x="852" y="349" type="line"/>
			<point x="829" y="255" type="line"/>
			<point x="855" y="316" type="line"/>
			<point x="750" y="208"/>
			<point x="661" y="154"/>
			<point x="547" y="100" type="curve" smooth="yes"/>
			<point x="506" y="81"/>
			<point x="478" y="50"/>
			<point x="461" y="-20" type="curve" smooth="yes"/>
			<point x="454" y="-49"/>
			<point x="450" y="-78"/>
			<point x="449" y="-103" type="curve"/>
		</contour>
		<contour>
			<point x="399" y="757" type="curve"/>
			<point x="403" y="723"/>
			<point x="402" y="687"/>
			<point x="395" y="648" type="curve" smooth="yes"/>
			<point x="348" y="384"/>
			<point x="232" y="183"/>
			<point x="203" y="-24" type="curve" smooth="yes"/>
			<point x="189" y="-124"/>
			<point x="229" y="-164"/>
			<point x="291" y="-164" type="curve" smooth="yes"/>
			<point x="310" y="-164"/>
			<point x="329" y="-161"/>
			<point x="344" y="-156" type="curve"/>
			<point x="349" y="143"/>
			<point x="493" y="337"/>
			<point x="541" y="624" type="curve" smooth="yes"/>
			<point x="557" y="718"/>
			<point x="537" y="765"/>
			<point x="462" y="765" type="curve" smooth="yes"/>
			<point x="441" y="765"/>
			<point x="423" y="763"/>
		</contour>
	</outline>
	<anchor name="caret_1" x="600" y="0"/>
</glyph>
